<svg width="20" height="20" viewBox="0 0 20 20" fill="none" xmlns="http://www.w3.org/2000/svg">
<g clip-path="url(#clip0_768_8850)">
<path d="M7.46597 6.19727C7.46597 6.19727 5.98038 8.55002 5.01373 10.3451C3.66394 12.8518 3.00781 14.5548 3.00781 15.5514C3.00781 18.0047 5.00778 20.0005 7.46597 20.0005C9.92432 20.0005 11.9241 18.0047 11.9241 15.5514C11.9241 14.5548 11.268 12.8518 9.91821 10.3451C8.95172 8.55002 7.46597 6.19727 7.46597 6.19727ZM8.90015 16.1069H8.05191V16.9535H6.88004V16.1069H6.0318V14.9375H6.88004V14.0911H8.05191V14.9375H8.90015V16.1069Z" fill="#B5AEFF"/>
<path d="M15.4031 3.41034C14.6484 2.00897 13.3796 0 13.3796 0C13.3796 0 12.111 2.00897 11.3563 3.41034C10.2952 5.38116 9.7793 6.72699 9.7793 7.52472C9.7793 9.50592 11.3944 11.1177 13.3796 11.1177C15.3649 11.1177 16.9801 9.50592 16.9801 7.52472C16.9801 6.72699 16.4642 5.38116 15.4031 3.41034ZM14.6461 7.8772H12.1133V6.70776H14.6461V7.8772Z" fill="#B5AEFF"/>
</g>
<defs>
<clipPath id="clip0_768_8850">
<rect width="20" height="20" fill="white"/>
</clipPath>
</defs>
</svg>
