<svg width="20" height="20" viewBox="0 0 20 20" fill="none" xmlns="http://www.w3.org/2000/svg">
<rect width="20" height="20" fill="#F5F5F5"/>
<g id="Kama app update 4">
<rect width="1650" height="18999" transform="translate(-686 -6825)" fill="white"/>
<g id="Mask group">
<mask id="mask0_140_6" style="mask-type:alpha" maskUnits="userSpaceOnUse" x="-448" y="-564" width="1904" height="1140">
<g id="Group 92">
<line id="Line 44" x1="-448" y1="14" x2="1456" y2="14" stroke="#EAEAEA" stroke-width="4"/>
</g>
</mask>
<g mask="url(#mask0_140_6)">
<path id="Vector" fill-rule="evenodd" clip-rule="evenodd" d="M528.982 -528.998C649.637 -529.502 746.087 -445.066 835.776 -364.382C932.592 -277.288 1056.82 -187.825 1052.91 -57.6794C1049.03 71.2778 908.727 139.499 817.88 231.133C726.306 323.502 658.939 464.946 528.982 470.795C397.119 476.73 305.309 352.533 212.841 258.366C121.665 165.515 7.54409 72.4103 10.0402 -57.6794C12.515 -186.651 129.236 -275.088 224.741 -361.829C313.783 -442.699 408.682 -528.495 528.982 -528.998Z" fill="#F4F3FF"/>
</g>
</g>
<g id="Onboarding 74">
<g clip-path="url(#clip0_140_6)">
<rect x="-48" y="-688" width="430" height="1204" rx="40" fill="white"/>
<g id="Frame 31">
<g id="Frame 31_2">
<g id="Frame 39">
<g id="Frame 68045">
<g id="Layer_1" clip-path="url(#clip1_140_6)">
<path id="Vector_2" fill-rule="evenodd" clip-rule="evenodd" d="M0.898438 1.42969V7.81797H5.49102C7.25195 7.81797 8.68477 6.38477 8.68477 4.62383C8.68477 2.8625 7.25195 1.42969 5.49102 1.42969H0.898438ZM5.97812 6.7832H2.20625C2.05547 6.7832 1.93281 6.66094 1.93281 6.50977V2.7375C1.93281 2.58633 2.05547 2.46406 2.20625 2.46406H5.97812C6.1293 2.46406 6.25156 2.58633 6.25156 2.7375V6.50937C6.25156 6.66094 6.1293 6.7832 5.97812 6.7832ZM6.82656 6.31523V5.57969C6.82656 5.42852 6.94883 5.30625 7.1 5.30625C7.25078 5.30625 7.37344 5.42852 7.37344 5.57969V6.31523C7.37344 6.46602 7.25078 6.58867 7.1 6.58867C6.94883 6.58906 6.82656 6.46602 6.82656 6.31523ZM7.1 3.94102C6.94883 3.94102 6.82656 3.81875 6.82656 3.66758V2.93203C6.82656 2.78086 6.94883 2.65859 7.1 2.65859C7.25078 2.65859 7.37344 2.78086 7.37344 2.93203V3.66758C7.37344 3.81875 7.25078 3.94102 7.1 3.94102ZM5.70469 3.01133V6.23633H2.47969V3.01133H5.70469ZM9.20312 4.16211H11.243C11.4973 4.16211 11.7047 4.36914 11.7047 4.62383C11.7047 4.87852 11.4973 5.08555 11.243 5.08555H9.20312C9.22188 4.93398 9.23164 4.78008 9.23164 4.62383C9.23164 4.46758 9.22188 4.31328 9.20312 4.16211ZM11.243 5.63203C11.7988 5.63203 12.2516 5.1793 12.2516 4.62344C12.2516 4.06719 11.7988 3.61484 11.243 3.61484H11.0461V3.37422C11.0461 2.93242 11.4059 2.57266 11.848 2.57266C12.2902 2.57266 12.65 2.93242 12.65 3.37422V8.74648C12.65 8.89766 12.7723 9.01992 12.9234 9.01992C13.0742 9.01992 13.1969 8.89766 13.1969 8.74648V3.37422C13.1969 3.3668 13.1969 3.35898 13.1965 3.35117C13.1969 3.34766 13.1969 3.34414 13.1969 3.34062V1.7332C13.1969 1.29102 13.5566 0.931641 13.9984 0.931641C14.4406 0.931641 14.8004 1.29102 14.8004 1.7332V2.95742C14.8004 2.96094 14.8004 2.96445 14.8008 2.96797C14.8004 2.97578 14.8004 2.98359 14.8004 2.9918V8.74648C14.8004 8.89766 14.9227 9.01992 15.0738 9.01992C15.225 9.01992 15.3473 8.89766 15.3473 8.74648V2.9918C15.3473 2.54961 15.707 2.18984 16.1492 2.18984C16.5914 2.18984 16.9508 2.54961 16.9508 2.9918V5.58516C16.9508 5.58984 16.9512 5.59453 16.9512 5.59883C16.9512 5.60898 16.9508 5.61914 16.9508 5.62969V8.74648C16.9508 8.89766 17.0734 9.01992 17.2242 9.01992C17.3758 9.01992 17.4977 8.89766 17.4977 8.74648V5.62969C17.4977 5.1875 17.8574 4.82773 18.2996 4.82773C18.7418 4.82773 19.1016 5.1875 19.1016 5.62969V13.1914C19.1016 14.3164 18.5336 15.3574 17.5824 15.9762C17.5051 16.027 17.4582 16.1129 17.4582 16.2055V18.3098C17.4582 18.7285 17.1172 19.0695 16.698 19.0695H11.8262C11.407 19.0695 11.066 18.7285 11.066 18.3098V16.2055C11.066 16.1129 11.0195 16.0266 10.9418 15.9762C9.99102 15.3574 9.42305 14.3141 9.42305 13.1855V8.37891C9.42305 7.82422 9.87422 7.37305 10.4289 7.37305C10.9832 7.37305 11.4344 7.82422 11.4344 8.37891V11.1836C11.4344 11.3348 11.557 11.457 11.7078 11.457C12.8578 11.457 13.7934 12.3926 13.7934 13.5426V14.3137C13.7934 14.4648 13.916 14.5871 14.0668 14.5871C14.218 14.5871 14.3402 14.4648 14.3402 14.3137V13.5426C14.3402 12.1836 13.3047 11.0617 11.9812 10.9246V8.37891C11.9812 7.7418 11.5961 7.19336 11.0461 6.9543V5.63242H11.243V5.63203Z" fill="#B5AEFF"/>
</g>
</g>
</g>
</g>
</g>
</g>
<rect x="-52" y="-692" width="438" height="1212" rx="44" stroke="#949494" stroke-width="8"/>
</g>
</g>
<defs>
<clipPath id="clip0_140_6">
<rect x="-48" y="-688" width="430" height="1204" rx="40" fill="white"/>
</clipPath>
<clipPath id="clip1_140_6">
<rect width="20" height="20" fill="white"/>
</clipPath>
</defs>
</svg>
