<svg width="20" height="20" viewBox="0 0 20 20" fill="none" xmlns="http://www.w3.org/2000/svg">
<g clip-path="url(#clip0_768_8858)">
<path d="M11.6008 10.2934V3.21523C11.6008 2.3625 11.262 1.54469 10.6591 0.94172C10.0561 0.338747 9.23828 0 8.38555 0C7.53282 0 6.71501 0.338747 6.11204 0.94172C5.50906 1.54469 5.17032 2.3625 5.17032 3.21523V10.2934C4.4961 10.7944 3.94862 11.4464 3.57174 12.1971C3.19486 12.9478 2.99905 13.7764 3 14.6164C3 17.5629 5.40078 19.9793 8.34688 20H8.38594C9.51803 19.9999 10.6213 19.6431 11.5391 18.9803C12.4568 18.3175 13.1424 17.3823 13.4984 16.3076C13.8543 15.2329 13.8626 14.0734 13.5221 12.9938C13.1815 11.9141 12.5094 10.9693 11.6012 10.2934H11.6008ZM8.38555 18.5156H8.35742C7.69185 18.5104 7.03866 18.3351 6.45992 18.0064C5.88118 17.6777 5.3961 17.2064 5.05079 16.6374C4.70548 16.0684 4.5114 15.4205 4.48699 14.7554C4.46258 14.0902 4.60865 13.4299 4.91133 12.8371C5.18587 12.3051 5.57778 11.8426 6.05743 11.4844L6.65469 11.0395V3.21523C6.65469 2.75618 6.83705 2.31593 7.16165 1.99133C7.48625 1.66673 7.9265 1.48438 8.38555 1.48438C8.8446 1.48438 9.28485 1.66673 9.60945 1.99133C9.93405 2.31593 10.1164 2.75618 10.1164 3.21523V11.0387L10.7137 11.4844C11.1933 11.8427 11.5851 12.3054 11.8594 12.8375C12.1423 13.3872 12.2889 13.997 12.2867 14.6152C12.2852 15.6493 11.8736 16.6406 11.1423 17.3718C10.411 18.1029 9.41966 18.5143 8.38555 18.5156Z" fill="#B5AEFF"/>
<path d="M9.08907 11.8988V5.86523C9.08907 5.67875 9.01499 5.49991 8.88313 5.36805C8.75127 5.23619 8.57243 5.16211 8.38594 5.16211C8.19946 5.16211 8.02062 5.23619 7.88876 5.36805C7.7569 5.49991 7.68282 5.67875 7.68282 5.86523V11.8988C7.02183 12.0699 6.4459 12.4762 6.06295 13.0415C5.68001 13.6067 5.51632 14.2923 5.60256 14.9696C5.6888 15.6469 6.01905 16.2695 6.53143 16.7208C7.04381 17.1721 7.70316 17.421 8.38594 17.421C9.06872 17.421 9.72808 17.1721 10.2405 16.7208C10.7528 16.2695 11.0831 15.6469 11.1693 14.9696C11.2556 14.2923 11.0919 13.6067 10.7089 13.0415C10.326 12.4762 9.75006 12.0699 9.08907 11.8988Z" fill="#B5AEFF"/>
<path d="M13.1777 3.90625H16.0027C16.1892 3.90625 16.3681 3.83217 16.4999 3.70031C16.6318 3.56845 16.7059 3.38961 16.7059 3.20312C16.7059 3.01664 16.6318 2.8378 16.4999 2.70594C16.3681 2.57408 16.1892 2.5 16.0027 2.5H13.1777C12.9913 2.5 12.8124 2.57408 12.6806 2.70594C12.5487 2.8378 12.4746 3.01664 12.4746 3.20312C12.4746 3.38961 12.5487 3.56845 12.6806 3.70031C12.8124 3.83217 12.9913 3.90625 13.1777 3.90625Z" fill="#B5AEFF"/>
<path d="M16.0027 8.52539H13.1777C12.9913 8.52539 12.8124 8.59947 12.6806 8.73133C12.5487 8.86319 12.4746 9.04204 12.4746 9.22852C12.4746 9.415 12.5487 9.59384 12.6806 9.7257C12.8124 9.85756 12.9913 9.93164 13.1777 9.93164H16.0027C16.1892 9.93164 16.3681 9.85756 16.4999 9.7257C16.6318 9.59384 16.7059 9.415 16.7059 9.22852C16.7059 9.04204 16.6318 8.86319 16.4999 8.73133C16.3681 8.59947 16.1892 8.52539 16.0027 8.52539Z" fill="#B5AEFF"/>
<path d="M13.1777 6.91992H14.5906C14.7771 6.91992 14.9559 6.84584 15.0878 6.71398C15.2197 6.58212 15.2938 6.40328 15.2938 6.2168C15.2938 6.03032 15.2197 5.85147 15.0878 5.71961C14.9559 5.58775 14.7771 5.51367 14.5906 5.51367H13.1777C13.0854 5.51367 12.994 5.53186 12.9087 5.56719C12.8234 5.60253 12.7458 5.65432 12.6806 5.71961C12.6153 5.7849 12.5635 5.86242 12.5281 5.94772C12.4928 6.03303 12.4746 6.12446 12.4746 6.2168C12.4746 6.30913 12.4928 6.40056 12.5281 6.48587C12.5635 6.57118 12.6153 6.64869 12.6806 6.71398C12.7458 6.77927 12.8234 6.83106 12.9087 6.8664C12.994 6.90174 13.0854 6.91992 13.1777 6.91992Z" fill="#B5AEFF"/>
</g>
<defs>
<clipPath id="clip0_768_8858">
<rect width="20" height="20" fill="white"/>
</clipPath>
</defs>
</svg>
