<svg width="20" height="20" viewBox="0 0 20 20" fill="none" xmlns="http://www.w3.org/2000/svg">
<g clip-path="url(#clip0_768_8870)">
<path d="M12.1875 2.50083H10.2563C10.1914 2.31873 10.072 2.16103 9.91431 2.04919C9.75662 1.93736 9.56831 1.87683 9.375 1.87583H8.64375C8.51491 1.50959 8.27556 1.19237 7.95874 0.967969C7.64191 0.743567 7.26324 0.623047 6.875 0.623047C6.48676 0.623047 6.10809 0.743567 5.79126 0.967969C5.47444 1.19237 5.23509 1.50959 5.10625 1.87583H4.375C4.18169 1.87683 3.99338 1.93736 3.83569 2.04919C3.67801 2.16103 3.55861 2.31873 3.49375 2.50083H1.5625C1.31409 2.50158 1.07606 2.60059 0.900407 2.77624C0.724752 2.9519 0.625742 3.18992 0.625 3.43833V18.4383C0.625742 18.6867 0.724752 18.9248 0.900407 19.1004C1.07606 19.2761 1.31409 19.3751 1.5625 19.3758H12.1875C12.4359 19.3751 12.6739 19.2761 12.8496 19.1004C13.0252 18.9248 13.1243 18.6867 13.125 18.4383V3.43833C13.1243 3.18992 13.0252 2.9519 12.8496 2.77624C12.6739 2.60059 12.4359 2.50158 12.1875 2.50083ZM4.0625 2.81333C4.0625 2.73045 4.09542 2.65097 4.15403 2.59236C4.21263 2.53376 4.29212 2.50083 4.375 2.50083H5.34375C5.41598 2.50157 5.48618 2.47695 5.54213 2.43128C5.59809 2.3856 5.63626 2.32175 5.65 2.25083C5.70738 1.96826 5.86068 1.71422 6.08394 1.53174C6.30719 1.34926 6.58666 1.24958 6.875 1.24958C7.16334 1.24958 7.44281 1.34926 7.66606 1.53174C7.88932 1.71422 8.04262 1.96826 8.1 2.25083C8.11374 2.32175 8.15191 2.3856 8.20787 2.43128C8.26382 2.47695 8.33402 2.50157 8.40625 2.50083H9.375C9.45788 2.50083 9.53737 2.53376 9.59597 2.59236C9.65458 2.65097 9.6875 2.73045 9.6875 2.81333V4.06333H4.0625V2.81333ZM10.625 12.1883C10.5375 12.1879 10.4511 12.169 10.3714 12.133C10.2917 12.0969 10.2205 12.0444 10.1625 11.979C10.1333 11.9466 10.0976 11.9207 10.0578 11.9029C10.018 11.8852 9.97486 11.8759 9.93125 11.8758H8.64062C8.57603 11.8761 8.51309 11.8964 8.46049 11.9339C8.40788 11.9714 8.36819 12.0242 8.34687 12.0852C8.32812 12.1352 8.30625 12.1852 8.28438 12.2352C8.25645 12.2935 8.24718 12.359 8.2578 12.4227C8.26842 12.4865 8.29844 12.5454 8.34375 12.5915L8.98125 13.229C9.01211 13.2601 9.04926 13.2843 9.09022 13.2999C9.13118 13.3155 9.17499 13.3222 9.21875 13.3196C9.30606 13.3136 9.39363 13.3264 9.47557 13.3571C9.55751 13.3879 9.63191 13.4358 9.69375 13.4977C9.75182 13.5558 9.79788 13.6247 9.82931 13.7006C9.86073 13.7765 9.87691 13.8578 9.87691 13.9399C9.87691 14.022 9.86073 14.1033 9.82931 14.1792C9.79788 14.2551 9.75182 14.324 9.69375 14.3821C9.63568 14.4402 9.56674 14.4862 9.49087 14.5176C9.415 14.5491 9.33368 14.5652 9.25156 14.5652C9.16944 14.5652 9.08812 14.5491 9.01225 14.5176C8.93638 14.4862 8.86744 14.4402 8.80937 14.3821C8.74769 14.3201 8.69991 14.2456 8.6692 14.1638C8.63848 14.0819 8.62555 13.9944 8.63125 13.9071C8.63317 13.8634 8.62612 13.8198 8.61053 13.7789C8.59495 13.7381 8.57115 13.7009 8.54063 13.6696L7.90313 13.0321C7.85744 12.9861 7.79848 12.9557 7.73456 12.945C7.67064 12.9344 7.60499 12.944 7.54688 12.9727C7.49687 12.9946 7.44688 13.0165 7.39687 13.0352C7.33589 13.0565 7.28302 13.0962 7.24552 13.1488C7.20803 13.2014 7.18776 13.2644 7.1875 13.329V14.6196C7.1876 14.6632 7.19683 14.7063 7.21459 14.7461C7.23235 14.7859 7.25825 14.8216 7.29063 14.8508C7.38525 14.9351 7.45203 15.0461 7.48212 15.1692C7.51221 15.2923 7.50418 15.4216 7.45911 15.54C7.41403 15.6584 7.33403 15.7603 7.22972 15.8322C7.1254 15.9041 7.0017 15.9426 6.875 15.9426C6.7483 15.9426 6.6246 15.9041 6.52028 15.8322C6.41597 15.7603 6.33597 15.6584 6.29089 15.54C6.24582 15.4216 6.23779 15.2923 6.26788 15.1692C6.29797 15.0461 6.36475 14.9351 6.45937 14.8508C6.49175 14.8216 6.51765 14.7859 6.53541 14.7461C6.55317 14.7063 6.5624 14.6632 6.5625 14.6196V13.329C6.56224 13.2644 6.54197 13.2014 6.50448 13.1488C6.46698 13.0962 6.41411 13.0565 6.35313 13.0352C6.30312 13.0165 6.25313 12.9946 6.20312 12.9727C6.16135 12.952 6.11535 12.9414 6.06875 12.9415C5.98573 12.9412 5.90598 12.9738 5.84687 13.0321L5.20937 13.6696C5.17885 13.7009 5.15505 13.7381 5.13947 13.7789C5.12388 13.8198 5.11683 13.8634 5.11875 13.9071C5.12445 13.9944 5.11151 14.0819 5.0808 14.1638C5.05009 14.2456 5.00231 14.3201 4.94063 14.3821C4.88256 14.4402 4.81362 14.4862 4.73775 14.5176C4.66188 14.5491 4.58056 14.5652 4.49844 14.5652C4.41632 14.5652 4.335 14.5491 4.25913 14.5176C4.18326 14.4862 4.11432 14.4402 4.05625 14.3821C3.99818 14.324 3.95212 14.2551 3.92069 14.1792C3.88927 14.1033 3.87309 14.022 3.87309 13.9399C3.87309 13.8578 3.88927 13.7765 3.92069 13.7006C3.95212 13.6247 3.99818 13.5558 4.05625 13.4977C4.11826 13.436 4.19269 13.3882 4.27458 13.3575C4.35648 13.3268 4.44397 13.3139 4.53125 13.3196C4.57501 13.3222 4.61882 13.3155 4.65978 13.2999C4.70074 13.2843 4.73789 13.2601 4.76875 13.229L5.40625 12.5915C5.45156 12.5454 5.48158 12.4865 5.4922 12.4227C5.50282 12.359 5.49355 12.2935 5.46562 12.2352C5.44375 12.1852 5.42188 12.1352 5.40313 12.0852C5.38181 12.0242 5.34212 11.9714 5.28951 11.9339C5.23691 11.8964 5.17397 11.8761 5.10938 11.8758H3.81875C3.77514 11.8759 3.73204 11.8852 3.69221 11.9029C3.65239 11.9207 3.61672 11.9466 3.5875 11.979C3.50325 12.0736 3.39222 12.1404 3.26915 12.1705C3.14608 12.2005 3.01677 12.1925 2.89836 12.1474C2.77995 12.1024 2.67804 12.0224 2.60614 11.9181C2.53423 11.8137 2.49572 11.69 2.49572 11.5633C2.49572 11.4366 2.53423 11.3129 2.60614 11.2086C2.67804 11.1043 2.77995 11.0243 2.89836 10.9792C3.01677 10.9342 3.14608 10.9261 3.26915 10.9562C3.39222 10.9863 3.50325 11.0531 3.5875 11.1477C3.61672 11.1801 3.65239 11.206 3.69221 11.2237C3.73204 11.2415 3.77514 11.2507 3.81875 11.2508H5.10938C5.17397 11.2506 5.23691 11.2303 5.28951 11.1928C5.34212 11.1553 5.38181 11.1024 5.40313 11.0415C5.42188 10.9915 5.44375 10.9415 5.46562 10.8915C5.49355 10.8332 5.50282 10.7677 5.4922 10.704C5.48158 10.6402 5.45156 10.5813 5.40625 10.5352L4.76875 9.89771C4.73745 9.86718 4.70023 9.84339 4.65938 9.8278C4.61854 9.81222 4.57493 9.80516 4.53125 9.80708C4.44397 9.81278 4.35648 9.79985 4.27458 9.76914C4.19269 9.73843 4.11826 9.69064 4.05625 9.62896C3.99818 9.57089 3.95212 9.50195 3.92069 9.42608C3.88927 9.35021 3.87309 9.26889 3.87309 9.18677C3.87309 9.10465 3.88927 9.02333 3.92069 8.94746C3.95212 8.87159 3.99818 8.80265 4.05625 8.74458C4.11432 8.68652 4.18326 8.64045 4.25913 8.60903C4.335 8.5776 4.41632 8.56142 4.49844 8.56142C4.58056 8.56142 4.66188 8.5776 4.73775 8.60903C4.81362 8.64045 4.88256 8.68652 4.94063 8.74458C5.00231 8.80659 5.05009 8.88102 5.0808 8.96292C5.11151 9.04481 5.12445 9.13231 5.11875 9.21958C5.11683 9.26326 5.12388 9.30687 5.13947 9.34772C5.15505 9.38857 5.17885 9.42579 5.20937 9.45708L5.84687 10.0946C5.89281 10.1401 5.95174 10.1703 6.01555 10.1809C6.07936 10.1916 6.1449 10.1822 6.20312 10.154C6.25313 10.1321 6.30312 10.1102 6.35313 10.0915C6.41411 10.0701 6.46698 10.0305 6.50448 9.97785C6.54197 9.92524 6.56224 9.86231 6.5625 9.79771V8.50708C6.5624 8.46348 6.55317 8.42037 6.53541 8.38055C6.51765 8.34072 6.49175 8.30505 6.45937 8.27583C6.36475 8.19158 6.29797 8.08056 6.26788 7.95749C6.23779 7.83441 6.24582 7.7051 6.29089 7.5867C6.33597 7.46829 6.41597 7.36638 6.52028 7.29447C6.6246 7.22256 6.7483 7.18406 6.875 7.18406C7.0017 7.18406 7.1254 7.22256 7.22972 7.29447C7.33403 7.36638 7.41403 7.46829 7.45911 7.5867C7.50418 7.7051 7.51221 7.83441 7.48212 7.95749C7.45203 8.08056 7.38525 8.19158 7.29063 8.27583C7.25825 8.30505 7.23235 8.34072 7.21459 8.38055C7.19683 8.42037 7.1876 8.46348 7.1875 8.50708V9.79771C7.18776 9.86231 7.20803 9.92524 7.24552 9.97785C7.28302 10.0305 7.33589 10.0701 7.39687 10.0915C7.44688 10.1102 7.49687 10.1321 7.54688 10.154C7.6051 10.1822 7.67064 10.1916 7.73445 10.1809C7.79826 10.1703 7.85719 10.1401 7.90313 10.0946L8.54063 9.45708C8.57115 9.42579 8.59495 9.38857 8.61053 9.34772C8.62612 9.30687 8.63317 9.26326 8.63125 9.21958C8.62555 9.13231 8.63848 9.04481 8.6692 8.96292C8.69991 8.88102 8.74769 8.80659 8.80937 8.74458C8.92665 8.62731 9.08571 8.56142 9.25156 8.56142C9.41741 8.56142 9.57648 8.62731 9.69375 8.74458C9.81103 8.86186 9.87691 9.02092 9.87691 9.18677C9.87691 9.35262 9.81103 9.51168 9.69375 9.62896C9.63191 9.69088 9.55751 9.73881 9.47557 9.76954C9.39363 9.80027 9.30606 9.81307 9.21875 9.80708C9.17507 9.80516 9.13146 9.81222 9.09062 9.8278C9.04977 9.84339 9.01255 9.86718 8.98125 9.89771L8.34375 10.5352C8.29844 10.5813 8.26842 10.6402 8.2578 10.704C8.24718 10.7677 8.25645 10.8332 8.28438 10.8915C8.30625 10.9415 8.32812 10.9915 8.34687 11.0415C8.36819 11.1024 8.40788 11.1553 8.46049 11.1928C8.51309 11.2303 8.57603 11.2506 8.64062 11.2508H9.93125C9.97486 11.2507 10.018 11.2415 10.0578 11.2237C10.0976 11.206 10.1333 11.1801 10.1625 11.1477C10.232 11.0697 10.3199 11.0103 10.4183 10.975C10.5167 10.9398 10.6223 10.9297 10.7255 10.9458C10.8288 10.9619 10.9263 11.0036 11.0093 11.0672C11.0923 11.1307 11.158 11.214 11.2004 11.3095C11.2428 11.405 11.2607 11.5096 11.2522 11.6138C11.2438 11.7179 11.2094 11.8183 11.1522 11.9057C11.0949 11.9931 11.0167 12.0648 10.9246 12.1142C10.8325 12.1636 10.7295 12.189 10.625 12.1883Z" fill="#B5AEFF"/>
<path d="M6.875 3.125C7.22018 3.125 7.5 2.84518 7.5 2.5C7.5 2.15482 7.22018 1.875 6.875 1.875C6.52982 1.875 6.25 2.15482 6.25 2.5C6.25 2.84518 6.52982 3.125 6.875 3.125Z" fill="#B5AEFF"/>
<path d="M6.5625 10.3125H7.1875V10.9375H6.5625V10.3125Z" fill="#B5AEFF"/>
<path d="M5.625 11.25H6.25V11.875H5.625V11.25Z" fill="#B5AEFF"/>
<path d="M6.5625 12.1875H7.1875V12.8125H6.5625V12.1875Z" fill="#B5AEFF"/>
<path d="M7.5 11.25H8.125V11.875H7.5V11.25Z" fill="#B5AEFF"/>
<path d="M18.4371 16.25C18.6569 16.2483 18.8692 16.1694 19.0367 16.027C19.2043 15.8847 19.3165 15.688 19.3538 15.4713C19.391 15.2546 19.3509 15.0317 19.2404 14.8416C19.13 14.6515 18.9562 14.5062 18.7496 14.4312V6.875C18.7487 6.59858 18.6562 6.33025 18.4865 6.11199C18.3169 5.89373 18.0797 5.73785 17.8121 5.66875V4.6875C17.8113 4.43909 17.7123 4.20106 17.5367 4.02541C17.361 3.84975 17.123 3.75074 16.8746 3.75V0.625H16.2496V3.75C16.0012 3.75074 15.7631 3.84975 15.5875 4.02541C15.4118 4.20106 15.3128 4.43909 15.3121 4.6875V5.66875C15.0444 5.73785 14.8072 5.89373 14.6376 6.11199C14.468 6.33025 14.3755 6.59858 14.3746 6.875V14.4312C14.1679 14.5062 13.9941 14.6515 13.8837 14.8416C13.7733 15.0317 13.7331 15.2546 13.7704 15.4713C13.8076 15.688 13.9198 15.8847 14.0874 16.027C14.2549 16.1694 14.4672 16.2483 14.6871 16.25H15.6246V17.5H15.3121C15.0637 17.5007 14.8256 17.5998 14.65 17.7754C14.4743 17.9511 14.3753 18.1891 14.3746 18.4375V19.0625C14.3746 19.1454 14.4075 19.2249 14.4661 19.2835C14.5247 19.3421 14.6042 19.375 14.6871 19.375H18.4371C18.5199 19.375 18.5994 19.3421 18.658 19.2835C18.7166 19.2249 18.7496 19.1454 18.7496 19.0625V18.4375C18.7488 18.1891 18.6498 17.9511 18.4742 17.7754C18.2985 17.5998 18.0605 17.5007 17.8121 17.5H17.4996V16.25H18.4371ZM14.9996 6.875C15.0001 6.70939 15.0661 6.55071 15.1832 6.4336C15.3003 6.3165 15.459 6.25049 15.6246 6.25H17.4996C17.6652 6.25049 17.8239 6.3165 17.941 6.4336C18.0581 6.55071 18.1241 6.70939 18.1246 6.875H16.5621V7.5H18.1246V8.125H16.5621V8.75H18.1246V9.375H16.5621V10H18.1246V11.25H14.9996V6.875ZM16.8746 17.5H16.2496V16.25H16.8746V17.5ZM14.6871 15.625C14.6042 15.625 14.5247 15.5921 14.4661 15.5335C14.4075 15.4749 14.3746 15.3954 14.3746 15.3125C14.3746 15.2296 14.4075 15.1501 14.4661 15.0915C14.5247 15.0329 14.6042 15 14.6871 15H18.4371C18.5199 15 18.5994 15.0329 18.658 15.0915C18.7166 15.1501 18.7496 15.2296 18.7496 15.3125C18.7496 15.3954 18.7166 15.4749 18.658 15.5335C18.5994 15.5921 18.5199 15.625 18.4371 15.625H14.6871Z" fill="#B5AEFF"/>
</g>
<defs>
<clipPath id="clip0_768_8870">
<rect width="20" height="20" fill="white"/>
</clipPath>
</defs>
</svg>
