<svg width="20" height="20" viewBox="0 0 20 20" fill="none" xmlns="http://www.w3.org/2000/svg">
<path d="M17.4927 16.0451C17.6128 16.101 17.7502 16.107 17.8747 16.0617C17.9992 16.0164 18.1006 15.9236 18.1567 15.8036C18.7946 14.4358 19.0782 12.9295 18.9815 11.4234C18.8848 9.91721 18.4109 8.45957 17.6034 7.18453C16.7958 5.9095 15.6806 4.85801 14.3604 4.1268C13.0401 3.3956 11.5571 3.00816 10.0479 3.00013C8.53866 2.9921 7.05165 3.36374 5.72366 4.08085C4.39566 4.79797 3.26934 5.83753 2.44829 7.10391C1.62725 8.37028 1.13786 9.8228 1.02514 11.3278C0.912419 12.8329 1.17999 14.3421 1.80325 15.7166C1.83037 15.7764 1.869 15.8303 1.91695 15.8752C1.96489 15.9201 2.02121 15.9551 2.08268 15.9782C2.14415 16.0013 2.20958 16.0121 2.27522 16.01C2.34086 16.0078 2.40543 15.9927 2.46525 15.9656C2.52507 15.9385 2.57896 15.8999 2.62384 15.8519C2.66873 15.804 2.70373 15.7477 2.72685 15.6862C2.74997 15.6247 2.76076 15.5593 2.7586 15.4936C2.75644 15.428 2.74137 15.3634 2.71425 15.3036C1.97838 13.6807 1.80542 11.8585 2.2228 10.1262C2.64018 8.39377 3.62401 6.85033 5.01825 5.74061L5.22475 6.00711C5.28275 6.08161 5.33925 6.15361 5.39225 6.22311C5.60175 6.49561 5.77125 6.73211 5.88475 6.94711C5.99875 7.16461 6.02825 7.30961 6.01875 7.40861C6.01125 7.48661 5.97475 7.59861 5.79375 7.74761L5.42025 8.05511C5.12525 8.29761 4.94025 8.60511 4.88875 8.94261C4.83825 9.27761 4.92675 9.60061 5.10475 9.86161C5.46175 10.3851 6.16125 10.6501 6.90825 10.4516C6.97475 10.4336 7.02325 10.4231 7.05775 10.4166C7.07775 10.4496 7.10275 10.4931 7.13875 10.5566L7.42575 11.1931L5.80375 11.7236C5.67893 11.7645 5.56337 11.8295 5.46368 11.915C5.36399 12.0005 5.28211 12.1048 5.22273 12.2219C5.16335 12.3391 5.12762 12.4667 5.11759 12.5977C5.10755 12.7286 5.12341 12.8603 5.16425 12.9851C5.20509 13.1099 5.27012 13.2255 5.35561 13.3252C5.44111 13.4249 5.54541 13.5067 5.66255 13.5661C5.77969 13.6255 5.90738 13.6612 6.03833 13.6713C6.16928 13.6813 6.30093 13.6655 6.42575 13.6246L7.29175 13.3411L8.04275 15.0626C8.11714 15.2332 8.23765 15.3796 8.39073 15.4855C8.54381 15.5913 8.72338 15.6523 8.90925 15.6616C10.4477 15.7386 11.6372 15.1746 12.3862 14.3756C12.7542 13.9836 13.0187 13.5306 13.1572 13.0706C13.2912 12.6256 13.3307 12.0881 13.1192 11.5926C13.0324 11.3893 12.8807 11.2204 12.6877 11.1125C12.4947 11.0046 12.2714 10.9637 12.0527 10.9961L11.3127 11.1061L10.9497 9.99311C10.9107 9.86621 10.8468 9.74835 10.7618 9.64641C10.6767 9.54446 10.5722 9.46048 10.4543 9.39935C10.3365 9.33822 10.2076 9.30117 10.0753 9.29036C9.94299 9.27956 9.80984 9.29521 9.68362 9.3364C9.55741 9.3776 9.44066 9.44352 9.3402 9.53031C9.23973 9.6171 9.15755 9.72303 9.09845 9.84192C9.03935 9.96081 9.00452 10.0903 8.99599 10.2228C8.98745 10.3553 9.00539 10.4881 9.04875 10.6136L9.67375 12.5286C9.74276 12.7406 9.88062 12.9234 10.0654 13.048C10.2502 13.1727 10.4714 13.232 10.6937 13.2166C10.4347 13.4116 10.0767 13.5786 9.60475 13.6416L8.76125 11.7081C8.74523 11.6714 8.72703 11.6357 8.70675 11.6011L8.03175 10.1046L8.01075 10.0676C7.96175 9.98061 7.90575 9.88111 7.84625 9.79761C7.76587 9.67794 7.6587 9.57864 7.53325 9.50761C7.23225 9.34461 6.90125 9.41811 6.65075 9.48511C6.27275 9.58561 6.02575 9.43761 5.93075 9.29811C5.88716 9.23886 5.86817 9.16505 5.87775 9.09211C5.88675 9.03111 5.92425 8.93511 6.05525 8.82711L6.42925 8.52011C6.77075 8.23911 6.97675 7.89811 7.01425 7.50211C7.04925 7.12711 6.92525 6.77761 6.76925 6.48211C6.61325 6.18411 6.39675 5.88911 6.18525 5.61361C6.12387 5.53372 6.06221 5.45405 6.00025 5.37461L5.90375 5.25111C5.88201 5.22334 5.86034 5.1955 5.83875 5.16761C7.30552 4.27419 9.02087 3.87651 10.7311 4.03339C12.4414 4.19027 14.0558 4.89337 15.3355 6.03873C16.6153 7.18409 17.4925 8.71089 17.8374 10.3933C18.1823 12.0758 17.9766 13.8246 17.2507 15.3811C17.223 15.4406 17.2072 15.505 17.2044 15.5706C17.2015 15.6363 17.2116 15.7018 17.2341 15.7635C17.2566 15.8252 17.291 15.8819 17.3354 15.9303C17.3797 15.9787 17.4332 16.0174 17.4927 16.0451Z" fill="#B5AEFF"/>
<path d="M15.4717 9.90438C15.3574 10.1302 15.1993 10.3311 15.0067 10.4953C14.8141 10.6595 14.5907 10.7838 14.3497 10.8609C14.1086 10.938 13.8546 10.9664 13.6024 10.9445C13.3502 10.9226 13.1049 10.8507 12.8808 10.7331C12.6567 10.6155 12.4581 10.4546 12.2968 10.2595C12.1354 10.0645 12.0144 9.83939 11.9408 9.5972C11.8673 9.35501 11.8426 9.10061 11.8682 8.84879C11.8939 8.59698 11.9693 8.35277 12.0902 8.13038C12.3307 7.6916 12.7338 7.36476 13.2128 7.22016C13.6918 7.07555 14.2084 7.12474 14.6515 7.35714C15.0946 7.58954 15.4288 7.98658 15.5822 8.46285C15.7356 8.93913 15.6959 9.45707 15.4717 9.90438Z" fill="#B5AEFF"/>
</svg>
