<svg width="20" height="20" viewBox="0 0 20 20" fill="none" xmlns="http://www.w3.org/2000/svg">
<path d="M10.1028 2.78254V5.60676C10.1028 5.93035 9.84051 6.1927 9.51688 6.1927H9.47523V7.82672L13.6825 5.87344C13.7698 5.12852 13.5121 4.37988 12.9785 3.8466L10.4129 1.28086C9.5868 0.454883 8.48852 0 7.32047 0H7.32031C8.85461 0 10.1028 1.24824 10.1028 2.78254Z" fill="#B5AEFF"/>
<path d="M17.6407 8.70312H15.3574L10.6524 12.1536C9.59702 12.9273 8.21842 13.0382 7.05506 12.4488C5.88959 11.858 5.16565 10.6796 5.16565 9.37336V6.19273H5.12401C4.80042 6.19273 4.53807 5.93039 4.53807 5.6068V2.78258C4.53803 1.24824 5.78627 0 7.32061 0H5.12401C5.02831 0 4.93569 0.0234375 4.85327 0.0663672C3.13534 0.92957 2.14167 2.78984 2.38022 4.69852L2.93924 9.17051C3.1526 10.8771 2.85874 12.5925 2.08948 14.1312C1.22147 15.8672 1.22147 17.9401 2.08952 19.6761C2.18874 19.8746 2.39163 20 2.61358 20H14.5381C14.8617 20 15.124 19.7373 15.124 19.4137C15.124 18.3563 15.5358 17.3621 16.2839 16.6142L16.8353 16.0627C18.7836 14.1829 19.1249 10.9492 17.6407 8.70312Z" fill="#B5AEFF"/>
<path d="M8.57473 9.23934C8.40609 9.13172 8.30402 8.94551 8.30402 8.74543V6.19336H6.33789V9.37398C6.33789 10.2362 6.81582 11.0141 7.58516 11.4041C8.3543 11.7938 9.26426 11.7191 9.9598 11.2091L14.8195 7.64535C14.92 7.57164 15.0414 7.53191 15.166 7.53191H16.9816C16.8595 7.21637 16.6392 6.9434 16.3435 6.75473C15.8756 6.4559 15.2959 6.41715 14.7928 6.65094C14.7928 6.65094 9.13676 9.27691 9.13672 9.27691C8.95531 9.36109 8.74336 9.34695 8.57473 9.23934Z" fill="#B5AEFF"/>
<path d="M8.93129 2.78184C8.85008 0.647422 5.79039 0.649063 5.70996 2.78184V5.02012H8.93129V2.78184Z" fill="#B5AEFF"/>
</svg>
