<svg width="20" height="20" viewBox="0 0 20 20" fill="none" xmlns="http://www.w3.org/2000/svg">
<path d="M10.3125 13.4374C10.2446 13.4374 10.1785 13.4153 10.1242 13.3744C10.07 13.3335 10.0306 13.276 10.0119 13.2106L8.98284 9.60836L8.09203 11.3896C8.06345 11.4467 8.01807 11.4936 7.96201 11.5241C7.90595 11.5546 7.84189 11.5673 7.77845 11.5603C7.715 11.5533 7.65522 11.5271 7.60713 11.4851C7.55904 11.4431 7.52496 11.3874 7.50947 11.3255L6.51947 7.36677L5.60881 10.0987C5.58813 10.1609 5.54837 10.2151 5.49519 10.2534C5.442 10.2918 5.37808 10.3124 5.3125 10.3124H1.5625C1.47962 10.3124 1.40013 10.2795 1.34153 10.2209C1.28292 10.1623 1.25 10.0828 1.25 9.99989C1.25 9.91701 1.28292 9.83753 1.34153 9.77892C1.40013 9.72032 1.47962 9.68739 1.5625 9.68739H5.08728L6.26619 6.15102C6.28758 6.08688 6.32921 6.03142 6.38481 5.99296C6.44042 5.9545 6.507 5.93512 6.57456 5.93773C6.64212 5.94035 6.70701 5.96481 6.75947 6.00745C6.81194 6.05009 6.84916 6.10861 6.86553 6.1742L7.91078 10.3545L8.78297 8.61011C8.81066 8.55338 8.85509 8.50651 8.91026 8.47584C8.96544 8.44517 9.0287 8.43218 9.0915 8.43861C9.15421 8.4445 9.21368 8.46918 9.26213 8.50942C9.31059 8.54966 9.34578 8.60358 9.36309 8.66414L10.2747 11.8548L11.2573 7.43217C11.2714 7.36916 11.3046 7.31205 11.3524 7.26866C11.4002 7.22528 11.4603 7.19775 11.5243 7.18986C11.5885 7.18129 11.6537 7.19313 11.7107 7.22369C11.7677 7.25425 11.8137 7.30199 11.842 7.36014L13.0057 9.68739H18.4375C18.5204 9.68739 18.5999 9.72032 18.6585 9.77892C18.7171 9.83753 18.75 9.91701 18.75 9.99989C18.75 10.0828 18.7171 10.1623 18.6585 10.2209C18.5999 10.2795 18.5204 10.3124 18.4375 10.3124H12.8125C12.7545 10.3124 12.6976 10.2962 12.6482 10.2657C12.5988 10.2352 12.5589 10.1916 12.533 10.1397L11.6767 8.42717L10.6178 13.1928C10.6027 13.2607 10.5654 13.3216 10.5118 13.3659C10.4582 13.4102 10.3914 13.4354 10.3219 13.4374H10.3125Z" fill="#B5AEFF"/>
<path d="M4.63717 9.0623L5.67355 5.95317C5.73498 5.76692 5.85351 5.60473 6.01231 5.48964C6.17112 5.37455 6.36214 5.31239 6.55827 5.31199L6.61139 5.31383C6.81198 5.32416 7.00393 5.39868 7.15894 5.52641C7.31395 5.65413 7.4238 5.8283 7.4723 6.0232L8.10767 8.56411L8.22423 8.33064C8.3012 8.17482 8.42025 8.04366 8.5679 7.952C8.71555 7.86034 8.88591 7.81184 9.0597 7.81199C9.09161 7.81195 9.1235 7.81358 9.15523 7.81686C9.34208 7.83588 9.51896 7.91035 9.66313 8.0307C9.80731 8.15106 9.91218 8.31179 9.96426 8.49224L10.1992 9.31436L10.6475 7.29655C10.6898 7.10764 10.7894 6.9364 10.9327 6.80623C11.0759 6.67607 11.2559 6.59333 11.448 6.56933C11.4874 6.56419 11.5271 6.56163 11.5668 6.56167C11.7403 6.56161 11.9105 6.61011 12.0579 6.70169C12.2054 6.79326 12.3243 6.92427 12.4011 7.07989L13.3924 9.0623H16.3292C16.703 8.19462 16.7626 7.22381 16.4979 6.3169C16.2332 5.41 15.6606 4.62372 14.8788 4.09337C14.0969 3.56302 13.1547 3.32176 12.2141 3.41111C11.2736 3.50046 10.3937 3.91483 9.72567 4.58292L9.06283 5.24577L8.39998 4.58292C7.73203 3.91471 6.85204 3.50023 5.91146 3.41082C4.97089 3.3214 4.02856 3.56265 3.24666 4.09303C2.46477 4.62342 1.8922 5.40977 1.62751 6.31675C1.36282 7.22373 1.42256 8.19461 1.79645 9.0623H4.63717Z" fill="#B5AEFF"/>
<path d="M12.8124 10.9366C12.6383 10.9371 12.4675 10.8889 12.3193 10.7975C12.1712 10.706 12.0516 10.5749 11.974 10.419L11.9048 10.2801L11.2276 13.3273C11.1825 13.531 11.0708 13.7137 10.9101 13.8467C10.7494 13.9796 10.549 14.0551 10.3405 14.0613L10.3313 14.0616H10.3124C10.1088 14.061 9.91088 13.9944 9.74834 13.8718C9.58581 13.7492 9.46739 13.5772 9.41086 13.3816L8.82311 11.3241L8.65098 11.6683C8.57366 11.8242 8.45426 11.9554 8.30627 12.047C8.15828 12.1386 7.98762 12.1869 7.81358 12.1866C7.77882 12.1866 7.74408 12.1847 7.70952 12.1811C7.51942 12.1595 7.34041 12.0804 7.19633 11.9546C7.05225 11.8287 6.94993 11.6619 6.90298 11.4764L6.43364 9.59961L6.2017 10.2957C6.13963 10.4824 6.02029 10.6449 5.86064 10.7599C5.70099 10.875 5.50914 10.9368 5.31236 10.9366H3.26367L8.84142 16.5147C8.87043 16.5437 8.90487 16.5668 8.94278 16.5825C8.98069 16.5982 9.02132 16.6063 9.06236 16.6063C9.1034 16.6063 9.14403 16.5982 9.18194 16.5825C9.21985 16.5668 9.25429 16.5437 9.2833 16.5147L14.861 10.9366H12.8124Z" fill="#B5AEFF"/>
<path d="M16.25 11.5625C15.7555 11.5625 15.2722 11.7091 14.8611 11.9838C14.45 12.2585 14.1295 12.649 13.9403 13.1058C13.7511 13.5626 13.7016 14.0653 13.798 14.5502C13.8945 15.0352 14.1326 15.4806 14.4822 15.8303C14.8319 16.1799 15.2773 16.418 15.7623 16.5145C16.2472 16.6109 16.7499 16.5614 17.2067 16.3722C17.6635 16.183 18.054 15.8625 18.3287 15.4514C18.6034 15.0403 18.75 14.557 18.75 14.0625C18.7492 13.3997 18.4856 12.7643 18.0169 12.2956C17.5483 11.8269 16.9128 11.5633 16.25 11.5625ZM17.1875 14.375H15.3125C15.2296 14.375 15.1501 14.3421 15.0915 14.2835C15.0329 14.2249 15 14.1454 15 14.0625C15 13.9796 15.0329 13.9001 15.0915 13.8415C15.1501 13.7829 15.2296 13.75 15.3125 13.75H17.1875C17.2704 13.75 17.3499 13.7829 17.4085 13.8415C17.4671 13.9001 17.5 13.9796 17.5 14.0625C17.5 14.1454 17.4671 14.2249 17.4085 14.2835C17.3499 14.3421 17.2704 14.375 17.1875 14.375Z" fill="#B5AEFF"/>
</svg>
