<svg width="20" height="20" viewBox="0 0 20 20" fill="none" xmlns="http://www.w3.org/2000/svg">
<path d="M2.70078 1.60156L1.60156 2.65039V17.3555L2.62188 18.3984H17.3555L18.3984 17.3555V2.6457L17.3555 1.60156H2.70078ZM9.64844 2.81523V4.375H10.3516V2.81523C11.3398 2.82695 12.3242 2.88672 13.2656 2.99609L12.7852 4.91406L13.4648 5.08594L13.9648 3.08789C15.0273 3.24297 16.0156 3.46367 16.875 3.75L15 8.125C13.9805 7.87109 12.543 7.71875 11.0352 7.67188C11.1953 7.88672 11.2891 8.15234 11.2891 8.4375C11.2891 9.14453 10.707 9.72656 10 9.72656C9.29297 9.72656 8.71094 9.14453 8.71094 8.4375C8.71094 8.15234 8.80469 7.88672 8.96484 7.67188C7.45312 7.71875 6.01953 7.87109 5 8.125L3.125 3.75C3.98438 3.46367 4.97266 3.24297 6.03516 3.08789L6.53516 5.08594L7.21484 4.91406L6.73438 2.99609C7.67578 2.88672 8.66016 2.82695 9.64844 2.81523ZM8.44922 3.61172L7.80078 3.88828L9.28906 7.36328C9.48828 7.23438 9.71875 7.15625 9.96875 7.14844L8.44922 3.61172ZM10 7.85156C9.67188 7.85156 9.41406 8.10938 9.41406 8.4375C9.41406 8.76562 9.67188 9.02344 10 9.02344C10.3281 9.02344 10.5859 8.76562 10.5859 8.4375C10.5859 8.10938 10.3281 7.85156 10 7.85156ZM5 14.0234H15V14.7266H5V14.0234ZM5 15.8984H15V16.6016H5V15.8984Z" fill="#B5AEFF"/>
</svg>
