<svg width="20" height="20" viewBox="0 0 20 20" fill="none" xmlns="http://www.w3.org/2000/svg">
<path d="M15.3125 18.4375H12.8125C12.6406 18.4375 12.5 18.2969 12.5 18.125V1.875C12.5 1.70312 12.6406 1.5625 12.8125 1.5625H15.3125C15.7156 1.5625 15.7156 2.1875 15.3125 2.1875H13.125V2.91562H14.0625C14.4656 2.91562 14.4656 3.54062 14.0625 3.54062H13.125V4.27187H14.0625C14.4656 4.27187 14.4656 4.89687 14.0625 4.89687H13.125V5.625H15.3125C15.7156 5.625 15.7156 6.25 15.3125 6.25H13.125V6.97813H14.0625C14.4656 6.97813 14.4656 7.60313 14.0625 7.60313H13.125V8.33437H14.0625C14.4656 8.33437 14.4656 8.95937 14.0625 8.95937H13.125V9.6875H15.3125C15.7156 9.6875 15.7156 10.3125 15.3125 10.3125H13.125V11.0406H14.0625C14.4656 11.0406 14.4656 11.6656 14.0625 11.6656H13.125V12.3969H14.0625C14.4656 12.3969 14.4656 13.0219 14.0625 13.0219H13.125V13.75H15.3125C15.7156 13.75 15.7156 14.375 15.3125 14.375H13.125V15.1031H14.0625C14.4656 15.1031 14.4656 15.7281 14.0625 15.7281H13.125V16.4594H14.0625C14.4656 16.4594 14.4656 17.0844 14.0625 17.0844H13.125V17.8125H15.3125C15.7156 17.8125 15.7156 18.4375 15.3125 18.4375Z" fill="#B5AEFF"/>
<path d="M6.14551 2.1875C6.99863 2.1875 7.70801 2.9 7.70801 3.75C7.70801 4.6 6.99863 5.3125 6.14551 5.3125C5.29238 5.3125 4.58301 4.6 4.58301 3.75C4.58301 2.9 5.29238 2.1875 6.14551 2.1875Z" fill="#B5AEFF"/>
<path d="M3.33301 8.75C3.33301 7.8875 4.03301 7.1875 4.89551 7.1875H7.39551C8.25801 7.1875 8.95801 7.8875 8.95801 8.75V12.3781C8.95801 12.7813 8.33301 12.7813 8.33301 12.3781V8.75C8.33301 8.34688 7.70801 8.34688 7.70801 8.75V17.1875C7.70801 17.9938 6.45801 17.9938 6.45801 17.1875V12.5C6.45801 12.0969 5.83301 12.0969 5.83301 12.5V17.1875C5.83301 17.9938 4.58301 17.9938 4.58301 17.1875V8.75C4.58301 8.34688 3.95801 8.34688 3.95801 8.75V12.3781C3.95801 12.7813 3.33301 12.7813 3.33301 12.3781V8.75Z" fill="#B5AEFF"/>
</svg>
