<svg width="20" height="20" viewBox="0 0 20 20" fill="none" xmlns="http://www.w3.org/2000/svg">
<g clip-path="url(#clip0_768_8806)">
<path d="M17.0714 2.93055C15.1829 1.04207 12.6719 0.00195312 10.0011 0.00195312C7.33026 0.00195312 4.81928 1.04211 2.9308 2.93055C0.312523 5.54887 -0.55986 9.26027 0.347523 12.6146C0.416664 12.87 0.648265 13.0474 0.91307 13.0474H19.0892C19.354 13.0474 19.5856 12.87 19.6547 12.6146C19.884 11.7671 20 10.8879 20 10.0009C20 7.33008 18.9599 4.81902 17.0714 2.93055ZM18.6287 11.8757H1.37358C0.177836 6.36129 4.40084 1.17371 10.0011 1.17371C15.597 1.17371 19.8253 6.35695 18.6287 11.8757Z" fill="#B5AEFF"/>
<path d="M10.0009 5.01289C10.3245 5.01289 10.5868 4.75059 10.5868 4.42703V3.32219C10.5868 2.99863 10.3245 2.73633 10.0009 2.73633C9.67734 2.73633 9.41504 2.99863 9.41504 3.32219V4.42703C9.415 4.75059 9.67734 5.01289 10.0009 5.01289Z" fill="#B5AEFF"/>
<path d="M7.16952 3.92394C7.00768 3.64371 6.64944 3.54762 6.3692 3.70949C6.08897 3.87125 5.99299 4.22957 6.15475 4.5098L6.70713 5.46664C6.81565 5.65461 7.01256 5.75969 7.21506 5.75969C7.66178 5.75969 7.94831 5.27293 7.7219 4.88078L7.16952 3.92394Z" fill="#B5AEFF"/>
<path d="M5.46657 6.70528L4.50977 6.15286C4.22953 5.99098 3.87125 6.08704 3.70946 6.36731C3.54766 6.64751 3.64367 7.00587 3.92391 7.16762C4.96414 7.76821 4.97024 7.79864 5.17309 7.79864C5.76996 7.79864 5.98469 7.00438 5.46657 6.70528Z" fill="#B5AEFF"/>
<path d="M4.42703 9.41406H3.32219C2.99863 9.41406 2.73633 9.67637 2.73633 9.99992C2.73633 10.3235 2.99863 10.5858 3.32219 10.5858H4.42703C4.75059 10.5858 5.01289 10.3235 5.01289 9.99992C5.01289 9.67637 4.75059 9.41406 4.42703 9.41406Z" fill="#B5AEFF"/>
<path d="M14.9893 9.99992C14.9893 10.3235 15.2516 10.5858 15.5751 10.5858H16.68C17.0035 10.5858 17.2658 10.3235 17.2658 9.99992C17.2658 9.67637 17.0035 9.41406 16.68 9.41406H15.5751C15.2516 9.41406 14.9893 9.67637 14.9893 9.99992Z" fill="#B5AEFF"/>
<path d="M15.492 6.15283L14.5352 6.70525C14.255 6.86701 14.159 7.22537 14.3208 7.50557C14.4826 7.78596 14.8411 7.88174 15.1211 7.72002L16.0779 7.1676C16.3581 7.00584 16.4541 6.64748 16.2923 6.36729C16.1306 6.08705 15.7723 5.991 15.492 6.15283Z" fill="#B5AEFF"/>
<path d="M13.6334 3.70946C13.3531 3.54763 12.9949 3.64372 12.8331 3.92392L12.2807 4.88075C12.1189 5.16099 12.215 5.51931 12.4952 5.68107C12.7756 5.84298 13.1338 5.74669 13.2955 5.46661L13.8479 4.50978C14.0097 4.22954 13.9137 3.87122 13.6334 3.70946Z" fill="#B5AEFF"/>
<path d="M11.4221 7.74971L9.58636 9.58545C9.21605 9.95573 9.48351 10.5856 10.0006 10.5856C10.1505 10.5856 10.3005 10.5284 10.4149 10.414L12.2506 8.57827C12.4794 8.34948 12.4794 7.9785 12.2506 7.74975C12.0219 7.52092 11.6509 7.52092 11.4221 7.74971Z" fill="#B5AEFF"/>
<path d="M13.599 14.6494C13.5985 14.647 13.5981 14.6447 13.5976 14.6423C13.5348 14.3342 13.2717 14.1066 12.9577 14.0889C12.6437 14.072 12.3567 14.2677 12.2595 14.5668C12.2544 14.5826 11.4029 17.5705 11.3983 17.5865L10.5116 14.5811C10.5096 14.5741 10.5074 14.5673 10.5051 14.5604C10.4049 14.2622 10.1158 14.0691 9.80192 14.0897C9.48099 14.1111 9.22103 14.3507 9.16657 14.6567L8.33364 19.2717C8.27614 19.5901 8.48771 19.8948 8.80614 19.9523C9.1247 20.0098 9.42927 19.7982 9.48673 19.4798L9.9606 16.8543L10.7428 19.5056C10.7449 19.5125 10.747 19.5194 10.7493 19.5263C10.9618 20.1588 11.859 20.1548 12.0653 19.5197C12.0675 19.5129 12.0695 19.5061 12.0715 19.4994L12.8267 16.8503L13.3303 19.4857C13.3911 19.8036 13.6979 20.012 14.0158 19.9512C14.3336 19.8905 14.542 19.5836 14.4812 19.2658L13.599 14.6494Z" fill="#B5AEFF"/>
<path d="M16.3691 14.0879C16.0455 14.0879 15.7832 14.3502 15.7832 14.6738V19.4128C15.7832 19.7363 16.0455 19.9986 16.3691 19.9986C16.6926 19.9986 16.9549 19.7363 16.9549 19.4128V14.6738C16.9549 14.3502 16.6926 14.0879 16.3691 14.0879Z" fill="#B5AEFF"/>
<path d="M6.41387 16.6813C6.58648 16.4181 6.68648 16.1037 6.68648 15.7662C6.68648 14.8417 5.93461 14.0898 5.01012 14.0898H3.63371C3.31031 14.0898 3.04785 14.3519 3.04785 14.6757V19.4146C3.04785 19.7382 3.31059 20.0005 3.63371 20.0005H3.63645C3.64895 20.0005 4.9066 19.995 5.2507 19.995C6.27715 19.995 7.11223 19.1599 7.11223 18.1335C7.11223 17.5468 6.83922 17.0227 6.41387 16.6813ZM5.01012 15.2616C5.28859 15.2616 5.51477 15.4877 5.51477 15.7662C5.51477 16.0443 5.28863 16.2705 5.01012 16.2705C4.90738 16.2705 4.71602 16.2713 4.50742 16.272H4.21957V15.2616H5.01012V15.2616ZM5.2507 18.8233C5.06168 18.8233 4.60156 18.8248 4.21957 18.8264V17.4445C4.30473 17.4441 4.39262 17.4438 4.47813 17.4438H5.2507C5.63113 17.4438 5.94047 17.7531 5.94047 18.1335C5.94051 18.5135 5.63113 18.8233 5.2507 18.8233Z" fill="#B5AEFF"/>
</g>
<defs>
<clipPath id="clip0_768_8806">
<rect width="20" height="20" fill="white"/>
</clipPath>
</defs>
</svg>
