<svg width="20" height="20" viewBox="0 0 20 20" fill="none" xmlns="http://www.w3.org/2000/svg">
<path d="M10.8337 9.1665C10.8337 8.86213 10.6615 8.60678 10.417 8.46131V7.08318C10.417 6.85287 10.2307 6.6665 10.0004 6.6665C9.77004 6.6665 9.58367 6.85287 9.58367 7.08318V8.46131C9.33922 8.60678 9.16699 8.86217 9.16699 9.1665C9.16699 9.62588 9.54094 9.99982 10.0003 9.99982C10.4597 9.99982 10.8337 9.62588 10.8337 9.1665Z" fill="#B5AEFF"/>
<path d="M17.0833 0C15.448 0 14.1666 1.46402 14.1666 3.33332C14.1666 4.67477 15.1784 7.05113 16.6666 7.43961V15.4166C16.6666 17.4845 14.9845 19.1666 12.9166 19.1666C10.9267 19.1666 9.3098 17.6043 9.18965 15.6441C10.4962 15.4779 11.6666 15.167 11.6666 14.5833V12.9801C13.1355 12.3353 14.1666 10.8708 14.1666 9.1666C14.1666 7.46238 13.1355 5.99789 11.6666 5.35312V2.91668C11.6666 1.72691 6.80742 1.66668 5.83332 1.66668C4.85922 1.66668 0 1.72688 0 2.91668V14.5834C0 15.7731 4.85922 15.8334 5.83332 15.8334C6.22793 15.8334 7.2609 15.8221 8.34926 15.7312C8.51211 18.1117 10.4955 20 12.9167 20C15.4439 20 17.5 17.9439 17.5 15.4167V7.43961C18.9882 7.05113 20 4.67477 20 3.33332C20 1.46402 18.7187 0 17.0833 0ZM1.28051 2.91668C2.12605 2.70996 3.85418 2.5 5.83332 2.5C7.8125 2.5 9.54063 2.70996 10.3861 2.91668C9.54063 3.12336 7.8125 3.33332 5.83332 3.33332C3.85418 3.33332 2.12605 3.12336 1.28051 2.91668ZM6.66668 9.16668C6.66668 7.32871 8.16203 5.83336 10 5.83336C11.838 5.83336 13.3333 7.32871 13.3333 9.16668C13.3333 11.0046 11.838 12.5 10 12.5C8.16203 12.5 6.66668 11.0046 6.66668 9.16668Z" fill="#B5AEFF"/>
</svg>
