<svg width="20" height="20" viewBox="0 0 20 20" fill="none" xmlns="http://www.w3.org/2000/svg">
<path d="M5.37597 5.53815C5.43991 5.56286 10.6828 4.08063 14.2561 5.53601C14.3283 5.56575 16.884 4.62201 17.6234 1.67218C17.6419 1.59242 17.6282 1.50861 17.5855 1.43878C17.5428 1.36895 17.4744 1.31868 17.395 1.29877C17.3156 1.27886 17.2315 1.29091 17.1609 1.33232C17.0903 1.37373 17.0387 1.4412 17.0174 1.52022C16.8577 2.24708 16.537 2.92887 16.079 3.51538C15.6209 4.10189 15.0371 4.57818 14.3706 4.90918C10.8614 3.5484 6.28112 4.7041 5.50705 4.91681C3.61267 4.10962 2.83462 1.53455 2.82684 1.5083C2.80321 1.42913 2.7492 1.36254 2.67661 1.32309C2.60402 1.28364 2.51876 1.27454 2.43948 1.29777C2.36019 1.321 2.29334 1.37469 2.25352 1.44708C2.21371 1.51947 2.20418 1.60468 2.22702 1.68408C2.26257 1.80524 3.12271 4.66565 5.37597 5.53815Z" fill="#B5AEFF"/>
<path d="M18.5154 4.11946C18.4354 4.09866 18.3505 4.11031 18.2791 4.15187C18.2077 4.19343 18.1556 4.26153 18.1341 4.34134C17.9641 4.93178 17.6519 5.4715 17.2248 5.91321C16.6322 6.49304 16.6578 7.32146 16.6779 8.07884C16.679 8.51553 16.635 8.95117 16.5466 9.37884C14.4145 9.30904 15.3877 8.6767 12.9654 8.6945C12.0293 8.67265 11.1072 8.92461 10.3123 9.41946C9.14426 10.2183 6.92338 10.334 5.78414 9.42875C5.13408 8.96484 4.3577 8.7108 3.55914 8.70071C3.53774 8.49412 3.52731 8.28653 3.52789 8.07884V7.26321C3.52991 6.99981 3.47831 6.73875 3.37623 6.49592C3.27416 6.25309 3.12374 6.03357 2.93414 5.85071C2.47393 5.41808 2.10703 4.89593 1.85599 4.31632C1.82734 4.23959 1.76965 4.17721 1.6954 4.14266C1.62114 4.10811 1.53627 4.10416 1.45912 4.13165C1.38197 4.15915 1.31874 4.21589 1.28307 4.28963C1.24741 4.36336 1.24218 4.44816 1.26852 4.52571C1.54446 5.20353 1.96708 5.81184 2.50602 6.30696C2.63388 6.43086 2.73505 6.57961 2.80331 6.74406C2.87156 6.90851 2.90545 7.08518 2.90289 7.26321C2.88397 7.8704 2.908 8.47816 2.97481 9.08196C3.1378 10.2358 3.57841 11.3328 4.2588 12.2788C4.93918 13.2248 5.83901 13.9916 6.88102 14.5132C6.97426 14.572 8.54011 15.3446 8.5508 18.4037C8.55208 18.4858 8.58557 18.564 8.64403 18.6216C8.7025 18.6792 8.78126 18.7114 8.86331 18.7114C8.94536 18.7114 9.02412 18.6791 9.08258 18.6216C9.14104 18.564 9.17452 18.4857 9.17579 18.4037C9.22368 17.2246 8.921 16.0578 8.30602 15.0507C9.50102 15.3581 10.7549 15.3533 11.9476 15.037C11.4891 15.7194 11.0648 16.7833 11.0648 18.4037C11.0648 18.4866 11.0977 18.5661 11.1563 18.6247C11.215 18.6833 11.2944 18.7162 11.3773 18.7162C11.4602 18.7162 11.5397 18.6833 11.5983 18.6247C11.6569 18.5661 11.6898 18.4866 11.6898 18.4037C11.7173 15.2516 13.2623 14.6174 13.4329 14.4573C14.5975 13.8471 15.5734 12.9306 16.2554 11.8065C16.9374 10.6825 17.2996 9.39357 17.3029 8.07881C17.302 7.51893 17.2194 6.76838 17.6811 6.34134C18.178 5.82264 18.5416 5.19099 18.7404 4.50071C18.7507 4.4609 18.7531 4.41945 18.7473 4.37873C18.7416 4.338 18.7279 4.29881 18.707 4.2634C18.6861 4.22798 18.6584 4.19704 18.6255 4.17234C18.5927 4.14764 18.5552 4.12967 18.5154 4.11946Z" fill="#B5AEFF"/>
</svg>
