<svg width="40" height="40" viewBox="0 0 40 40" fill="none" xmlns="http://www.w3.org/2000/svg">
<g filter="url(#filter0_i_768_8112)">
<rect width="40" height="40" rx="8" fill="#FFB7CE"/>
<g clip-path="url(#clip0_768_8112)">
<path d="M29.6732 26.5536C29.0303 25.9805 28.4675 25.3235 27.9999 24.6003C27.4894 23.602 27.1834 22.5117 27.0999 21.3936V18.1003C27.1043 16.344 26.4672 14.6466 25.3084 13.3269C24.1495 12.0072 22.5486 11.1562 20.8065 10.9336V10.0736C20.8065 9.83755 20.7128 9.61118 20.5459 9.44427C20.379 9.27736 20.1526 9.18359 19.9165 9.18359C19.6805 9.18359 19.4541 9.27736 19.2872 9.44427C19.1203 9.61118 19.0265 9.83755 19.0265 10.0736V10.9469C17.3 11.1855 15.7185 12.0418 14.5749 13.357C13.4313 14.6722 12.803 16.3574 12.8065 18.1003V21.3936C12.723 22.5117 12.4171 23.602 11.9065 24.6003C11.4471 25.3218 10.8933 25.9788 10.2599 26.5536C10.1888 26.6161 10.1318 26.693 10.0927 26.7792C10.0536 26.8654 10.0333 26.9589 10.0332 27.0536V27.9603C10.0332 28.1371 10.1034 28.3066 10.2285 28.4317C10.3535 28.5567 10.5231 28.6269 10.6999 28.6269H29.2332C29.41 28.6269 29.5796 28.5567 29.7046 28.4317C29.8296 28.3066 29.8999 28.1371 29.8999 27.9603V27.0536C29.8997 26.9589 29.8795 26.8654 29.8404 26.7792C29.8013 26.693 29.7443 26.6161 29.6732 26.5536ZM11.4199 27.2936C12.0401 26.6944 12.5863 26.0229 13.0465 25.2936C13.6896 24.0879 14.0648 22.7576 14.1465 21.3936V18.1003C14.1201 17.319 14.2512 16.5403 14.5319 15.8107C14.8126 15.0811 15.2373 14.4155 15.7807 13.8534C16.3241 13.2913 16.975 12.8444 17.6947 12.5391C18.4144 12.2338 19.1881 12.0765 19.9699 12.0765C20.7516 12.0765 21.5254 12.2338 22.2451 12.5391C22.9648 12.8444 23.6157 13.2913 24.159 13.8534C24.7024 14.4155 25.1271 15.0811 25.4078 15.8107C25.6886 16.5403 25.8196 17.319 25.7932 18.1003V21.3936C25.8749 22.7576 26.2501 24.0879 26.8932 25.2936C27.3535 26.0229 27.8996 26.6944 28.5199 27.2936H11.4199Z" fill="white"/>
<path d="M19.9996 30.854C20.4195 30.8443 20.8225 30.6864 21.1373 30.4083C21.4521 30.1301 21.6583 29.7496 21.7196 29.334H18.2129C18.2759 29.7609 18.4918 30.1503 18.8204 30.4299C19.1491 30.7095 19.5681 30.8602 19.9996 30.854Z" fill="white"/>
<circle cx="25" cy="15" r="5" fill="#E73939"/>
</g>
</g>
<defs>
<filter id="filter0_i_768_8112" x="0" y="0" width="40" height="40" filterUnits="userSpaceOnUse" color-interpolation-filters="sRGB">
<feFlood flood-opacity="0" result="BackgroundImageFix"/>
<feBlend mode="normal" in="SourceGraphic" in2="BackgroundImageFix" result="shape"/>
<feColorMatrix in="SourceAlpha" type="matrix" values="0 0 0 0 0 0 0 0 0 0 0 0 0 0 0 0 0 0 127 0" result="hardAlpha"/>
<feOffset/>
<feGaussianBlur stdDeviation="4"/>
<feComposite in2="hardAlpha" operator="arithmetic" k2="-1" k3="1"/>
<feColorMatrix type="matrix" values="0 0 0 0 0 0 0 0 0 0 0 0 0 0 0 0 0 0 0.2 0"/>
<feBlend mode="normal" in2="shape" result="effect1_innerShadow_768_8112"/>
</filter>
<clipPath id="clip0_768_8112">
<rect width="24" height="24" fill="white" transform="translate(8 8)"/>
</clipPath>
</defs>
</svg>
