<svg width="430" height="215" viewBox="0 0 430 215" fill="none" xmlns="http://www.w3.org/2000/svg">
<path opacity="0.33" d="M202.164 168.221C197.602 165.999 193.321 163.284 189.888 159.584C184.53 153.802 181.741 146.166 177.785 139.349C170.448 126.702 159.463 125.775 146.874 121.28C134.097 116.722 120.213 114.971 106.966 118.619C89.739 123.365 75.2982 136.477 57.6016 138.944C45.6558 140.611 32.7966 137.308 21.8325 142.338C6.16263 149.524 2.09201 169.51 0.016231 186.627C-1.30067 197.473 -1.86861 210.323 6.56455 217.272C12.432 222.106 20.7245 222.274 28.3255 222.212C91.8426 221.69 155.364 221.172 218.881 220.65C229.894 220.56 244.209 211.833 242.926 199.202C242.153 191.568 236.762 185.052 230.376 180.802C223.989 176.551 216.587 174.139 209.44 171.352C206.99 170.397 204.541 169.377 202.164 168.221Z" fill="url(#paint0_linear_768_6550)"/>
<path opacity="0.33" d="M437.426 213.38C439.134 209.033 437.751 203.914 432.522 198.65C423.333 189.399 413.744 179.88 400.607 174.322C391.234 170.357 379.304 168.777 369.175 171.56C356.417 175.073 340.404 187.599 337.423 201.451C334.051 217.108 351.578 221.375 363.481 222.324C380.622 223.693 403.136 228.001 420.04 224.413C429.234 222.464 435.433 218.451 437.426 213.376V213.38Z" fill="#A69EFF"/>
<g opacity="0.5">
<path d="M89.0615 1.15625C89.0615 1.15625 54.35 8.81336 39.87 51.7264C16.6748 120.473 43.0839 137.425 43.0839 137.425L89.0615 1.15625Z" fill="#FFABC2"/>
<path d="M89.0611 1.15625C89.0611 1.15625 112.037 28.2766 97.5568 71.1896C74.3616 139.937 43.0791 137.425 43.0791 137.425L89.0567 1.15625H89.0611Z" fill="url(#paint1_linear_768_6550)"/>
<path d="M42.8558 138.106C42.4783 137.979 42.2807 137.57 42.4036 137.197L88.3813 0.928114C88.5086 0.550528 88.9169 0.352941 89.2901 0.475876C89.6677 0.603201 89.8653 1.00716 89.7423 1.38475L43.7647 137.658C43.6374 138.036 43.2334 138.233 42.8558 138.11V138.106Z" fill="#F4FBFB"/>
<path d="M54.6962 103.012C54.6392 102.994 54.5821 102.963 54.5294 102.928C54.2001 102.709 54.1079 102.261 54.3274 101.932C55.1529 100.693 74.7039 71.5711 93.0914 69.0026C93.4822 68.9499 93.8466 69.2221 93.8993 69.6129C93.952 70.0037 93.6798 70.3681 93.289 70.4207C75.5381 72.9014 55.7236 102.428 55.5261 102.722C55.3417 102.998 54.9992 103.104 54.7006 103.003L54.6962 103.012Z" fill="#F4FBFB"/>
<path d="M68.487 62.1411C68.2104 62.0489 68.0085 61.7898 67.9997 61.4825C67.9909 61.2454 67.1084 37.4926 54.1036 33.1065C53.7261 32.9791 53.5285 32.5708 53.6514 32.1976C53.7787 31.82 54.1871 31.6225 54.5603 31.7454C68.509 36.4521 69.4003 60.42 69.431 61.4386C69.4442 61.8337 69.1324 62.163 68.7373 62.1762C68.6495 62.1762 68.566 62.1674 68.487 62.1411Z" fill="#F4FBFB"/>
</g>
<g opacity="0.5">
<path d="M126.908 81.8942C126.908 81.8942 96.8593 73.8288 68.2858 101.314C22.5189 145.342 36.1822 169.169 36.1822 169.169L126.904 81.8942H126.908Z" fill="#B5AEFF"/>
<path d="M126.907 81.8945C126.907 81.8945 133.805 112.233 105.235 139.718C59.4685 183.746 36.1855 169.17 36.1855 169.17L126.907 81.8945Z" fill="url(#paint2_linear_768_6550)"/>
<path d="M35.7343 169.603C35.4929 169.353 35.5016 168.958 35.7519 168.716L126.473 81.4414C126.724 81.1999 127.119 81.2087 127.36 81.4589C127.602 81.7092 127.593 82.1044 127.343 82.3458L36.6212 169.621C36.371 169.862 35.9758 169.854 35.7343 169.603Z" fill="#F4FBFB"/>
<path d="M59.0964 147.129C59.0613 147.089 59.0262 147.046 58.9998 146.997C58.833 146.694 58.9427 146.312 59.2457 146.141C60.3872 145.513 87.3275 130.787 102.646 136.214C102.971 136.328 103.147 136.688 103.028 137.018C102.91 137.342 102.554 137.514 102.225 137.4C87.4329 132.162 60.1282 147.094 59.8516 147.243C59.5969 147.384 59.2852 147.327 59.0964 147.129Z" fill="#F4FBFB"/>
<path d="M86.3084 120.952C86.1328 120.768 86.0801 120.487 86.1943 120.245C86.2865 120.057 95.1861 101.256 86.8572 92.5939C86.6157 92.3436 86.6245 91.9485 86.8748 91.707C87.1251 91.4655 87.5202 91.4743 87.7617 91.7246C96.6964 101.011 87.7134 119.986 87.3226 120.79C87.1733 121.102 86.7958 121.233 86.484 121.084C86.4138 121.053 86.3567 121.005 86.304 120.952H86.3084Z" fill="#F4FBFB"/>
</g>
<path d="M110.012 147.281C110.012 147.281 108.348 176.632 75.2303 194.124C22.1751 222.144 4.8457 202.826 4.8457 202.826L110.017 147.286L110.012 147.281Z" fill="#FFC5D8"/>
<path d="M110.012 147.282C110.012 147.282 84.8364 132.108 51.7142 149.6C-1.34094 177.62 4.84092 202.826 4.84092 202.826L110.012 147.286V147.282Z" fill="#FFC5D8"/>
<path d="M4.31458 203.099C4.46824 203.388 4.82827 203.498 5.11804 203.345L110.289 147.804C110.579 147.651 110.688 147.291 110.535 147.001C110.381 146.711 110.021 146.601 109.731 146.755L4.56044 202.295C4.27067 202.449 4.16091 202.809 4.31458 203.099Z" fill="#F4FBFB"/>
<path d="M31.4 188.795C31.422 188.839 31.4527 188.882 31.4879 188.922C31.7118 189.163 32.085 189.177 32.3264 188.953C33.2265 188.114 54.4152 168.308 54.0859 152.955C54.0771 152.63 53.8093 152.366 53.48 152.375C53.1507 152.384 52.8917 152.652 52.9005 152.981C53.221 167.804 31.7381 187.877 31.5186 188.079C31.3166 188.268 31.2727 188.562 31.3957 188.79L31.4 188.795Z" fill="#F4FBFB"/>
<path d="M62.9458 172.136C63.0599 172.351 63.2926 172.478 63.5473 172.448C63.7449 172.421 83.2476 170.006 88.5514 180.043C88.705 180.333 89.065 180.443 89.3548 180.289C89.6446 180.135 89.7544 179.775 89.6007 179.486C83.915 168.72 64.2278 171.157 63.3936 171.266C63.0687 171.31 62.8404 171.609 62.8843 171.934C62.8931 172.004 62.915 172.074 62.9458 172.136Z" fill="#F4FBFB"/>
<defs>
<linearGradient id="paint0_linear_768_6550" x1="243.3" y1="171.074" x2="-0.468853" y2="168.713" gradientUnits="userSpaceOnUse">
<stop stop-color="#FF8FC0"/>
<stop offset="1" stop-color="#FFABC2"/>
</linearGradient>
<linearGradient id="paint1_linear_768_6550" x1="65.969" y1="69.2693" x2="94.8144" y2="79.0049" gradientUnits="userSpaceOnUse">
<stop stop-color="#FF8FC0"/>
<stop offset="1" stop-color="#FFABC2"/>
</linearGradient>
<linearGradient id="paint2_linear_768_6550" x1="81.584" y1="125.497" x2="100.057" y2="144.7" gradientUnits="userSpaceOnUse">
<stop offset="0.04" stop-color="#9086FF"/>
<stop offset="1" stop-color="#9D68C2"/>
</linearGradient>
</defs>
</svg>
