<svg width="14" height="14" viewBox="0 0 14 14" fill="none" xmlns="http://www.w3.org/2000/svg">
<path opacity="0.5" d="M13.6663 5.66488H0.333008V11.6649C0.333008 12.1953 0.543722 12.704 0.918794 13.0791C1.29387 13.4542 1.80257 13.6649 2.33301 13.6649H11.6663C12.1968 13.6649 12.7055 13.4542 13.0806 13.0791C13.4556 12.704 13.6663 12.1953 13.6663 11.6649V5.66488ZM3.66634 4.33154C3.48953 4.33154 3.31996 4.2613 3.19494 4.13628C3.06991 4.01126 2.99967 3.84169 2.99967 3.66488V0.99821C2.99967 0.821399 3.06991 0.651829 3.19494 0.526805C3.31996 0.401781 3.48953 0.331543 3.66634 0.331543C3.84315 0.331543 4.01272 0.401781 4.13775 0.526805C4.26277 0.651829 4.33301 0.821399 4.33301 0.99821V3.66488C4.33301 3.84169 4.26277 4.01126 4.13775 4.13628C4.01272 4.2613 3.84315 4.33154 3.66634 4.33154ZM10.333 4.33154C10.1562 4.33154 9.98663 4.2613 9.8616 4.13628C9.73658 4.01126 9.66634 3.84169 9.66634 3.66488V0.99821C9.66634 0.821399 9.73658 0.651829 9.8616 0.526805C9.98663 0.401781 10.1562 0.331543 10.333 0.331543C10.5098 0.331543 10.6794 0.401781 10.8044 0.526805C10.9294 0.651829 10.9997 0.821399 10.9997 0.99821V3.66488C10.9997 3.84169 10.9294 4.01126 10.8044 4.13628C10.6794 4.2613 10.5098 4.33154 10.333 4.33154Z" fill="#9086FF"/>
</svg>
