<svg width="181" height="160" viewBox="0 0 181 160" fill="none" xmlns="http://www.w3.org/2000/svg">
<g filter="url(#filter0_i_768_9527)">
<g clip-path="url(#clip0_768_9527)">
<rect width="181" height="160" rx="24" fill="#29CC6A" fill-opacity="0.8"/>
<path d="M163.125 127.279C163.184 127.841 163.456 128.217 164.048 128.217C164.281 128.213 164.504 128.12 164.67 127.956C164.836 127.793 164.933 127.572 164.941 127.339C164.949 127.106 164.866 126.879 164.711 126.705C164.556 126.531 164.34 126.423 164.107 126.404C163.528 126.371 163.224 126.728 163.125 127.279ZM159.694 122.153C159.7 122.263 159.682 122.373 159.644 122.477C159.605 122.581 159.545 122.675 159.468 122.755C159.392 122.834 159.299 122.897 159.197 122.94C159.095 122.983 158.985 123.004 158.875 123.003C158.764 123.001 158.655 122.977 158.554 122.932C158.452 122.887 158.362 122.822 158.287 122.74C158.212 122.659 158.155 122.563 158.119 122.458C158.082 122.354 158.068 122.243 158.076 122.133C158.071 122.022 158.088 121.912 158.127 121.809C158.165 121.705 158.225 121.61 158.302 121.531C158.379 121.451 158.471 121.388 158.573 121.345C158.675 121.303 158.785 121.281 158.896 121.283C159.006 121.284 159.116 121.308 159.217 121.353C159.318 121.398 159.409 121.464 159.483 121.545C159.558 121.627 159.615 121.723 159.652 121.827C159.688 121.932 159.702 122.042 159.694 122.153ZM128.288 137.846C128.294 137.945 128.279 138.044 128.244 138.137C128.21 138.23 128.156 138.315 128.087 138.386C128.018 138.457 127.935 138.513 127.843 138.55C127.751 138.588 127.652 138.605 127.553 138.603C127.446 138.618 127.337 138.609 127.233 138.577C127.13 138.545 127.035 138.49 126.956 138.417C126.877 138.343 126.815 138.253 126.775 138.153C126.735 138.052 126.718 137.944 126.726 137.836C126.719 137.729 126.734 137.621 126.77 137.52C126.807 137.419 126.864 137.326 126.937 137.248C127.011 137.169 127.1 137.107 127.199 137.064C127.297 137.021 127.404 136.999 127.512 136.999C127.619 136.999 127.726 137.021 127.825 137.064C127.924 137.107 128.013 137.169 128.086 137.248C128.16 137.326 128.217 137.419 128.253 137.52C128.289 137.621 128.304 137.729 128.297 137.836L128.288 137.846ZM164.865 122.153C164.864 122.259 164.841 122.364 164.8 122.462C164.758 122.559 164.697 122.648 164.621 122.722C164.544 122.796 164.454 122.855 164.355 122.894C164.257 122.934 164.151 122.953 164.045 122.952C163.938 122.951 163.833 122.929 163.735 122.887C163.637 122.845 163.549 122.784 163.474 122.708C163.4 122.632 163.341 122.542 163.302 122.443C163.262 122.345 163.243 122.239 163.244 122.133C163.247 121.918 163.334 121.713 163.488 121.564C163.642 121.414 163.849 121.331 164.064 121.333C164.279 121.336 164.484 121.424 164.635 121.578C164.785 121.731 164.868 121.938 164.865 122.153ZM121.548 142.92C121.553 142.817 121.579 142.716 121.623 142.623C121.667 142.53 121.729 142.447 121.805 142.377C121.881 142.308 121.971 142.255 122.068 142.22C122.165 142.185 122.268 142.17 122.37 142.175C122.473 142.18 122.574 142.205 122.668 142.249C122.761 142.293 122.845 142.355 122.914 142.431C122.983 142.507 123.037 142.596 123.071 142.693C123.106 142.79 123.122 142.893 123.117 142.996C123.106 143.203 123.014 143.399 122.86 143.538C122.706 143.678 122.502 143.751 122.294 143.741C122.086 143.731 121.891 143.638 121.751 143.484C121.611 143.331 121.538 143.127 121.548 142.92ZM117.959 153.351C117.962 153.459 117.94 153.567 117.896 153.666C117.852 153.765 117.786 153.852 117.704 153.923C117.621 153.993 117.524 154.044 117.42 154.072C117.315 154.1 117.205 154.104 117.099 154.085C116.998 154.085 116.899 154.064 116.807 154.023C116.716 153.982 116.634 153.923 116.567 153.848C116.499 153.774 116.449 153.686 116.418 153.591C116.387 153.495 116.377 153.395 116.387 153.295C116.387 152.786 116.702 152.535 117.214 152.506C117.321 152.505 117.427 152.528 117.524 152.571C117.622 152.615 117.709 152.679 117.779 152.759C117.85 152.839 117.902 152.934 117.933 153.036C117.964 153.138 117.973 153.246 117.959 153.351ZM117.208 157.827C117.317 157.826 117.425 157.849 117.524 157.894C117.623 157.939 117.712 158.005 117.783 158.087C117.854 158.169 117.907 158.266 117.937 158.37C117.968 158.475 117.975 158.585 117.959 158.692C117.962 158.801 117.941 158.909 117.898 159.009C117.855 159.109 117.79 159.199 117.709 159.271C117.628 159.344 117.532 159.398 117.427 159.43C117.323 159.462 117.213 159.47 117.105 159.456C116.998 159.455 116.892 159.432 116.794 159.389C116.695 159.346 116.607 159.283 116.534 159.204C116.461 159.126 116.405 159.033 116.37 158.932C116.334 158.831 116.32 158.723 116.328 158.617C116.326 158.505 116.349 158.394 116.394 158.292C116.439 158.189 116.506 158.098 116.589 158.023C116.672 157.948 116.77 157.892 116.877 157.858C116.984 157.825 117.097 157.814 117.208 157.827ZM143.205 128.098C142.99 128.101 142.783 128.018 142.629 127.868C142.475 127.718 142.387 127.514 142.385 127.299C142.382 127.084 142.465 126.878 142.615 126.724C142.765 126.57 142.97 126.482 143.185 126.48C143.688 126.48 143.963 126.777 144.016 127.302C144.021 127.411 144.004 127.519 143.966 127.62C143.927 127.721 143.868 127.813 143.791 127.89C143.715 127.968 143.624 128.028 143.523 128.068C143.422 128.107 143.313 128.126 143.205 128.122L143.205 128.098ZM153.792 121.343C153.894 121.343 153.995 121.364 154.088 121.406C154.182 121.448 154.265 121.51 154.332 121.586C154.4 121.663 154.45 121.753 154.479 121.851C154.509 121.949 154.517 122.052 154.503 122.153C154.513 122.261 154.498 122.369 154.46 122.471C154.423 122.572 154.362 122.664 154.284 122.739C154.206 122.814 154.112 122.871 154.009 122.905C153.906 122.939 153.797 122.949 153.689 122.936C153.583 122.934 153.478 122.912 153.381 122.87C153.284 122.827 153.196 122.765 153.124 122.688C153.051 122.611 152.995 122.52 152.958 122.421C152.921 122.321 152.905 122.216 152.911 122.11C152.916 122.004 152.943 121.9 152.989 121.805C153.036 121.71 153.101 121.625 153.181 121.556C153.261 121.486 153.355 121.434 153.456 121.401C153.557 121.369 153.663 121.357 153.769 121.367L153.792 121.343ZM133.641 132.535C133.643 132.636 133.624 132.737 133.584 132.831C133.544 132.925 133.484 133.009 133.409 133.077C133.334 133.146 133.244 133.197 133.147 133.229C133.05 133.26 132.948 133.27 132.846 133.258C132.739 133.269 132.63 133.256 132.528 133.219C132.425 133.183 132.333 133.124 132.257 133.047C132.181 132.97 132.123 132.877 132.087 132.774C132.052 132.672 132.04 132.563 132.052 132.455C132.054 132.349 132.076 132.245 132.119 132.148C132.161 132.051 132.223 131.963 132.3 131.891C132.377 131.818 132.468 131.762 132.568 131.725C132.668 131.689 132.774 131.672 132.88 131.678C132.986 131.683 133.089 131.71 133.185 131.756C133.28 131.803 133.365 131.868 133.435 131.948C133.504 132.028 133.557 132.121 133.589 132.222C133.622 132.323 133.634 132.429 133.624 132.535L133.641 132.535ZM112.03 148.799C111.855 148.799 111.686 148.73 111.562 148.606C111.438 148.482 111.368 148.314 111.368 148.139C111.368 147.964 111.438 147.796 111.562 147.672C111.686 147.548 111.855 147.478 112.03 147.478C112.206 147.478 112.374 147.548 112.498 147.672C112.622 147.796 112.692 147.964 112.692 148.139C112.692 148.314 112.622 148.482 112.498 148.606C112.374 148.73 112.206 148.799 112.03 148.799ZM111.954 152.595C112.054 152.581 112.156 152.591 112.252 152.623C112.348 152.655 112.436 152.709 112.508 152.78C112.58 152.852 112.634 152.938 112.667 153.034C112.7 153.129 112.711 153.231 112.698 153.331C112.701 153.424 112.684 153.516 112.649 153.601C112.614 153.687 112.561 153.764 112.494 153.828C112.427 153.892 112.347 153.941 112.26 153.972C112.172 154.003 112.08 154.016 111.987 154.009C111.799 154.013 111.618 153.943 111.482 153.813C111.346 153.684 111.267 153.506 111.263 153.318C111.258 153.131 111.329 152.949 111.458 152.814C111.588 152.678 111.766 152.599 111.954 152.595ZM112.083 159.366C111.983 159.386 111.881 159.383 111.782 159.358C111.684 159.333 111.592 159.286 111.514 159.222C111.436 159.157 111.374 159.075 111.331 158.983C111.289 158.891 111.268 158.791 111.269 158.689C111.255 158.597 111.261 158.502 111.286 158.412C111.311 158.322 111.355 158.238 111.415 158.166C111.475 158.095 111.55 158.036 111.634 157.996C111.719 157.955 111.811 157.932 111.904 157.929C112.381 157.87 112.639 158.154 112.741 158.63C112.743 158.812 112.677 158.989 112.555 159.125C112.433 159.261 112.265 159.347 112.083 159.366ZM174.588 116.095C174.684 116.094 174.779 116.114 174.868 116.151C174.956 116.188 175.036 116.244 175.102 116.313C175.168 116.382 175.22 116.464 175.254 116.554C175.287 116.643 175.302 116.739 175.298 116.835C175.293 116.93 175.269 117.024 175.227 117.11C175.186 117.196 175.127 117.273 175.054 117.336C174.981 117.399 174.897 117.446 174.805 117.475C174.714 117.504 174.618 117.514 174.522 117.505C174.109 117.479 173.887 117.175 173.861 116.729C173.884 116.553 173.971 116.392 174.105 116.276C174.239 116.16 174.411 116.096 174.588 116.098L174.588 116.095ZM164.776 116.726C164.795 116.825 164.791 116.928 164.764 117.027C164.738 117.125 164.69 117.216 164.624 117.293C164.557 117.37 164.474 117.431 164.381 117.472C164.287 117.513 164.186 117.532 164.084 117.528C163.99 117.541 163.894 117.533 163.804 117.506C163.713 117.479 163.629 117.432 163.557 117.369C163.486 117.307 163.429 117.229 163.391 117.143C163.352 117.056 163.332 116.962 163.333 116.868C163.323 116.773 163.332 116.677 163.359 116.586C163.386 116.495 163.431 116.41 163.491 116.336C163.551 116.262 163.624 116.201 163.708 116.155C163.792 116.11 163.884 116.081 163.978 116.072C164.073 116.062 164.169 116.07 164.26 116.097C164.351 116.124 164.437 116.169 164.511 116.229C164.585 116.289 164.646 116.362 164.692 116.446C164.737 116.529 164.766 116.621 164.776 116.716L164.776 116.726ZM179.73 117.489C179.556 117.477 179.393 117.399 179.274 117.272C179.155 117.145 179.089 116.977 179.089 116.803C179.089 116.629 179.155 116.462 179.274 116.334C179.393 116.207 179.556 116.13 179.73 116.118C180.156 116.095 180.391 116.382 180.461 116.798C180.459 116.892 180.439 116.985 180.402 117.071C180.364 117.157 180.31 117.234 180.242 117.299C180.173 117.363 180.093 117.414 180.005 117.447C179.917 117.48 179.823 117.495 179.73 117.492L179.73 117.489ZM169.417 117.528C169.316 117.54 169.213 117.529 169.117 117.494C169.02 117.46 168.933 117.403 168.863 117.33C168.792 117.256 168.739 117.167 168.708 117.07C168.678 116.972 168.67 116.869 168.686 116.768C168.682 116.675 168.698 116.582 168.733 116.495C168.767 116.409 168.82 116.33 168.887 116.265C168.954 116.2 169.035 116.15 169.123 116.119C169.211 116.087 169.304 116.074 169.398 116.081C169.874 116.081 170.105 116.382 170.149 116.838C170.142 117.026 170.062 117.204 169.925 117.333C169.788 117.463 169.606 117.533 169.417 117.528ZM117.873 142.963C117.869 143.15 117.791 143.329 117.656 143.459C117.521 143.589 117.339 143.66 117.152 143.656C116.964 143.653 116.785 143.575 116.655 143.44C116.524 143.305 116.453 143.124 116.457 142.936C116.46 142.749 116.538 142.57 116.673 142.44C116.809 142.31 116.99 142.239 117.178 142.243C117.366 142.246 117.544 142.324 117.675 142.459C117.805 142.594 117.876 142.775 117.873 142.963ZM117.191 148.875C117.092 148.891 116.991 148.884 116.895 148.855C116.799 148.826 116.71 148.776 116.637 148.708C116.563 148.64 116.506 148.556 116.47 148.462C116.433 148.369 116.419 148.268 116.427 148.169C116.411 148.069 116.417 147.968 116.446 147.871C116.475 147.775 116.525 147.687 116.593 147.613C116.662 147.539 116.746 147.481 116.84 147.445C116.934 147.408 117.035 147.394 117.135 147.402C117.234 147.394 117.333 147.405 117.427 147.437C117.521 147.468 117.607 147.519 117.68 147.585C117.753 147.652 117.812 147.732 117.853 147.823C117.893 147.913 117.915 148.01 117.916 148.109C117.883 148.578 117.658 148.862 117.191 148.875ZM132.933 128.032C132.833 128.051 132.73 128.046 132.632 128.02C132.534 127.993 132.443 127.945 132.366 127.879C132.29 127.813 132.229 127.73 132.188 127.637C132.147 127.544 132.128 127.443 132.132 127.342C132.119 127.248 132.127 127.152 132.154 127.062C132.182 126.971 132.228 126.887 132.291 126.816C132.354 126.745 132.431 126.688 132.518 126.649C132.605 126.611 132.699 126.591 132.794 126.592C133.267 126.543 133.521 126.827 133.607 127.253C133.616 127.349 133.605 127.445 133.576 127.537C133.546 127.628 133.498 127.713 133.435 127.785C133.373 127.858 133.296 127.917 133.209 127.96C133.123 128.002 133.029 128.027 132.933 128.032ZM148.535 121.4C148.634 121.388 148.735 121.398 148.83 121.429C148.924 121.46 149.011 121.512 149.084 121.58C149.157 121.649 149.214 121.732 149.251 121.825C149.288 121.917 149.305 122.017 149.299 122.116C149.315 122.223 149.305 122.332 149.271 122.434C149.237 122.537 149.179 122.63 149.103 122.706C149.026 122.782 148.933 122.839 148.83 122.873C148.728 122.906 148.619 122.915 148.512 122.899C148.313 122.896 148.123 122.814 147.984 122.671C147.845 122.529 147.769 122.337 147.772 122.138C147.775 121.939 147.857 121.749 148 121.611C148.143 121.473 148.336 121.396 148.535 121.4ZM147.873 116.742C147.89 116.565 147.975 116.401 148.111 116.285C148.246 116.169 148.422 116.11 148.6 116.121C148.778 116.132 148.945 116.211 149.065 116.342C149.186 116.474 149.251 116.647 149.246 116.825C149.244 116.917 149.223 117.008 149.185 117.092C149.147 117.177 149.093 117.253 149.026 117.316C148.959 117.38 148.879 117.43 148.793 117.462C148.706 117.495 148.614 117.511 148.522 117.508C148.098 117.409 147.81 117.168 147.863 116.742L147.873 116.742ZM158.94 117.512C158.843 117.521 158.746 117.51 158.655 117.48C158.563 117.45 158.478 117.401 158.406 117.337C158.333 117.273 158.275 117.195 158.234 117.108C158.193 117.021 158.17 116.926 158.167 116.829C158.164 116.733 158.181 116.637 158.217 116.547C158.252 116.458 158.306 116.376 158.374 116.308C158.443 116.24 158.524 116.186 158.614 116.151C158.704 116.115 158.8 116.098 158.897 116.101C159.317 116.101 159.558 116.372 159.618 116.785C159.622 116.972 159.551 117.153 159.423 117.289C159.294 117.425 159.117 117.505 158.93 117.512L158.94 117.512ZM127.457 131.752C127.557 131.736 127.66 131.744 127.756 131.775C127.853 131.805 127.941 131.857 128.014 131.927C128.087 131.997 128.143 132.083 128.178 132.178C128.213 132.273 128.226 132.375 128.215 132.475C128.223 132.567 128.212 132.659 128.183 132.746C128.153 132.833 128.106 132.913 128.043 132.981C127.981 133.049 127.905 133.103 127.821 133.14C127.736 133.177 127.645 133.196 127.553 133.195C127.456 133.204 127.359 133.193 127.266 133.164C127.174 133.134 127.088 133.087 127.015 133.024C126.941 132.96 126.881 132.883 126.838 132.796C126.794 132.709 126.769 132.615 126.764 132.518C126.758 132.421 126.772 132.324 126.804 132.233C126.837 132.141 126.887 132.057 126.953 131.986C127.018 131.914 127.098 131.857 127.186 131.817C127.274 131.776 127.37 131.754 127.467 131.752L127.457 131.752ZM127.56 127.97C127.467 127.984 127.372 127.977 127.283 127.949C127.193 127.922 127.111 127.875 127.042 127.811C126.973 127.748 126.919 127.67 126.884 127.583C126.85 127.496 126.835 127.402 126.842 127.309C126.836 127.226 126.847 127.142 126.875 127.063C126.902 126.984 126.945 126.912 127.001 126.85C127.058 126.788 127.126 126.739 127.202 126.704C127.278 126.669 127.36 126.65 127.444 126.648C127.619 126.633 127.794 126.688 127.929 126.801C128.064 126.914 128.148 127.076 128.163 127.251C128.179 127.426 128.124 127.6 128.011 127.735C127.897 127.87 127.735 127.954 127.56 127.97ZM138.712 122.153C138.706 122.327 138.634 122.493 138.51 122.616C138.386 122.74 138.219 122.811 138.044 122.816C137.869 122.821 137.699 122.759 137.568 122.643C137.437 122.528 137.355 122.366 137.339 122.192C137.306 121.766 137.591 121.532 138.041 121.442C138.222 121.455 138.391 121.535 138.515 121.667C138.64 121.798 138.71 121.972 138.712 122.153ZM138.077 128.062C137.978 128.066 137.88 128.05 137.787 128.016C137.695 127.982 137.61 127.93 137.537 127.863C137.465 127.797 137.406 127.716 137.365 127.627C137.323 127.537 137.3 127.44 137.296 127.342C137.292 127.244 137.308 127.145 137.342 127.053C137.376 126.96 137.428 126.875 137.495 126.803C137.562 126.731 137.643 126.672 137.732 126.631C137.822 126.59 137.919 126.566 138.017 126.562C138.487 126.562 138.732 126.827 138.795 127.325C138.797 127.421 138.779 127.516 138.744 127.605C138.709 127.694 138.657 127.775 138.59 127.843C138.523 127.912 138.443 127.966 138.355 128.004C138.267 128.041 138.173 128.061 138.077 128.062ZM122.316 137.096C122.418 137.083 122.521 137.093 122.618 137.127C122.715 137.16 122.803 137.215 122.875 137.288C122.947 137.361 123 137.45 123.032 137.547C123.064 137.645 123.072 137.748 123.057 137.849C123.061 137.943 123.046 138.036 123.012 138.123C122.978 138.21 122.925 138.288 122.858 138.353C122.791 138.419 122.711 138.469 122.624 138.501C122.536 138.533 122.442 138.546 122.349 138.54C121.873 138.54 121.638 138.249 121.591 137.793C121.661 137.374 121.889 137.096 122.316 137.096ZM122.994 132.432C123.005 132.523 122.996 132.616 122.967 132.703C122.938 132.79 122.89 132.87 122.827 132.937C122.764 133.003 122.687 133.056 122.602 133.089C122.516 133.123 122.424 133.138 122.332 133.132C122.248 133.138 122.163 133.126 122.083 133.097C122.003 133.069 121.93 133.024 121.868 132.966C121.806 132.908 121.757 132.839 121.723 132.761C121.689 132.683 121.671 132.599 121.671 132.515C121.651 132.092 121.919 131.854 122.332 131.798C122.503 131.798 122.668 131.864 122.791 131.982C122.915 132.1 122.987 132.262 122.994 132.432ZM143.916 122.097C143.935 122.197 143.93 122.3 143.901 122.399C143.873 122.497 143.822 122.587 143.753 122.662C143.683 122.737 143.598 122.796 143.502 122.832C143.406 122.869 143.304 122.883 143.202 122.873C143.109 122.883 143.016 122.873 142.927 122.844C142.839 122.815 142.757 122.768 142.688 122.706C142.619 122.643 142.564 122.567 142.527 122.482C142.489 122.397 142.47 122.305 142.471 122.212C142.463 122.117 142.475 122.022 142.505 121.932C142.534 121.841 142.582 121.758 142.644 121.686C142.706 121.614 142.781 121.555 142.866 121.512C142.951 121.469 143.044 121.443 143.139 121.436C143.234 121.429 143.329 121.44 143.42 121.47C143.51 121.5 143.594 121.547 143.666 121.609C143.738 121.671 143.797 121.746 143.84 121.831C143.883 121.916 143.909 122.008 143.916 122.103L143.916 122.097ZM154.424 116.739C154.432 116.833 154.422 116.928 154.393 117.018C154.365 117.109 154.318 117.192 154.256 117.264C154.194 117.336 154.119 117.395 154.034 117.437C153.949 117.479 153.856 117.504 153.762 117.509C153.667 117.515 153.572 117.502 153.483 117.47C153.393 117.439 153.311 117.39 153.241 117.326C153.171 117.262 153.115 117.185 153.075 117.098C153.036 117.012 153.014 116.919 153.011 116.825C152.985 116.402 153.269 116.164 153.673 116.085C153.859 116.075 154.041 116.137 154.181 116.259C154.322 116.382 154.409 116.554 154.424 116.739ZM112.533 137.783C112.541 137.858 112.532 137.932 112.507 138.003C112.482 138.073 112.442 138.137 112.39 138.19C112.337 138.243 112.273 138.284 112.203 138.31C112.133 138.335 112.058 138.345 111.984 138.338C111.915 138.343 111.846 138.333 111.782 138.31C111.717 138.286 111.658 138.249 111.609 138.202C111.559 138.154 111.52 138.097 111.494 138.033C111.468 137.97 111.456 137.901 111.458 137.833C111.453 137.759 111.464 137.686 111.49 137.617C111.515 137.547 111.555 137.484 111.606 137.431C111.658 137.379 111.72 137.337 111.788 137.309C111.856 137.282 111.93 137.269 112.004 137.271C112.311 137.311 112.52 137.473 112.533 137.783ZM112.004 143.554C111.928 143.566 111.851 143.562 111.778 143.541C111.704 143.52 111.637 143.483 111.579 143.433C111.522 143.382 111.476 143.32 111.445 143.25C111.414 143.181 111.4 143.105 111.402 143.029C111.391 142.914 111.415 142.798 111.471 142.697C111.527 142.596 111.612 142.514 111.715 142.462C111.818 142.409 111.935 142.389 112.049 142.403C112.164 142.417 112.272 142.465 112.359 142.541C112.446 142.617 112.508 142.717 112.538 142.829C112.567 142.941 112.563 143.059 112.525 143.168C112.486 143.277 112.416 143.372 112.323 143.441C112.231 143.509 112.119 143.549 112.004 143.554ZM143.102 116.207C143.187 116.19 143.274 116.193 143.356 116.216C143.439 116.239 143.515 116.28 143.58 116.337C143.644 116.394 143.694 116.465 143.726 116.544C143.758 116.624 143.771 116.71 143.764 116.795C143.774 116.872 143.767 116.95 143.744 117.024C143.721 117.098 143.683 117.166 143.631 117.224C143.579 117.282 143.515 117.327 143.444 117.358C143.373 117.389 143.296 117.404 143.218 117.403C142.821 117.429 142.593 117.224 142.557 116.768C142.556 116.693 142.57 116.618 142.599 116.549C142.628 116.479 142.671 116.416 142.725 116.363C142.779 116.311 142.844 116.27 142.914 116.243C142.985 116.216 143.06 116.204 143.136 116.207L143.102 116.207ZM143.182 111.133C143.318 111.139 143.446 111.198 143.538 111.298C143.63 111.398 143.679 111.531 143.673 111.667C143.667 111.803 143.608 111.93 143.508 112.022C143.408 112.114 143.275 112.163 143.139 112.157C143.002 112.152 142.872 112.094 142.777 111.994C142.683 111.895 142.631 111.762 142.633 111.625C142.732 111.325 142.901 111.113 143.215 111.133L143.182 111.133ZM153.127 111.662C153.117 111.593 153.122 111.523 153.141 111.456C153.159 111.39 153.192 111.328 153.236 111.274C153.28 111.221 153.335 111.177 153.397 111.146C153.459 111.115 153.527 111.097 153.597 111.094C153.674 111.068 153.756 111.061 153.837 111.073C153.917 111.086 153.994 111.117 154.06 111.165C154.126 111.213 154.18 111.276 154.216 111.348C154.253 111.421 154.272 111.501 154.272 111.582C154.283 111.659 154.279 111.737 154.259 111.811C154.24 111.886 154.204 111.955 154.156 112.016C154.108 112.076 154.048 112.126 153.98 112.162C153.911 112.198 153.836 112.219 153.759 112.225C153.682 112.23 153.604 112.22 153.532 112.194C153.459 112.168 153.392 112.127 153.336 112.074C153.28 112.021 153.235 111.957 153.205 111.886C153.174 111.815 153.159 111.739 153.16 111.662L153.127 111.662ZM174.482 111.07C174.557 111.054 174.635 111.054 174.709 111.071C174.784 111.087 174.854 111.12 174.915 111.167C174.975 111.213 175.025 111.273 175.06 111.341C175.095 111.408 175.115 111.483 175.118 111.559C175.138 111.641 175.139 111.726 175.12 111.809C175.102 111.891 175.063 111.967 175.009 112.032C174.955 112.096 174.886 112.147 174.808 112.18C174.73 112.212 174.646 112.226 174.562 112.22C174.487 112.229 174.41 112.223 174.338 112.2C174.265 112.178 174.198 112.14 174.142 112.09C174.085 112.039 174.04 111.977 174.009 111.908C173.978 111.839 173.962 111.764 173.963 111.688C173.951 111.61 173.957 111.53 173.98 111.454C174.002 111.379 174.041 111.309 174.094 111.25C174.147 111.191 174.212 111.144 174.285 111.113C174.358 111.082 174.436 111.068 174.516 111.07L174.482 111.07ZM148.502 111.107C148.578 111.099 148.654 111.109 148.726 111.135C148.797 111.161 148.862 111.203 148.915 111.258C148.968 111.312 149.007 111.378 149.031 111.451C149.055 111.523 149.061 111.6 149.051 111.675C149.053 111.743 149.041 111.811 149.015 111.875C148.989 111.938 148.95 111.995 148.901 112.043C148.852 112.09 148.793 112.127 148.729 112.151C148.665 112.174 148.597 112.185 148.528 112.18C148.168 112.18 147.992 111.962 147.966 111.619C147.968 111.547 147.984 111.477 148.014 111.412C148.044 111.347 148.087 111.289 148.141 111.241C148.194 111.193 148.256 111.157 148.324 111.134C148.392 111.111 148.463 111.101 148.535 111.107L148.502 111.107ZM107.236 158.567C107.251 158.65 107.248 158.735 107.227 158.817C107.206 158.899 107.168 158.975 107.116 159.041C107.064 159.107 106.998 159.162 106.923 159.2C106.848 159.239 106.766 159.262 106.681 159.267C106.597 159.272 106.513 159.259 106.434 159.229C106.355 159.199 106.283 159.153 106.223 159.093C106.164 159.034 106.117 158.962 106.087 158.883C106.057 158.805 106.044 158.72 106.049 158.636C106.049 158.276 106.254 158.078 106.651 158.038C106.724 158.034 106.798 158.044 106.867 158.068C106.936 158.093 107 158.131 107.055 158.18C107.109 158.229 107.153 158.289 107.185 158.355C107.216 158.422 107.233 158.494 107.236 158.567ZM107.197 153.331C107.201 153.401 107.191 153.471 107.167 153.536C107.143 153.602 107.106 153.662 107.057 153.712C107.008 153.762 106.95 153.801 106.885 153.827C106.82 153.854 106.75 153.866 106.68 153.863C106.604 153.876 106.526 153.872 106.451 153.851C106.377 153.829 106.309 153.791 106.251 153.739C106.194 153.687 106.149 153.623 106.12 153.551C106.091 153.479 106.079 153.402 106.085 153.325C106.085 152.958 106.283 152.77 106.687 152.74C106.76 152.743 106.832 152.761 106.898 152.792C106.964 152.824 107.023 152.869 107.071 152.925C107.119 152.98 107.155 153.045 107.176 153.115C107.198 153.185 107.205 153.259 107.197 153.331ZM106.608 147.587C106.683 147.577 106.76 147.584 106.832 147.607C106.905 147.631 106.971 147.67 107.026 147.723C107.08 147.776 107.123 147.841 107.149 147.912C107.175 147.983 107.184 148.06 107.177 148.136C107.181 148.204 107.171 148.272 107.147 148.336C107.124 148.4 107.087 148.458 107.04 148.508C106.993 148.557 106.936 148.596 106.873 148.622C106.81 148.649 106.742 148.662 106.674 148.661C106.601 148.669 106.528 148.662 106.458 148.641C106.388 148.62 106.323 148.584 106.267 148.537C106.212 148.491 106.166 148.433 106.133 148.368C106.1 148.303 106.081 148.231 106.076 148.159C106.072 148.086 106.082 148.013 106.107 147.944C106.131 147.876 106.17 147.813 106.219 147.759C106.269 147.706 106.329 147.663 106.396 147.633C106.463 147.604 106.535 147.588 106.608 147.587ZM169.986 111.582C170.001 111.658 169.999 111.735 169.98 111.809C169.962 111.883 169.927 111.953 169.879 112.012C169.83 112.072 169.77 112.12 169.701 112.153C169.632 112.187 169.557 112.205 169.48 112.207C169.397 112.228 169.31 112.229 169.227 112.209C169.144 112.19 169.066 112.15 169.001 112.095C168.936 112.039 168.886 111.968 168.854 111.889C168.822 111.81 168.81 111.724 168.819 111.639C168.819 111.282 169.01 111.087 169.417 111.051C169.49 111.046 169.563 111.056 169.632 111.08C169.701 111.105 169.764 111.143 169.818 111.193C169.871 111.243 169.914 111.303 169.943 111.37C169.972 111.437 169.987 111.509 169.986 111.582ZM164.63 111.582C164.644 111.658 164.641 111.735 164.621 111.809C164.601 111.882 164.565 111.951 164.516 112.009C164.467 112.068 164.405 112.114 164.336 112.146C164.266 112.178 164.19 112.194 164.114 112.194C163.999 112.206 163.883 112.184 163.781 112.129C163.679 112.075 163.595 111.992 163.541 111.89C163.487 111.788 163.464 111.672 163.477 111.558C163.489 111.443 163.535 111.334 163.61 111.246C163.684 111.158 163.783 111.094 163.895 111.063C164.006 111.031 164.124 111.034 164.234 111.07C164.344 111.106 164.44 111.174 164.511 111.266C164.581 111.357 164.623 111.467 164.63 111.582ZM179.766 111.087C179.834 111.083 179.903 111.092 179.967 111.115C180.031 111.138 180.091 111.173 180.141 111.22C180.191 111.266 180.231 111.322 180.259 111.384C180.287 111.447 180.301 111.514 180.302 111.582C180.317 111.658 180.315 111.737 180.295 111.812C180.275 111.887 180.239 111.956 180.188 112.015C180.137 112.073 180.074 112.12 180.002 112.15C179.931 112.181 179.853 112.194 179.776 112.19C179.409 112.19 179.213 112.002 179.177 111.589C179.181 111.517 179.199 111.446 179.231 111.381C179.263 111.316 179.308 111.258 179.363 111.211C179.418 111.164 179.482 111.129 179.552 111.108C179.621 111.086 179.694 111.079 179.766 111.087ZM127.58 122.684C127.505 122.701 127.427 122.7 127.353 122.683C127.279 122.665 127.209 122.631 127.15 122.582C127.091 122.534 127.043 122.473 127.011 122.404C126.979 122.334 126.963 122.259 126.964 122.182C126.955 122.115 126.96 122.046 126.978 121.98C126.997 121.915 127.028 121.853 127.072 121.8C127.115 121.748 127.168 121.704 127.229 121.673C127.289 121.641 127.356 121.622 127.424 121.618C127.566 121.597 127.71 121.633 127.825 121.719C127.939 121.804 128.015 121.932 128.036 122.073C128.057 122.215 128.02 122.359 127.935 122.473C127.849 122.588 127.721 122.664 127.58 122.684ZM132.846 116.293C132.982 116.287 133.115 116.336 133.215 116.428C133.265 116.473 133.305 116.528 133.334 116.589C133.362 116.65 133.378 116.716 133.381 116.783C133.386 116.919 133.338 117.052 133.246 117.152C133.154 117.252 133.026 117.311 132.89 117.317C132.559 117.337 132.406 117.125 132.34 116.825C132.338 116.688 132.39 116.555 132.485 116.456C132.58 116.356 132.709 116.298 132.846 116.293ZM133.465 122.073C133.474 122.154 133.466 122.235 133.442 122.313C133.418 122.39 133.378 122.462 133.326 122.524C133.273 122.585 133.208 122.636 133.136 122.672C133.063 122.708 132.984 122.729 132.903 122.733C132.822 122.738 132.741 122.725 132.664 122.698C132.588 122.67 132.518 122.627 132.459 122.572C132.4 122.516 132.353 122.449 132.321 122.375C132.288 122.301 132.271 122.22 132.271 122.139C132.271 121.779 132.476 121.581 132.876 121.545C132.949 121.542 133.021 121.553 133.09 121.578C133.158 121.603 133.22 121.641 133.274 121.69C133.327 121.739 133.371 121.798 133.401 121.864C133.432 121.93 133.449 122.001 133.452 122.073L133.465 122.073ZM122.905 127.292C122.914 127.361 122.909 127.432 122.89 127.498C122.87 127.565 122.838 127.628 122.793 127.681C122.749 127.735 122.694 127.779 122.632 127.81C122.569 127.842 122.501 127.86 122.432 127.864C122.356 127.883 122.278 127.884 122.202 127.869C122.126 127.853 122.055 127.821 121.993 127.774C121.931 127.727 121.881 127.667 121.846 127.598C121.811 127.528 121.792 127.452 121.79 127.375C121.783 127.301 121.791 127.226 121.813 127.156C121.835 127.085 121.871 127.019 121.919 126.962C121.967 126.905 122.026 126.859 122.092 126.825C122.159 126.791 122.231 126.771 122.305 126.765C122.379 126.76 122.454 126.769 122.524 126.793C122.595 126.816 122.66 126.854 122.716 126.903C122.772 126.952 122.817 127.012 122.85 127.079C122.882 127.146 122.901 127.218 122.905 127.292ZM117.118 137.202C117.203 137.186 117.289 137.19 117.372 137.212C117.454 137.235 117.53 137.277 117.594 137.333C117.658 137.39 117.708 137.461 117.74 137.54C117.773 137.619 117.786 137.705 117.78 137.79C117.79 137.867 117.783 137.945 117.76 138.019C117.737 138.093 117.699 138.161 117.647 138.219C117.595 138.277 117.531 138.322 117.46 138.353C117.389 138.384 117.312 138.399 117.234 138.398C116.837 138.424 116.606 138.219 116.573 137.764C116.577 137.622 116.634 137.488 116.732 137.387C116.831 137.286 116.964 137.226 117.105 137.218L117.118 137.202ZM117.734 132.508C117.734 132.578 117.721 132.646 117.693 132.71C117.666 132.774 117.626 132.831 117.575 132.879C117.524 132.926 117.464 132.963 117.399 132.986C117.333 133.009 117.264 133.019 117.195 133.014C117.117 133.024 117.039 133.016 116.965 132.991C116.892 132.967 116.824 132.925 116.769 132.871C116.714 132.817 116.671 132.75 116.645 132.677C116.619 132.604 116.61 132.526 116.619 132.449C116.619 132.082 116.844 131.907 117.204 131.894C117.282 131.894 117.359 131.912 117.43 131.945C117.5 131.979 117.562 132.028 117.611 132.088C117.661 132.148 117.696 132.219 117.715 132.294C117.734 132.37 117.736 132.448 117.721 132.525L117.734 132.508ZM137.974 117.343C137.905 117.343 137.836 117.328 137.773 117.299C137.71 117.271 137.653 117.229 137.607 117.178C137.56 117.126 137.525 117.065 137.504 116.999C137.482 116.934 137.475 116.864 137.482 116.795C137.473 116.718 137.482 116.641 137.508 116.568C137.533 116.495 137.576 116.429 137.631 116.375C137.686 116.321 137.753 116.28 137.826 116.255C137.899 116.231 137.977 116.223 138.054 116.233C138.424 116.233 138.593 116.471 138.6 116.831C138.601 116.911 138.585 116.99 138.552 117.062C138.519 117.135 138.47 117.199 138.408 117.25C138.347 117.3 138.275 117.337 138.197 117.356C138.12 117.375 138.039 117.376 137.961 117.36L137.974 117.343ZM158.913 111.051C158.989 111.045 159.066 111.055 159.137 111.082C159.209 111.108 159.273 111.15 159.327 111.204C159.381 111.258 159.422 111.323 159.447 111.395C159.473 111.467 159.483 111.543 159.476 111.619C159.485 111.702 159.475 111.787 159.445 111.865C159.416 111.944 159.368 112.014 159.306 112.071C159.244 112.128 159.17 112.169 159.089 112.191C159.008 112.214 158.923 112.217 158.84 112.2C158.48 112.177 158.318 111.943 158.318 111.54C158.334 111.4 158.403 111.273 158.512 111.185C158.621 111.096 158.76 111.054 158.9 111.067L158.913 111.051ZM168.948 106.496C168.948 106.37 168.997 106.25 169.086 106.162C169.175 106.073 169.295 106.023 169.421 106.023C169.546 106.023 169.666 106.073 169.755 106.162C169.844 106.25 169.894 106.37 169.894 106.496C169.89 106.62 169.838 106.738 169.748 106.825C169.659 106.911 169.539 106.959 169.414 106.958C169.293 106.958 169.176 106.911 169.087 106.829C168.998 106.746 168.943 106.633 168.934 106.512L168.948 106.496ZM107.114 142.93C107.117 142.992 107.109 143.054 107.088 143.112C107.067 143.171 107.036 143.225 106.994 143.271C106.953 143.318 106.902 143.355 106.846 143.382C106.79 143.409 106.729 143.425 106.667 143.428C106.605 143.432 106.543 143.423 106.484 143.403C106.425 143.382 106.371 143.35 106.325 143.309C106.279 143.267 106.241 143.217 106.214 143.161C106.187 143.105 106.171 143.045 106.168 142.983C106.168 142.708 106.35 142.556 106.657 142.49C106.772 142.501 106.88 142.55 106.963 142.63C107.046 142.71 107.099 142.815 107.114 142.93ZM122.806 122.09C122.811 122.152 122.804 122.214 122.785 122.273C122.766 122.332 122.736 122.387 122.696 122.434C122.655 122.482 122.606 122.521 122.551 122.549C122.496 122.578 122.436 122.595 122.374 122.6C122.312 122.605 122.25 122.598 122.19 122.58C122.131 122.561 122.076 122.53 122.029 122.49C121.933 122.41 121.873 122.294 121.863 122.169C121.836 121.892 122.031 121.736 122.299 121.667C122.421 121.662 122.541 121.702 122.635 121.781C122.728 121.859 122.789 121.969 122.806 122.09ZM117.628 127.259C117.632 127.321 117.623 127.384 117.603 127.442C117.582 127.501 117.551 127.555 117.509 127.602C117.468 127.648 117.418 127.686 117.362 127.713C117.306 127.74 117.245 127.756 117.183 127.76C117.121 127.764 117.059 127.755 117 127.735C116.941 127.714 116.887 127.683 116.84 127.641C116.794 127.6 116.756 127.55 116.729 127.494C116.701 127.438 116.685 127.378 116.682 127.316C116.682 127.041 116.86 126.889 117.168 126.82C117.283 126.831 117.391 126.88 117.475 126.96C117.558 127.04 117.612 127.145 117.628 127.259ZM164.528 106.433C164.535 106.497 164.53 106.562 164.511 106.623C164.493 106.685 164.462 106.742 164.421 106.792C164.379 106.841 164.328 106.881 164.271 106.91C164.213 106.939 164.15 106.956 164.086 106.96C164.022 106.964 163.957 106.955 163.897 106.933C163.836 106.911 163.78 106.877 163.733 106.833C163.687 106.788 163.649 106.735 163.624 106.676C163.598 106.617 163.585 106.553 163.585 106.489C163.585 106.212 163.763 106.06 164.035 106C164.156 105.998 164.274 106.041 164.365 106.121C164.456 106.201 164.514 106.312 164.528 106.433ZM101.946 158.62C101.946 158.745 101.896 158.865 101.808 158.954C101.719 159.042 101.599 159.092 101.473 159.092C101.348 159.092 101.227 159.042 101.139 158.954C101.05 158.865 101 158.745 101 158.62C101 158.349 101.195 158.197 101.496 158.151C101.615 158.163 101.725 158.217 101.807 158.303C101.89 158.389 101.939 158.501 101.946 158.62ZM127.904 116.739C127.93 117.02 127.805 117.204 127.5 117.208C127.448 117.214 127.394 117.208 127.344 117.191C127.294 117.174 127.248 117.147 127.21 117.11C127.172 117.073 127.142 117.029 127.123 116.98C127.104 116.93 127.096 116.877 127.1 116.825C127.092 116.772 127.096 116.719 127.111 116.669C127.125 116.618 127.15 116.571 127.184 116.531C127.218 116.491 127.261 116.458 127.308 116.435C127.356 116.412 127.408 116.4 127.46 116.399C127.702 116.392 127.884 116.491 127.904 116.739ZM112.397 132.449C112.407 132.501 112.405 132.554 112.392 132.605C112.379 132.656 112.354 132.704 112.32 132.745C112.287 132.785 112.244 132.818 112.196 132.841C112.149 132.863 112.096 132.875 112.043 132.875C111.935 132.88 111.83 132.842 111.75 132.77C111.67 132.697 111.622 132.596 111.617 132.488C111.611 132.381 111.649 132.275 111.722 132.195C111.794 132.115 111.896 132.067 112.004 132.062C112.056 132.059 112.108 132.067 112.157 132.085C112.205 132.103 112.25 132.131 112.287 132.168C112.324 132.204 112.353 132.248 112.372 132.296C112.391 132.345 112.4 132.397 112.397 132.449ZM138.428 111.602C138.439 111.653 138.44 111.707 138.429 111.758C138.418 111.809 138.396 111.858 138.364 111.9C138.333 111.942 138.293 111.977 138.247 112.002C138.2 112.027 138.149 112.041 138.097 112.045C138.038 112.06 137.976 112.061 137.917 112.047C137.858 112.033 137.803 112.006 137.757 111.966C137.71 111.926 137.674 111.876 137.652 111.82C137.629 111.763 137.621 111.702 137.627 111.642C137.627 111.394 137.766 111.262 138.064 111.232C138.161 111.234 138.253 111.274 138.322 111.343C138.39 111.412 138.428 111.505 138.428 111.602ZM180.113 106.529C180.113 106.574 180.104 106.618 180.086 106.66C180.069 106.701 180.042 106.739 180.01 106.769C179.977 106.8 179.938 106.824 179.895 106.84C179.853 106.855 179.808 106.862 179.763 106.859C179.71 106.87 179.656 106.868 179.605 106.853C179.554 106.838 179.507 106.812 179.468 106.775C179.43 106.738 179.4 106.693 179.383 106.642C179.366 106.592 179.361 106.538 179.369 106.486C179.361 106.433 179.365 106.38 179.382 106.33C179.398 106.28 179.427 106.234 179.465 106.197C179.503 106.16 179.549 106.133 179.6 106.118C179.65 106.102 179.704 106.099 179.756 106.109C179.809 106.107 179.863 106.116 179.912 106.137C179.961 106.158 180.005 106.19 180.04 106.231C180.075 106.271 180.1 106.319 180.114 106.371C180.128 106.422 180.13 106.476 180.12 106.529L180.113 106.529ZM174.489 106.083C174.77 106.056 174.956 106.182 174.959 106.486C174.964 106.538 174.957 106.591 174.94 106.64C174.922 106.69 174.895 106.735 174.858 106.773C174.822 106.811 174.778 106.84 174.729 106.86C174.68 106.879 174.628 106.888 174.575 106.885C174.324 106.885 174.185 106.77 174.145 106.492C174.139 106.441 174.144 106.388 174.16 106.339C174.175 106.289 174.201 106.244 174.236 106.205C174.271 106.166 174.313 106.135 174.361 106.114C174.409 106.093 174.46 106.082 174.512 106.083L174.489 106.083ZM106.998 137.813C107.005 137.858 107.002 137.903 106.99 137.947C106.978 137.99 106.957 138.031 106.929 138.066C106.901 138.102 106.866 138.131 106.826 138.152C106.786 138.173 106.742 138.186 106.697 138.19C106.645 138.204 106.591 138.207 106.538 138.197C106.485 138.188 106.435 138.166 106.392 138.134C106.349 138.102 106.314 138.061 106.289 138.013C106.265 137.966 106.251 137.913 106.25 137.859C106.227 137.618 106.343 137.463 106.654 137.427C106.704 137.426 106.753 137.436 106.799 137.455C106.845 137.475 106.886 137.504 106.92 137.54C106.954 137.577 106.98 137.62 106.996 137.667C107.013 137.714 107.019 137.763 107.015 137.813L106.998 137.813ZM154.103 106.433C154.115 106.484 154.116 106.538 154.105 106.59C154.094 106.642 154.073 106.691 154.041 106.734C154.01 106.776 153.969 106.812 153.923 106.837C153.876 106.863 153.825 106.878 153.772 106.882C153.713 106.898 153.651 106.9 153.592 106.887C153.532 106.874 153.477 106.847 153.43 106.808C153.383 106.769 153.346 106.72 153.323 106.664C153.3 106.607 153.29 106.546 153.296 106.486C153.296 106.238 153.428 106.102 153.719 106.073C153.769 106.069 153.82 106.075 153.868 106.091C153.916 106.107 153.959 106.133 153.997 106.167C154.034 106.2 154.065 106.241 154.086 106.287C154.107 106.333 154.118 106.382 154.119 106.433L154.103 106.433ZM101.476 148.515C101.431 148.524 101.384 148.523 101.338 148.512C101.293 148.501 101.251 148.481 101.214 148.452C101.177 148.424 101.147 148.388 101.125 148.347C101.103 148.306 101.089 148.261 101.086 148.215C101.071 148.163 101.067 148.109 101.077 148.056C101.086 148.003 101.108 147.953 101.14 147.909C101.172 147.866 101.214 147.831 101.262 147.806C101.31 147.782 101.363 147.769 101.417 147.769C101.658 147.742 101.814 147.858 101.85 148.169C101.849 148.216 101.838 148.263 101.819 148.306C101.799 148.349 101.771 148.388 101.736 148.42C101.701 148.453 101.661 148.478 101.616 148.494C101.571 148.51 101.524 148.518 101.476 148.515ZM101.873 153.269C101.884 153.319 101.883 153.371 101.872 153.422C101.861 153.472 101.838 153.519 101.807 153.56C101.776 153.602 101.736 153.635 101.69 153.66C101.645 153.684 101.594 153.698 101.543 153.701C101.483 153.716 101.421 153.716 101.362 153.701C101.303 153.686 101.248 153.657 101.203 153.617C101.158 153.576 101.123 153.525 101.102 153.467C101.081 153.41 101.074 153.349 101.083 153.288C101.08 153.236 101.089 153.183 101.108 153.133C101.128 153.084 101.157 153.039 101.195 153.002C101.233 152.964 101.278 152.935 101.327 152.916C101.377 152.898 101.43 152.889 101.483 152.892C101.534 152.89 101.584 152.898 101.632 152.916C101.679 152.934 101.723 152.961 101.759 152.997C101.796 153.032 101.825 153.074 101.844 153.121C101.864 153.168 101.874 153.218 101.873 153.269ZM159.287 106.433C159.3 106.484 159.301 106.538 159.291 106.59C159.28 106.643 159.258 106.692 159.227 106.735C159.195 106.777 159.155 106.813 159.108 106.838C159.061 106.864 159.009 106.879 158.956 106.882C158.902 106.891 158.846 106.889 158.793 106.876C158.739 106.863 158.689 106.839 158.645 106.806C158.601 106.774 158.564 106.732 158.536 106.684C158.509 106.637 158.491 106.584 158.485 106.529C158.478 106.475 158.483 106.419 158.499 106.367C158.514 106.314 158.54 106.265 158.575 106.222C158.61 106.18 158.654 106.145 158.703 106.12C158.752 106.095 158.805 106.08 158.86 106.076C158.912 106.068 158.966 106.071 159.016 106.085C159.067 106.1 159.114 106.124 159.155 106.158C159.195 106.192 159.228 106.234 159.25 106.281C159.273 106.329 159.286 106.38 159.287 106.433ZM148.922 106.499C148.926 106.544 148.92 106.59 148.905 106.633C148.89 106.677 148.866 106.716 148.835 106.75C148.804 106.783 148.766 106.81 148.724 106.828C148.682 106.846 148.637 106.856 148.591 106.856C148.54 106.871 148.487 106.874 148.435 106.864C148.383 106.855 148.334 106.833 148.292 106.801C148.25 106.768 148.217 106.726 148.195 106.679C148.172 106.631 148.162 106.578 148.164 106.525C148.164 106.426 148.204 106.331 148.274 106.261C148.344 106.191 148.439 106.152 148.538 106.152C148.637 106.152 148.732 106.191 148.803 106.261C148.873 106.331 148.912 106.426 148.912 106.525L148.922 106.499ZM174.532 126.417C174.655 126.404 174.78 126.417 174.897 126.458C175.015 126.498 175.122 126.563 175.211 126.649C175.3 126.735 175.369 126.84 175.413 126.956C175.457 127.071 175.475 127.195 175.465 127.319C175.473 127.435 175.457 127.551 175.417 127.66C175.377 127.769 175.315 127.868 175.234 127.952C175.153 128.035 175.056 128.101 174.948 128.144C174.84 128.188 174.724 128.208 174.608 128.204C174.033 128.227 173.735 127.874 173.655 127.312C173.735 126.777 174.013 126.447 174.532 126.417ZM179.806 128.191C179.572 128.201 179.345 128.117 179.173 127.959C179.001 127.801 178.899 127.582 178.889 127.349C178.88 127.116 178.963 126.888 179.121 126.717C179.279 126.545 179.499 126.443 179.733 126.434C180.259 126.41 180.547 126.764 180.649 127.276C180.655 127.508 180.57 127.733 180.413 127.904C180.255 128.074 180.038 128.177 179.806 128.191ZM180.534 122.179C180.54 122.279 180.525 122.379 180.489 122.473C180.454 122.567 180.399 122.653 180.329 122.724C180.258 122.795 180.174 122.851 180.08 122.888C179.986 122.924 179.886 122.94 179.786 122.936C179.677 122.952 179.567 122.943 179.462 122.91C179.358 122.877 179.262 122.82 179.183 122.745C179.103 122.669 179.042 122.577 179.004 122.474C178.966 122.372 178.951 122.262 178.962 122.153C178.952 122.046 178.966 121.938 179.002 121.836C179.038 121.735 179.095 121.642 179.17 121.565C179.245 121.488 179.336 121.428 179.437 121.389C179.537 121.35 179.645 121.333 179.753 121.34C179.862 121.335 179.971 121.354 180.072 121.395C180.173 121.436 180.264 121.499 180.338 121.579C180.412 121.659 180.468 121.754 180.502 121.857C180.536 121.961 180.547 122.071 180.534 122.179ZM169.398 121.343C169.508 121.335 169.619 121.349 169.723 121.386C169.828 121.422 169.924 121.479 170.006 121.554C170.087 121.628 170.153 121.719 170.198 121.82C170.243 121.921 170.267 122.03 170.269 122.14C170.27 122.251 170.249 122.361 170.206 122.463C170.163 122.565 170.1 122.657 170.02 122.733C169.941 122.81 169.846 122.87 169.742 122.908C169.638 122.947 169.528 122.964 169.417 122.959C168.914 122.959 168.64 122.661 168.587 122.136C168.585 122.03 168.604 121.924 168.644 121.826C168.684 121.728 168.744 121.639 168.82 121.564C168.896 121.49 168.987 121.432 169.086 121.394C169.185 121.356 169.291 121.339 169.398 121.343ZM175.389 122.153C175.397 122.261 175.382 122.371 175.343 122.473C175.304 122.575 175.244 122.667 175.166 122.744C175.087 122.82 174.993 122.878 174.89 122.914C174.787 122.95 174.677 122.963 174.569 122.952C174.461 122.96 174.354 122.945 174.253 122.907C174.152 122.87 174.061 122.811 173.985 122.735C173.909 122.66 173.85 122.568 173.813 122.468C173.775 122.367 173.76 122.26 173.768 122.153C173.768 121.938 173.853 121.732 174.005 121.58C174.157 121.429 174.363 121.343 174.578 121.343C174.793 121.343 175 121.429 175.152 121.58C175.304 121.732 175.389 121.938 175.389 122.153ZM158.847 126.41C158.97 126.396 159.095 126.409 159.212 126.448C159.33 126.487 159.437 126.552 159.527 126.637C159.617 126.722 159.687 126.825 159.733 126.94C159.778 127.055 159.798 127.179 159.79 127.302C159.799 127.418 159.783 127.534 159.744 127.643C159.706 127.753 159.644 127.853 159.565 127.937C159.485 128.021 159.388 128.088 159.281 128.133C159.174 128.178 159.059 128.2 158.943 128.197C158.367 128.227 158.07 127.867 157.97 127.273C158.053 126.813 158.321 126.447 158.837 126.417L158.847 126.41ZM153.729 128.194C153.609 128.2 153.488 128.181 153.376 128.139C153.263 128.097 153.16 128.032 153.073 127.949C152.986 127.865 152.918 127.765 152.871 127.654C152.824 127.543 152.801 127.424 152.803 127.303C152.804 127.183 152.83 127.064 152.879 126.954C152.928 126.845 152.999 126.746 153.088 126.664C153.176 126.583 153.281 126.52 153.394 126.481C153.508 126.441 153.629 126.425 153.749 126.434C154.272 126.434 154.549 126.804 154.622 127.349C154.526 127.824 154.262 128.188 153.729 128.194ZM149.412 127.329C149.412 127.557 149.321 127.777 149.159 127.938C148.997 128.1 148.777 128.191 148.548 128.191C148.319 128.191 148.099 128.1 147.937 127.938C147.776 127.777 147.685 127.557 147.685 127.329C147.665 126.797 148.015 126.506 148.545 126.42C149.058 126.51 149.415 126.777 149.412 127.329ZM122.389 154.194C122.273 154.208 122.156 154.199 122.045 154.166C121.934 154.132 121.831 154.076 121.743 154C121.655 153.924 121.584 153.831 121.534 153.726C121.485 153.621 121.458 153.507 121.456 153.391C121.437 153.269 121.445 153.144 121.481 153.026C121.517 152.908 121.578 152.799 121.661 152.707C121.744 152.616 121.847 152.544 121.961 152.497C122.076 152.45 122.199 152.429 122.323 152.436C122.849 152.416 123.136 152.767 123.239 153.312C123.234 153.538 123.143 153.755 122.986 153.918C122.828 154.081 122.615 154.18 122.389 154.194ZM122.359 148.994C122.244 148.999 122.129 148.979 122.022 148.938C121.915 148.896 121.818 148.833 121.736 148.753C121.654 148.672 121.589 148.576 121.546 148.47C121.503 148.363 121.482 148.249 121.484 148.134C121.487 148.02 121.513 147.907 121.56 147.802C121.608 147.698 121.677 147.604 121.762 147.527C121.848 147.45 121.948 147.392 122.057 147.355C122.165 147.318 122.281 147.304 122.395 147.313C122.61 147.33 122.81 147.429 122.954 147.588C123.098 147.748 123.176 147.956 123.171 148.171C123.166 148.386 123.08 148.59 122.929 148.744C122.778 148.897 122.574 148.986 122.359 148.994ZM138.901 132.535C138.882 132.754 138.78 132.959 138.615 133.106C138.45 133.252 138.235 133.33 138.014 133.324C137.793 133.317 137.583 133.226 137.428 133.069C137.272 132.913 137.182 132.702 137.177 132.482C137.177 131.95 137.541 131.669 138.077 131.6C138.56 131.699 138.917 131.986 138.888 132.521L138.901 132.535ZM127.494 143.841C127.274 143.832 127.066 143.739 126.912 143.582C126.758 143.425 126.67 143.215 126.667 142.995C126.663 142.775 126.743 142.562 126.891 142.4C127.04 142.237 127.244 142.137 127.464 142.12C127.996 142.091 128.291 142.451 128.387 142.969C128.311 143.485 128.029 143.838 127.494 143.841ZM132.82 136.938C132.943 136.925 133.067 136.94 133.184 136.982C133.3 137.023 133.406 137.09 133.493 137.177C133.581 137.265 133.647 137.37 133.689 137.486C133.73 137.603 133.746 137.727 133.733 137.849C133.737 137.965 133.717 138.08 133.673 138.188C133.63 138.295 133.564 138.392 133.48 138.472C133.396 138.552 133.297 138.614 133.187 138.653C133.078 138.692 132.962 138.707 132.846 138.698C132.32 138.698 132.039 138.345 131.95 137.8C132.033 137.327 132.291 136.951 132.82 136.938ZM144.095 132.452C144.106 132.575 144.09 132.699 144.048 132.816C144.006 132.932 143.938 133.038 143.85 133.125C143.762 133.212 143.656 133.279 143.54 133.321C143.423 133.363 143.299 133.379 143.175 133.367C143.059 133.372 142.944 133.353 142.835 133.311C142.727 133.269 142.629 133.205 142.547 133.123C142.465 133.041 142.402 132.943 142.36 132.834C142.318 132.726 142.3 132.611 142.305 132.495C142.305 131.917 142.669 131.63 143.218 131.557C143.731 131.646 144.095 131.923 144.095 132.452ZM138.934 137.803C138.934 138.037 138.843 138.262 138.68 138.431C138.518 138.6 138.296 138.7 138.062 138.709C137.828 138.719 137.599 138.638 137.423 138.484C137.247 138.329 137.138 138.112 137.118 137.879C137.071 137.301 137.448 136.994 137.981 136.888C138.547 136.941 138.917 137.225 138.934 137.803ZM127.48 147.23C127.596 147.219 127.713 147.232 127.823 147.267C127.934 147.303 128.036 147.361 128.123 147.438C128.21 147.515 128.28 147.609 128.329 147.714C128.377 147.819 128.404 147.934 128.407 148.05C128.427 148.171 128.421 148.296 128.389 148.415C128.356 148.534 128.298 148.645 128.218 148.739C128.139 148.833 128.039 148.909 127.927 148.961C127.815 149.013 127.693 149.04 127.57 149.041C126.991 149.09 126.68 148.73 126.577 148.182C126.62 147.624 126.891 147.257 127.48 147.23ZM133.766 143.012C133.762 143.133 133.734 143.251 133.684 143.361C133.633 143.471 133.562 143.57 133.473 143.652C133.385 143.734 133.281 143.798 133.168 143.84C133.055 143.882 132.934 143.902 132.813 143.898C132.693 143.893 132.574 143.865 132.464 143.815C132.354 143.765 132.255 143.694 132.173 143.605C132.09 143.517 132.026 143.413 131.984 143.3C131.942 143.187 131.922 143.067 131.927 142.946C131.943 142.365 132.314 142.087 132.956 142.038C133.193 142.061 133.411 142.176 133.564 142.358C133.718 142.54 133.794 142.775 133.776 143.012L133.766 143.012ZM122.303 159.555C122.186 159.56 122.07 159.541 121.962 159.499C121.853 159.457 121.754 159.393 121.671 159.311C121.589 159.229 121.524 159.131 121.481 159.023C121.438 158.915 121.418 158.799 121.423 158.683C121.408 158.559 121.421 158.435 121.461 158.317C121.5 158.2 121.565 158.092 121.65 158.002C121.736 157.912 121.84 157.843 121.956 157.797C122.071 157.752 122.195 157.733 122.319 157.741C122.898 157.741 123.189 158.095 123.262 158.653C123.179 159.211 122.882 159.571 122.303 159.555ZM169.338 126.42C169.455 126.417 169.572 126.437 169.682 126.479C169.791 126.521 169.892 126.584 169.977 126.664C170.062 126.745 170.131 126.841 170.179 126.948C170.226 127.055 170.253 127.17 170.256 127.287C170.259 127.405 170.239 127.521 170.198 127.631C170.156 127.74 170.093 127.84 170.012 127.925C169.931 128.01 169.835 128.079 169.728 128.127C169.62 128.175 169.505 128.201 169.388 128.204C168.858 128.204 168.58 127.847 168.494 127.339C168.486 127.106 168.57 126.879 168.728 126.707C168.886 126.535 169.105 126.432 169.338 126.42ZM149.468 132.439C149.477 132.682 149.389 132.92 149.223 133.098C149.057 133.277 148.827 133.383 148.583 133.392C148.339 133.401 148.101 133.313 147.922 133.147C147.743 132.982 147.638 132.752 147.628 132.508C147.605 131.927 147.959 131.623 148.505 131.537C149.077 131.58 149.448 131.857 149.468 132.439ZM159.83 132.393C159.84 132.52 159.825 132.648 159.785 132.769C159.744 132.89 159.68 133.002 159.595 133.097C159.511 133.193 159.407 133.27 159.292 133.325C159.176 133.38 159.051 133.41 158.923 133.415C158.795 133.42 158.668 133.399 158.549 133.354C158.429 133.308 158.32 133.239 158.229 133.15C158.137 133.061 158.064 132.955 158.014 132.837C157.965 132.719 157.94 132.593 157.941 132.465C157.931 132.343 157.947 132.22 157.988 132.104C158.029 131.988 158.094 131.883 158.178 131.793C158.263 131.704 158.365 131.634 158.479 131.587C158.592 131.54 158.714 131.517 158.837 131.52C159.423 131.534 159.793 131.805 159.83 132.393ZM180.672 132.449C180.689 132.572 180.678 132.697 180.641 132.816C180.604 132.935 180.541 133.043 180.456 133.135C180.372 133.226 180.268 133.298 180.153 133.345C180.038 133.392 179.914 133.413 179.789 133.407C179.658 133.429 179.523 133.42 179.395 133.381C179.268 133.342 179.151 133.273 179.055 133.181C178.958 133.089 178.885 132.976 178.84 132.85C178.795 132.725 178.78 132.591 178.797 132.459C178.797 131.871 179.151 131.58 179.723 131.53C180.315 131.57 180.666 131.854 180.682 132.445L180.672 132.449ZM128.648 158.699C128.628 158.945 128.514 159.174 128.33 159.338C128.146 159.503 127.906 159.59 127.659 159.582C127.412 159.575 127.177 159.473 127.004 159.297C126.83 159.122 126.731 158.886 126.726 158.64C126.726 158.005 127.1 157.705 127.758 157.675C127.887 157.675 128.014 157.703 128.131 157.756C128.248 157.81 128.352 157.888 128.437 157.985C128.521 158.082 128.584 158.196 128.62 158.319C128.657 158.442 128.666 158.572 128.648 158.699ZM127.52 152.367C127.644 152.357 127.769 152.374 127.885 152.417C128.002 152.46 128.108 152.528 128.195 152.617C128.282 152.706 128.348 152.812 128.39 152.93C128.431 153.047 128.446 153.172 128.433 153.295C128.448 153.426 128.432 153.559 128.386 153.684C128.34 153.808 128.267 153.92 128.171 154.011C128.074 154.101 127.958 154.169 127.832 154.208C127.705 154.246 127.571 154.255 127.441 154.233C126.855 154.203 126.58 153.834 126.554 153.173C126.577 152.939 126.691 152.723 126.871 152.572C127.052 152.421 127.285 152.348 127.52 152.367ZM133.806 148.073C133.817 148.2 133.801 148.328 133.761 148.449C133.721 148.57 133.656 148.682 133.572 148.778C133.487 148.873 133.384 148.951 133.268 149.005C133.153 149.06 133.027 149.091 132.899 149.095C132.772 149.1 132.644 149.079 132.525 149.034C132.406 148.988 132.297 148.919 132.205 148.83C132.113 148.741 132.04 148.635 131.991 148.517C131.941 148.4 131.916 148.273 131.917 148.145C131.907 148.023 131.923 147.9 131.964 147.784C132.005 147.668 132.07 147.562 132.154 147.473C132.239 147.383 132.341 147.313 132.455 147.265C132.568 147.218 132.69 147.195 132.813 147.197C133.392 147.201 133.763 147.472 133.799 148.06L133.806 148.073ZM138.987 142.963C138.986 143.21 138.889 143.448 138.717 143.627C138.545 143.805 138.31 143.91 138.062 143.92C137.814 143.929 137.572 143.843 137.386 143.679C137.2 143.515 137.085 143.286 137.065 143.039C137.032 142.418 137.362 142.074 137.984 142.008C138.603 142.035 138.974 142.332 138.987 142.963ZM153.712 131.54C153.96 131.545 154.195 131.648 154.367 131.826C154.538 132.004 154.632 132.243 154.627 132.49C154.622 132.737 154.519 132.972 154.341 133.143C154.163 133.315 153.924 133.408 153.676 133.403C153.087 133.403 152.806 133.027 152.763 132.386C152.769 132.268 152.798 132.152 152.849 132.046C152.9 131.939 152.972 131.843 153.061 131.765C153.149 131.686 153.252 131.626 153.364 131.587C153.476 131.549 153.594 131.533 153.712 131.54ZM170.37 132.459C170.386 132.582 170.375 132.707 170.338 132.825C170.301 132.944 170.238 133.053 170.155 133.145C170.072 133.237 169.97 133.31 169.855 133.36C169.741 133.409 169.618 133.433 169.493 133.43C169.364 133.455 169.23 133.45 169.102 133.416C168.974 133.382 168.856 133.32 168.756 133.234C168.655 133.148 168.576 133.04 168.523 132.919C168.47 132.798 168.446 132.666 168.451 132.535C168.415 131.914 168.746 131.567 169.368 131.504C169.986 131.527 170.357 131.824 170.37 132.459ZM143.185 136.872C143.318 136.856 143.452 136.872 143.577 136.917C143.702 136.962 143.816 137.035 143.908 137.131C144 137.227 144.069 137.343 144.109 137.47C144.149 137.597 144.159 137.731 144.138 137.863C144.147 137.987 144.129 138.111 144.085 138.227C144.041 138.344 143.972 138.449 143.883 138.535C143.793 138.622 143.686 138.688 143.568 138.729C143.451 138.77 143.326 138.784 143.202 138.771C142.563 138.771 142.262 138.404 142.236 137.78C142.295 137.205 142.6 136.868 143.185 136.872ZM174.698 133.413C174.082 133.469 173.682 133.182 173.632 132.548C173.609 132.426 173.612 132.3 173.642 132.179C173.672 132.058 173.729 131.946 173.807 131.849C173.886 131.752 173.985 131.674 174.097 131.62C174.209 131.565 174.331 131.536 174.456 131.534C175.078 131.471 175.449 131.775 175.538 132.406C175.525 132.961 175.293 133.357 174.698 133.413ZM165.017 132.488C165.029 132.612 165.014 132.737 164.972 132.854C164.931 132.971 164.865 133.078 164.779 133.168C164.692 133.257 164.588 133.327 164.472 133.372C164.356 133.417 164.232 133.437 164.107 133.43C163.977 133.451 163.844 133.443 163.717 133.405C163.59 133.367 163.474 133.302 163.376 133.213C163.279 133.124 163.203 133.014 163.154 132.891C163.106 132.768 163.085 132.636 163.095 132.505C163.095 131.877 163.426 131.55 164.048 131.514C164.667 131.544 165.021 131.857 165.017 132.488ZM149.524 137.849C149.475 138.076 149.348 138.279 149.165 138.422C148.982 138.564 148.754 138.639 148.522 138.631C148.29 138.624 148.067 138.535 147.894 138.381C147.72 138.226 147.606 138.016 147.572 137.787C147.572 137.159 147.966 136.858 148.565 136.832C149.2 136.891 149.541 137.228 149.524 137.849ZM132.813 152.288C132.952 152.273 133.093 152.289 133.225 152.334C133.357 152.379 133.478 152.452 133.579 152.549C133.68 152.646 133.758 152.763 133.809 152.893C133.859 153.023 133.881 153.162 133.872 153.302C133.882 153.434 133.864 153.566 133.819 153.691C133.774 153.816 133.704 153.929 133.612 154.025C133.52 154.121 133.409 154.196 133.287 154.246C133.164 154.296 133.032 154.32 132.899 154.316C132.258 154.339 131.907 153.933 131.821 153.308C131.89 152.707 132.221 152.307 132.813 152.288ZM154.751 137.853C154.717 138.102 154.592 138.33 154.401 138.495C154.21 138.659 153.966 138.748 153.714 138.745C153.462 138.742 153.219 138.648 153.032 138.479C152.845 138.311 152.726 138.08 152.697 137.83C152.697 137.189 153.114 136.839 153.752 136.763C154.351 136.868 154.771 137.209 154.751 137.853ZM143.142 141.972C143.28 141.956 143.419 141.97 143.551 142.013C143.683 142.056 143.804 142.127 143.905 142.221C144.007 142.316 144.087 142.431 144.139 142.559C144.192 142.687 144.216 142.824 144.211 142.963C144.22 143.094 144.203 143.227 144.158 143.351C144.114 143.475 144.044 143.589 143.953 143.685C143.862 143.78 143.752 143.856 143.63 143.907C143.508 143.958 143.377 143.983 143.245 143.98C142.603 144.007 142.252 143.604 142.16 142.966C142.229 142.395 142.55 141.972 143.142 141.972ZM139.06 148.129C139.056 148.395 138.951 148.65 138.764 148.84C138.578 149.03 138.325 149.141 138.059 149.15C137.793 149.159 137.533 149.065 137.334 148.888C137.136 148.71 137.013 148.464 136.992 148.198C136.952 147.561 137.362 147.207 138.027 147.082C138.61 147.164 139.05 147.485 139.06 148.129ZM179.69 136.621C179.959 136.605 180.224 136.697 180.425 136.877C180.626 137.056 180.748 137.308 180.763 137.577C180.779 137.846 180.687 138.11 180.507 138.311C180.327 138.512 180.075 138.633 179.806 138.649C179.164 138.679 178.813 138.279 178.714 137.658C178.773 137.053 179.098 136.647 179.69 136.621ZM175.614 137.612C175.626 137.745 175.61 137.88 175.567 138.007C175.524 138.135 175.455 138.252 175.365 138.351C175.274 138.45 175.164 138.53 175.041 138.584C174.919 138.639 174.786 138.668 174.651 138.669C174.511 138.689 174.367 138.678 174.231 138.637C174.095 138.596 173.97 138.526 173.864 138.432C173.758 138.337 173.674 138.221 173.618 138.091C173.562 137.96 173.535 137.819 173.54 137.678C173.503 137.04 173.917 136.687 174.555 136.574C175.194 136.654 175.601 136.991 175.614 137.628L175.614 137.612ZM159.942 137.816C159.948 137.955 159.926 138.093 159.877 138.223C159.828 138.353 159.753 138.471 159.656 138.571C159.559 138.67 159.443 138.749 159.315 138.802C159.187 138.856 159.049 138.882 158.91 138.88C158.765 138.881 158.621 138.853 158.488 138.797C158.354 138.742 158.233 138.66 158.131 138.557C158.03 138.454 157.95 138.331 157.897 138.196C157.844 138.062 157.818 137.918 157.821 137.773C157.837 137.496 157.958 137.236 158.159 137.044C158.359 136.852 158.625 136.743 158.903 136.74C159.529 136.839 159.942 137.182 159.942 137.816ZM131.798 158.669C131.789 158.531 131.808 158.392 131.855 158.261C131.902 158.13 131.975 158.01 132.069 157.908C132.164 157.806 132.279 157.725 132.406 157.669C132.533 157.613 132.671 157.584 132.81 157.583C132.955 157.579 133.1 157.604 133.235 157.657C133.37 157.71 133.493 157.789 133.597 157.891C133.701 157.992 133.783 158.113 133.839 158.247C133.894 158.381 133.923 158.524 133.922 158.669C133.912 158.949 133.794 159.214 133.594 159.41C133.394 159.606 133.127 159.718 132.846 159.723C132.231 159.637 131.811 159.3 131.798 158.669ZM165.12 137.605C165.125 137.743 165.103 137.881 165.055 138.01C165.007 138.14 164.934 138.258 164.84 138.36C164.746 138.461 164.633 138.543 164.507 138.6C164.381 138.658 164.246 138.69 164.107 138.695C163.828 138.703 163.557 138.602 163.352 138.413C163.146 138.223 163.023 137.962 163.009 137.683C162.995 137.405 163.09 137.131 163.275 136.922C163.46 136.713 163.72 136.585 163.998 136.564C164.283 136.562 164.558 136.669 164.766 136.862C164.975 137.056 165.101 137.321 165.12 137.605ZM149.617 142.933C149.619 143.21 149.513 143.478 149.322 143.679C149.131 143.88 148.869 143.999 148.591 144.011C148.314 144.023 148.042 143.927 147.834 143.743C147.626 143.559 147.498 143.302 147.476 143.025C147.45 142.365 147.886 141.988 148.538 141.886C149.17 141.972 149.597 142.302 149.617 142.933ZM168.352 137.648C168.344 137.51 168.363 137.371 168.41 137.24C168.457 137.11 168.53 136.99 168.625 136.889C168.72 136.787 168.834 136.706 168.961 136.651C169.088 136.595 169.226 136.566 169.364 136.564C169.509 136.561 169.653 136.586 169.788 136.64C169.923 136.693 170.046 136.772 170.149 136.874C170.252 136.975 170.334 137.096 170.39 137.23C170.445 137.363 170.474 137.507 170.473 137.651C170.463 137.929 170.347 138.193 170.149 138.389C169.951 138.584 169.686 138.698 169.407 138.705C168.785 138.626 168.365 138.289 168.352 137.655L168.352 137.648ZM153.663 144.059C153.376 144.051 153.104 143.929 152.907 143.721C152.71 143.512 152.604 143.234 152.612 142.948C152.621 142.661 152.743 142.39 152.952 142.193C153.16 141.997 153.439 141.891 153.726 141.899C154.407 141.899 154.748 142.345 154.824 143.009C154.708 143.666 154.351 144.092 153.663 144.059ZM144.277 148.126C144.282 148.267 144.258 148.409 144.209 148.542C144.159 148.675 144.083 148.796 143.986 148.9C143.889 149.004 143.772 149.087 143.643 149.146C143.513 149.205 143.374 149.237 143.232 149.242C143.089 149.247 142.948 149.224 142.815 149.174C142.682 149.124 142.56 149.048 142.456 148.951C142.352 148.854 142.268 148.738 142.21 148.609C142.151 148.48 142.118 148.34 142.113 148.198C142.07 147.518 142.5 147.151 143.198 147.029C143.81 147.118 144.264 147.442 144.277 148.126ZM137.941 152.235C138.087 152.214 138.236 152.225 138.377 152.268C138.518 152.31 138.648 152.383 138.758 152.481C138.867 152.579 138.955 152.699 139.013 152.834C139.072 152.969 139.1 153.115 139.096 153.262C139.112 153.402 139.099 153.543 139.056 153.677C139.014 153.811 138.944 153.934 138.85 154.039C138.756 154.143 138.641 154.227 138.512 154.284C138.383 154.341 138.244 154.37 138.104 154.369C137.422 154.421 137.051 153.992 136.919 153.305C137.002 152.724 137.306 152.278 137.941 152.235ZM179.746 144.059C179.459 144.065 179.182 143.957 178.975 143.758C178.768 143.56 178.648 143.287 178.643 143.001C178.637 142.714 178.746 142.437 178.944 142.231C179.143 142.024 179.416 141.905 179.703 141.899C180.388 141.866 180.745 142.302 180.854 142.963C180.772 143.623 180.428 144.056 179.746 144.059ZM138.021 157.556C138.167 157.544 138.314 157.564 138.452 157.615C138.59 157.665 138.715 157.744 138.819 157.848C138.923 157.951 139.004 158.076 139.055 158.213C139.106 158.35 139.127 158.497 139.116 158.643C139.128 158.789 139.109 158.936 139.059 159.074C139.008 159.212 138.929 159.338 138.825 159.442C138.722 159.546 138.597 159.627 138.459 159.678C138.321 159.73 138.174 159.751 138.027 159.74C137.346 159.74 136.999 159.31 136.899 158.607C137.008 158.005 137.333 157.55 138.021 157.556ZM175.67 143.022C175.676 143.169 175.65 143.315 175.594 143.451C175.537 143.587 175.452 143.709 175.344 143.808C175.235 143.908 175.107 143.983 174.967 144.028C174.826 144.073 174.678 144.087 174.532 144.069C174.385 144.077 174.239 144.053 174.102 143.998C173.966 143.943 173.843 143.86 173.742 143.753C173.641 143.646 173.565 143.518 173.519 143.379C173.472 143.24 173.457 143.092 173.473 142.946C173.49 142.269 173.933 141.932 174.598 141.863C175.267 141.972 175.697 142.329 175.67 143.009L175.67 143.022ZM170.512 142.963C170.524 143.109 170.504 143.255 170.454 143.393C170.404 143.531 170.325 143.656 170.223 143.761C170.121 143.866 169.997 143.948 169.86 144.001C169.724 144.054 169.577 144.077 169.431 144.069C169.278 144.078 169.125 144.053 168.982 143.998C168.84 143.943 168.71 143.858 168.603 143.749C168.496 143.64 168.414 143.509 168.361 143.365C168.309 143.222 168.288 143.069 168.299 142.916C168.349 142.229 168.766 141.899 169.441 141.84C170.096 141.945 170.516 142.302 170.512 142.963ZM143.136 152.212C143.279 152.193 143.424 152.205 143.562 152.246C143.7 152.287 143.828 152.356 143.938 152.449C144.048 152.543 144.137 152.658 144.199 152.788C144.261 152.917 144.296 153.059 144.3 153.203C144.317 153.354 144.3 153.508 144.253 153.653C144.205 153.798 144.127 153.931 144.024 154.044C143.92 154.156 143.794 154.246 143.654 154.306C143.513 154.366 143.361 154.395 143.208 154.392C142.517 154.392 142.166 153.982 142.067 153.335C142.11 152.671 142.441 152.235 143.136 152.212ZM160.008 142.963C160.021 143.108 160.004 143.255 159.956 143.393C159.909 143.532 159.833 143.659 159.734 143.766C159.634 143.874 159.513 143.959 159.379 144.017C159.244 144.075 159.099 144.104 158.953 144.102C158.798 144.117 158.641 144.098 158.495 144.046C158.348 143.995 158.214 143.912 158.102 143.803C157.99 143.695 157.904 143.564 157.848 143.419C157.792 143.273 157.768 143.118 157.778 142.963C157.771 142.826 157.791 142.688 157.837 142.559C157.883 142.43 157.955 142.311 158.047 142.209C158.139 142.107 158.25 142.024 158.375 141.965C158.499 141.907 158.634 141.873 158.771 141.866C159.492 141.863 159.998 142.335 159.995 142.946L160.008 142.963ZM164.088 144.086C163.942 144.098 163.796 144.079 163.658 144.032C163.52 143.984 163.394 143.908 163.287 143.809C163.18 143.71 163.096 143.59 163.038 143.456C162.98 143.322 162.951 143.178 162.953 143.032C162.94 142.88 162.961 142.727 163.012 142.584C163.063 142.44 163.145 142.309 163.251 142.199C163.357 142.09 163.485 142.004 163.627 141.947C163.769 141.891 163.922 141.866 164.074 141.873C164.212 141.866 164.349 141.886 164.479 141.932C164.608 141.978 164.727 142.049 164.829 142.141C164.931 142.233 165.014 142.344 165.073 142.468C165.132 142.592 165.166 142.726 165.173 142.864C165.173 143.584 164.7 144.092 164.088 144.086ZM148.512 147.032C148.657 147.019 148.804 147.037 148.943 147.084C149.081 147.131 149.209 147.206 149.316 147.305C149.424 147.404 149.51 147.524 149.568 147.658C149.627 147.792 149.657 147.937 149.656 148.083C149.668 148.234 149.647 148.386 149.595 148.529C149.544 148.671 149.462 148.802 149.357 148.911C149.251 149.02 149.124 149.106 148.983 149.162C148.841 149.219 148.69 149.245 148.538 149.239C148.261 149.252 147.989 149.156 147.783 148.97C147.576 148.784 147.452 148.525 147.436 148.248C147.43 147.541 147.903 147.029 148.512 147.032ZM179.826 149.239C179.529 149.248 179.241 149.14 179.024 148.937C178.808 148.735 178.681 148.455 178.671 148.159C178.661 147.863 178.77 147.575 178.973 147.359C179.176 147.142 179.456 147.015 179.753 147.006C180.441 147.026 180.785 147.425 180.878 148.069C180.838 148.77 180.514 149.189 179.826 149.239ZM153.656 147.012C153.81 146.998 153.964 147.016 154.11 147.066C154.256 147.116 154.39 147.196 154.502 147.301C154.614 147.406 154.703 147.534 154.762 147.677C154.821 147.819 154.849 147.972 154.844 148.126C154.857 148.272 154.839 148.42 154.791 148.559C154.743 148.698 154.666 148.825 154.566 148.933C154.465 149.04 154.343 149.125 154.208 149.183C154.072 149.24 153.926 149.268 153.779 149.265C153.117 149.318 152.594 148.819 152.584 148.033C152.587 147.896 152.617 147.76 152.673 147.635C152.729 147.509 152.808 147.395 152.908 147.301C153.008 147.206 153.125 147.131 153.253 147.082C153.382 147.033 153.519 147.009 153.656 147.012ZM143.165 159.783C143.019 159.79 142.872 159.767 142.734 159.715C142.597 159.662 142.472 159.582 142.368 159.479C142.263 159.376 142.181 159.252 142.127 159.115C142.073 158.979 142.048 158.833 142.054 158.686C142.041 158.532 142.06 158.378 142.111 158.232C142.162 158.087 142.243 157.953 142.349 157.841C142.454 157.729 142.583 157.64 142.725 157.581C142.868 157.522 143.021 157.493 143.175 157.497C143.328 157.49 143.481 157.515 143.625 157.57C143.768 157.625 143.898 157.709 144.007 157.816C144.116 157.924 144.202 158.053 144.258 158.195C144.315 158.337 144.342 158.49 144.337 158.643C144.343 158.797 144.317 158.95 144.26 159.094C144.203 159.237 144.116 159.366 144.006 159.474C143.895 159.581 143.763 159.664 143.618 159.718C143.474 159.771 143.319 159.793 143.165 159.783ZM175.717 148.198C175.722 148.345 175.697 148.492 175.641 148.628C175.586 148.765 175.502 148.888 175.395 148.989C175.288 149.091 175.161 149.169 175.022 149.217C174.883 149.266 174.735 149.285 174.588 149.272C173.854 149.272 173.457 148.859 173.44 148.126C173.435 147.972 173.462 147.819 173.519 147.677C173.577 147.535 173.664 147.406 173.775 147.3C173.886 147.194 174.018 147.112 174.163 147.06C174.307 147.008 174.462 146.987 174.615 146.999C174.768 146.999 174.92 147.031 175.06 147.092C175.2 147.154 175.326 147.244 175.43 147.357C175.534 147.469 175.613 147.602 175.662 147.747C175.711 147.892 175.73 148.046 175.717 148.198ZM148.545 152.162C148.691 152.151 148.839 152.171 148.977 152.219C149.116 152.268 149.243 152.345 149.35 152.445C149.457 152.546 149.543 152.667 149.6 152.802C149.658 152.937 149.687 153.082 149.686 153.229C149.701 153.381 149.685 153.535 149.637 153.681C149.589 153.826 149.512 153.96 149.409 154.075C149.307 154.189 149.182 154.28 149.042 154.343C148.902 154.406 148.751 154.44 148.598 154.441C148.445 154.452 148.292 154.431 148.147 154.379C148.003 154.328 147.871 154.248 147.759 154.144C147.647 154.039 147.557 153.913 147.496 153.773C147.435 153.632 147.403 153.481 147.403 153.328C147.394 153.175 147.417 153.021 147.471 152.877C147.524 152.733 147.608 152.602 147.715 152.492C147.823 152.383 147.952 152.296 148.095 152.24C148.238 152.183 148.391 152.156 148.545 152.162ZM160.035 148.096C160.047 148.4 159.937 148.696 159.73 148.919C159.523 149.143 159.236 149.275 158.931 149.287C158.627 149.299 158.33 149.189 158.107 148.982C157.883 148.776 157.751 148.489 157.739 148.185C157.712 147.455 158.119 147.062 158.837 146.979C159.558 147.012 160.012 147.359 160.035 148.096ZM169.454 149.285C169.299 149.31 169.14 149.3 168.989 149.256C168.838 149.211 168.7 149.133 168.583 149.027C168.467 148.921 168.377 148.79 168.318 148.645C168.26 148.499 168.235 148.342 168.246 148.185C168.224 148.031 168.236 147.875 168.282 147.726C168.328 147.578 168.407 147.442 168.512 147.327C168.618 147.213 168.748 147.124 168.892 147.067C169.037 147.01 169.193 146.985 169.348 146.996C170.079 146.966 170.473 147.376 170.562 148.132C170.529 148.803 170.198 149.269 169.454 149.285ZM179.71 152.142C179.864 152.124 180.019 152.139 180.167 152.187C180.314 152.235 180.449 152.314 180.563 152.418C180.677 152.523 180.767 152.652 180.826 152.794C180.885 152.937 180.913 153.091 180.907 153.246C180.923 153.406 180.903 153.568 180.85 153.721C180.797 153.873 180.711 154.012 180.599 154.129C180.487 154.245 180.351 154.335 180.2 154.394C180.049 154.452 179.888 154.478 179.726 154.468C178.998 154.438 178.625 154.028 178.565 153.312C178.618 152.595 178.985 152.155 179.716 152.142L179.71 152.142ZM164.094 146.996C164.249 146.986 164.405 147.011 164.549 147.068C164.693 147.126 164.823 147.215 164.928 147.329C165.034 147.443 165.113 147.579 165.159 147.727C165.205 147.875 165.218 148.031 165.196 148.185C165.206 148.34 165.181 148.495 165.123 148.639C165.066 148.783 164.977 148.913 164.862 149.018C164.748 149.123 164.612 149.202 164.464 149.248C164.315 149.294 164.159 149.307 164.005 149.285C163.264 149.262 162.92 148.813 162.883 148.089C162.976 147.376 163.37 146.966 164.101 146.996L164.094 146.996ZM174.602 154.524C174.277 154.516 173.967 154.387 173.732 154.162C173.498 153.937 173.358 153.632 173.338 153.308C173.345 152.984 173.475 152.674 173.7 152.441C173.926 152.207 174.231 152.066 174.555 152.046C174.88 152.053 175.19 152.182 175.424 152.408C175.658 152.633 175.798 152.938 175.816 153.262C175.81 153.586 175.681 153.896 175.456 154.13C175.231 154.364 174.926 154.505 174.602 154.524ZM153.712 152.073C154.024 152.066 154.327 152.181 154.555 152.394C154.782 152.607 154.917 152.901 154.93 153.213C154.941 153.375 154.919 153.538 154.866 153.692C154.814 153.846 154.731 153.988 154.623 154.11C154.515 154.232 154.384 154.331 154.237 154.402C154.091 154.473 153.931 154.515 153.769 154.524C153.444 154.527 153.13 154.405 152.892 154.183C152.655 153.96 152.513 153.656 152.495 153.331C152.492 153.006 152.619 152.692 152.847 152.46C153.075 152.227 153.386 152.094 153.712 152.089L153.712 152.073ZM148.492 159.859C148.18 159.851 147.883 159.721 147.667 159.496C147.45 159.272 147.33 158.971 147.334 158.659C147.333 158.334 147.461 158.022 147.691 157.791C147.92 157.56 148.232 157.429 148.558 157.427C148.882 157.441 149.189 157.578 149.414 157.812C149.64 158.045 149.767 158.355 149.769 158.679C149.755 159.004 149.613 159.311 149.374 159.532C149.135 159.753 148.818 159.87 148.492 159.859ZM160.124 153.279C160.095 153.581 159.956 153.863 159.732 154.07C159.509 154.276 159.217 154.394 158.912 154.399C158.608 154.405 158.312 154.299 158.081 154.101C157.85 153.902 157.7 153.626 157.659 153.325C157.648 153.158 157.671 152.99 157.727 152.831C157.782 152.673 157.87 152.528 157.983 152.404C158.097 152.281 158.234 152.182 158.387 152.113C158.541 152.044 158.706 152.007 158.874 152.004C159.042 152 159.209 152.031 159.364 152.095C159.52 152.158 159.661 152.252 159.779 152.371C159.897 152.49 159.99 152.632 160.052 152.788C160.113 152.944 160.142 153.111 160.137 153.279L160.124 153.279ZM179.766 159.898C179.444 159.885 179.138 159.755 178.905 159.532C178.673 159.309 178.529 159.01 178.502 158.689C178.505 158.351 178.639 158.028 178.876 157.787C179.113 157.546 179.434 157.406 179.773 157.398C180.097 157.416 180.402 157.555 180.629 157.787C180.856 158.018 180.988 158.326 181 158.65C180.983 158.972 180.848 159.278 180.62 159.508C180.393 159.738 180.089 159.877 179.766 159.898ZM170.661 153.272C170.67 153.442 170.644 153.611 170.585 153.77C170.526 153.93 170.435 154.075 170.318 154.198C170.201 154.322 170.06 154.42 169.904 154.487C169.747 154.554 169.579 154.588 169.409 154.588C169.239 154.588 169.071 154.554 168.914 154.487C168.758 154.42 168.617 154.322 168.5 154.198C168.383 154.075 168.292 153.93 168.233 153.77C168.174 153.611 168.148 153.442 168.157 153.272C168.173 152.951 168.312 152.65 168.546 152.429C168.779 152.208 169.088 152.084 169.409 152.084C169.73 152.084 170.04 152.208 170.273 152.429C170.506 152.65 170.645 152.951 170.661 153.272ZM165.308 153.252C165.32 153.421 165.297 153.591 165.241 153.75C165.185 153.91 165.097 154.057 164.983 154.182C164.868 154.307 164.729 154.408 164.575 154.477C164.42 154.547 164.253 154.585 164.084 154.589C163.914 154.592 163.746 154.562 163.588 154.498C163.431 154.435 163.288 154.34 163.169 154.22C163.049 154.1 162.955 153.957 162.892 153.8C162.83 153.643 162.8 153.474 162.804 153.305C162.812 152.983 162.944 152.677 163.173 152.45C163.401 152.223 163.709 152.092 164.031 152.086C164.353 152.079 164.666 152.196 164.904 152.413C165.142 152.631 165.286 152.931 165.308 153.252ZM153.633 157.388C153.971 157.381 154.3 157.504 154.55 157.731C154.801 157.958 154.954 158.273 154.98 158.61C154.984 158.776 154.956 158.941 154.897 159.096C154.838 159.25 154.749 159.392 154.635 159.513C154.521 159.633 154.385 159.73 154.233 159.798C154.082 159.866 153.918 159.903 153.752 159.908C153.586 159.913 153.421 159.885 153.266 159.826C153.111 159.767 152.969 159.678 152.848 159.564C152.727 159.45 152.63 159.314 152.562 159.163C152.494 159.011 152.457 158.848 152.452 158.683C152.457 158.36 152.579 158.05 152.797 157.812C153.014 157.573 153.312 157.422 153.633 157.388ZM175.855 158.696C175.848 159.023 175.711 159.333 175.476 159.561C175.241 159.788 174.926 159.914 174.598 159.911C174.259 159.911 173.934 159.779 173.692 159.541C173.45 159.304 173.311 158.981 173.305 158.643C173.318 158.306 173.46 157.986 173.702 157.751C173.944 157.515 174.267 157.38 174.605 157.375C174.945 157.387 175.267 157.533 175.5 157.78C175.734 158.027 175.862 158.356 175.855 158.696ZM158.857 159.928C158.531 159.911 158.224 159.775 157.992 159.546C157.761 159.317 157.622 159.011 157.603 158.686C157.592 158.513 157.617 158.339 157.675 158.175C157.734 158.012 157.825 157.862 157.943 157.735C158.062 157.608 158.204 157.506 158.363 157.435C158.522 157.365 158.694 157.327 158.868 157.325C159.042 157.323 159.214 157.356 159.375 157.422C159.535 157.488 159.681 157.587 159.802 157.711C159.924 157.835 160.019 157.983 160.082 158.144C160.144 158.306 160.173 158.479 160.167 158.653C160.155 158.993 160.012 159.315 159.768 159.553C159.524 159.79 159.198 159.925 158.857 159.928ZM169.364 159.928C169.027 159.908 168.709 159.761 168.477 159.515C168.246 159.269 168.117 158.944 168.117 158.607C168.116 158.433 168.151 158.261 168.218 158.101C168.285 157.94 168.384 157.795 168.509 157.674C168.634 157.553 168.782 157.458 168.944 157.396C169.107 157.333 169.28 157.304 169.454 157.31C169.628 157.315 169.799 157.356 169.956 157.429C170.114 157.503 170.256 157.607 170.372 157.736C170.488 157.865 170.578 158.017 170.634 158.181C170.691 158.345 170.713 158.519 170.701 158.692C170.681 159.032 170.532 159.351 170.283 159.583C170.034 159.815 169.705 159.942 169.364 159.938L169.364 159.928ZM165.348 158.666C165.354 158.841 165.324 159.015 165.26 159.178C165.197 159.341 165.101 159.489 164.978 159.614C164.855 159.738 164.708 159.837 164.546 159.903C164.384 159.97 164.21 160.003 164.035 160C163.86 159.997 163.687 159.959 163.528 159.888C163.368 159.816 163.224 159.713 163.105 159.585C162.986 159.457 162.895 159.305 162.836 159.141C162.778 158.976 162.753 158.801 162.764 158.626C162.758 158.452 162.788 158.278 162.852 158.115C162.916 157.952 163.012 157.803 163.134 157.679C163.257 157.554 163.404 157.456 163.566 157.389C163.728 157.323 163.902 157.29 164.077 157.293C164.252 157.295 164.425 157.333 164.585 157.405C164.745 157.476 164.888 157.579 165.007 157.708C165.126 157.836 165.217 157.987 165.276 158.152C165.335 158.317 165.359 158.492 165.348 158.666Z" fill="#FBFBFB"/>
</g>
</g>
<defs>
<filter id="filter0_i_768_9527" x="0" y="0" width="181" height="160" filterUnits="userSpaceOnUse" color-interpolation-filters="sRGB">
<feFlood flood-opacity="0" result="BackgroundImageFix"/>
<feBlend mode="normal" in="SourceGraphic" in2="BackgroundImageFix" result="shape"/>
<feColorMatrix in="SourceAlpha" type="matrix" values="0 0 0 0 0 0 0 0 0 0 0 0 0 0 0 0 0 0 127 0" result="hardAlpha"/>
<feOffset/>
<feGaussianBlur stdDeviation="10"/>
<feComposite in2="hardAlpha" operator="arithmetic" k2="-1" k3="1"/>
<feColorMatrix type="matrix" values="0 0 0 0 0 0 0 0 0 0 0 0 0 0 0 0 0 0 0.32 0"/>
<feBlend mode="normal" in2="shape" result="effect1_innerShadow_768_9527"/>
</filter>
<clipPath id="clip0_768_9527">
<rect width="181" height="160" rx="24" fill="white"/>
</clipPath>
</defs>
</svg>
