<svg width="24" height="24" viewBox="0 0 24 24" fill="none" xmlns="http://www.w3.org/2000/svg">
<path d="M11.9999 7.99775C13.6534 7.99775 14.9988 6.65247 14.9988 4.99891C14.9988 3.34528 13.6534 2 11.9999 2C10.3463 2 9.00098 3.34528 9.00098 4.99891C9.00098 6.65247 10.3463 7.99775 11.9999 7.99775ZM11.9999 2.5515C13.3494 2.5515 14.4473 3.64938 14.4473 4.99891C14.4473 6.34837 13.3494 7.44625 11.9999 7.44625C10.6504 7.44625 9.55247 6.34837 9.55247 4.99891C9.55247 3.64938 10.6504 2.5515 11.9999 2.5515Z" fill="#BFBFBF" stroke="#BFBFBF" stroke-width="0.25"/>
<path d="M10.6468 5.28377H11.7244V6.36138C11.7244 6.51366 11.8479 6.63713 12.0001 6.63713C12.1524 6.63713 12.2759 6.51366 12.2759 6.36138V5.28377H13.3534C13.5057 5.28377 13.6292 5.1603 13.6292 5.00802C13.6292 4.85574 13.5057 4.73227 13.3534 4.73227H12.2759V3.65466C12.2759 3.50237 12.1524 3.37891 12.0001 3.37891C11.8479 3.37891 11.7244 3.50237 11.7244 3.65466V4.73227H10.6468C10.4946 4.73227 10.3711 4.85574 10.3711 5.00802C10.3711 5.1603 10.4946 5.28377 10.6468 5.28377Z" fill="#BFBFBF" stroke="#BFBFBF" stroke-width="0.25"/>
<path d="M23.2243 21.951H21.8885V11.1968C21.8885 10.5355 21.5208 9.9417 20.9287 9.64697L17.3194 7.85061V6.4448C17.3194 5.58988 16.6821 4.85325 15.8371 4.73141C15.6879 4.70953 15.5467 4.81421 15.5248 4.96494C15.5032 5.11568 15.6076 5.2555 15.7584 5.27724C16.3339 5.36025 16.7679 5.8622 16.7679 6.4448V21.951H14.6439C14.6442 21.9456 14.6455 21.9406 14.6455 21.9352V16.4178C14.6455 16.2655 14.522 16.142 14.3697 16.142H9.63029C9.47801 16.142 9.35454 16.2655 9.35454 16.4178V21.951H7.23215V6.4448C7.23215 5.86409 7.66449 5.3624 8.2378 5.27778C8.38847 5.25557 8.49255 5.1154 8.47032 4.96473C8.44811 4.81399 8.30632 4.71052 8.15728 4.73221C7.31548 4.85642 6.68064 5.59264 6.68064 6.4448V7.8506L3.07128 9.64695C2.47926 9.94169 2.11155 10.5355 2.11155 11.1968V21.951H0.775749C0.623467 21.951 0.5 22.0744 0.5 22.2267C0.5 22.379 0.623467 22.5025 0.775749 22.5025H6.9564H17.0436H23.2243C23.3765 22.5025 23.5 22.379 23.5 22.2267C23.5 22.0744 23.3765 21.951 23.2243 21.951ZM2.66305 11.1968C2.66305 10.7462 2.91362 10.3415 3.31714 10.1407L6.68066 8.46671V21.951H2.66305V11.1968ZM9.90604 16.6935H14.094V21.9352C14.094 21.9406 14.0953 21.9456 14.0956 21.951H9.90604V16.6935ZM17.3194 8.46671L20.6829 10.1407C21.0864 10.3415 21.337 10.7462 21.337 11.1968V21.951H17.3194V8.46671Z" fill="#BFBFBF" stroke="#BFBFBF" stroke-width="0.25"/>
<path d="M10.9281 18.7617C10.7758 18.7617 10.6523 18.8852 10.6523 19.0375V19.6096C10.6523 19.7619 10.7758 19.8854 10.9281 19.8854C11.0804 19.8854 11.2038 19.7619 11.2038 19.6096V19.0375C11.2038 18.8852 11.0804 18.7617 10.9281 18.7617Z" fill="#BFBFBF" stroke="#BFBFBF" stroke-width="0.25"/>
<path d="M14.3697 12.5957H9.63024C9.47796 12.5957 9.35449 12.7192 9.35449 12.8715V14.7948C9.35449 14.9471 9.47796 15.0706 9.63024 15.0706H14.3697C14.522 15.0706 14.6454 14.9471 14.6454 14.7948V12.8715C14.6454 12.7192 14.522 12.5957 14.3697 12.5957ZM9.90599 13.1472H11.7242V14.5191H9.90599V13.1472ZM14.0939 14.5191H12.2757V13.1472H14.0939V14.5191Z" fill="#BFBFBF" stroke="#BFBFBF" stroke-width="0.25"/>
<path d="M14.6454 9.81481C14.6454 9.66253 14.522 9.53906 14.3697 9.53906H9.63024C9.47796 9.53906 9.35449 9.66253 9.35449 9.81481V11.7382C9.35449 11.8905 9.47796 12.0139 9.63024 12.0139H14.3697C14.522 12.0139 14.6454 11.8905 14.6454 11.7382V9.81481ZM9.90599 10.0906H11.7242V11.4142C11.7242 11.4308 11.7263 11.4467 11.7291 11.4624H9.90599V10.0906ZM14.0939 11.4624H12.2709C12.2736 11.4467 12.2757 11.4307 12.2757 11.4142V10.0906H14.0939V11.4624Z" fill="#BFBFBF" stroke="#BFBFBF" stroke-width="0.25"/>
<path d="M20.0829 12.2246H18.5961C18.4438 12.2246 18.3203 12.3481 18.3203 12.5004V16.3705C18.3203 16.5228 18.4438 16.6462 18.5961 16.6462H20.0829C20.2352 16.6462 20.3587 16.5228 20.3587 16.3705V12.5004C20.3587 12.3481 20.2352 12.2246 20.0829 12.2246ZM19.8072 16.0947H18.8718V12.7761H19.8072V16.0947Z" fill="#BFBFBF" stroke="#BFBFBF" stroke-width="0.25"/>
<path d="M20.0829 17.5195H18.5961C18.4438 17.5195 18.3203 17.643 18.3203 17.7953V20.4354C18.3203 20.5877 18.4438 20.7112 18.5961 20.7112H20.0829C20.2352 20.7112 20.3587 20.5877 20.3587 20.4354V17.7953C20.3587 17.643 20.2352 17.5195 20.0829 17.5195ZM19.8072 20.1597H18.8718V18.071H19.8072V20.1597Z" fill="#BFBFBF" stroke="#BFBFBF" stroke-width="0.25"/>
<path d="M5.40518 12.2246H3.91833C3.76604 12.2246 3.64258 12.3481 3.64258 12.5004V16.3705C3.64258 16.5228 3.76604 16.6462 3.91833 16.6462H5.40518C5.55746 16.6462 5.68093 16.5228 5.68093 16.3705V12.5004C5.68093 12.3481 5.55746 12.2246 5.40518 12.2246ZM5.12943 16.0947H4.19406V12.7761H5.12943V16.0947Z" fill="#BFBFBF" stroke="#BFBFBF" stroke-width="0.25"/>
<path d="M5.40518 17.5195H3.91833C3.76604 17.5195 3.64258 17.643 3.64258 17.7953V20.4354C3.64258 20.5877 3.76604 20.7112 3.91833 20.7112H5.40518C5.55746 20.7112 5.68093 20.5877 5.68093 20.4354V17.7953C5.68093 17.643 5.55746 17.5195 5.40518 17.5195ZM5.12943 20.1597H4.19406V18.071H5.12943V20.1597Z" fill="#BFBFBF" stroke="#BFBFBF" stroke-width="0.25"/>
</svg>
