<svg width="168" height="190" viewBox="0 0 168 190" fill="none" xmlns="http://www.w3.org/2000/svg">
<g opacity="0.7">
<path d="M3.97667 208.542C4.07209 208.576 4.16752 208.62 4.26294 208.659C4.35402 208.334 4.17185 208.815 4.2586 208.49C24.496 133.105 106.651 62.8722 107.345 62.5642L106.409 60.4434C105.706 60.7556 22.5616 131.404 2.0336 207.887C1.95554 208.182 2.13769 207.67 2.05529 207.965C2.71454 208.125 3.36079 208.316 3.98101 208.542H3.97667Z" fill="#B5AEFF"/>
<path d="M187.405 22.877C187.405 22.877 185.267 44.8449 160.033 56.9501C119.61 76.3374 107.279 61.309 107.279 61.309L187.405 22.877Z" fill="#B5AEFF"/>
<path d="M187.405 22.8769C187.405 22.8769 169.094 10.7154 143.86 22.8206C103.437 42.2079 107.276 61.309 107.276 61.309L187.401 22.8769H187.405Z" fill="#CCC7FF"/>
<path d="M106.876 61.5C106.98 61.7212 107.245 61.8166 107.466 61.7125L187.591 23.2805C187.813 23.1764 187.908 22.9075 187.8 22.6863C187.696 22.4651 187.431 22.3697 187.21 22.4738L107.084 60.9058C106.863 61.0099 106.772 61.2788 106.876 61.5Z" fill="#F4FBFB"/>
<path d="M127.512 51.6025C127.529 51.6372 127.551 51.6675 127.573 51.6979C127.733 51.8844 128.011 51.9061 128.197 51.7499C128.895 51.1514 145.303 36.9384 145.529 25.4144C145.533 25.1715 145.338 24.9633 145.095 24.959C144.852 24.959 144.648 25.1498 144.644 25.397C144.427 36.5263 127.794 50.9258 127.625 51.0733C127.468 51.2078 127.429 51.429 127.512 51.6025Z" fill="#F4FBFB"/>
<path d="M151.545 40.0744C151.623 40.2392 151.792 40.3433 151.983 40.326C152.13 40.313 166.751 39.0986 170.394 46.7928C170.499 47.014 170.763 47.1094 170.984 47.0053C171.206 46.9012 171.297 46.6323 171.193 46.4111C167.28 38.1574 152.53 39.3805 151.901 39.4369C151.658 39.4586 151.48 39.6754 151.497 39.9226C151.502 39.9747 151.515 40.0267 151.541 40.0744H151.545Z" fill="#F4FBFB"/>
<path d="M148.661 122.269C148.661 122.269 134.613 139.223 106.985 134.955C62.7238 128.115 60.9238 108.715 60.9238 108.715L148.661 122.269Z" fill="#B5AEFF"/>
<path d="M148.661 122.269C148.661 122.269 140.316 101.854 112.688 97.5862C68.4272 90.7464 60.9238 108.715 60.9238 108.715L148.661 122.269Z" fill="#CCC7FF"/>
<path d="M60.4861 108.646C60.447 108.889 60.6162 109.119 60.8548 109.154L148.592 122.707C148.835 122.746 149.061 122.577 149.095 122.334C149.134 122.092 148.965 121.866 148.727 121.827L60.9892 108.273C60.7463 108.234 60.5208 108.403 60.4861 108.646Z" fill="#F4FBFB"/>
<path d="M83.0833 112.137C83.079 112.176 83.079 112.215 83.0833 112.254C83.1094 112.497 83.3306 112.675 83.5734 112.649C84.4843 112.549 105.997 110.081 112.624 100.674C112.763 100.474 112.719 100.197 112.52 100.053C112.32 99.9103 112.043 99.958 111.904 100.158C105.507 109.24 83.6992 111.734 83.4823 111.76C83.2785 111.781 83.1224 111.942 83.092 112.137H83.0833Z" fill="#F4FBFB"/>
<path d="M109.401 116.207C109.375 116.385 109.458 116.571 109.622 116.662C109.753 116.736 122.517 124.001 121.233 132.428C121.194 132.671 121.363 132.896 121.602 132.935C121.84 132.974 122.07 132.805 122.105 132.562C123.484 123.524 110.598 116.189 110.052 115.882C109.839 115.764 109.57 115.838 109.449 116.055C109.423 116.103 109.406 116.155 109.397 116.202L109.401 116.207Z" fill="#F4FBFB"/>
<path d="M59.4519 0.451172C59.4519 0.451172 80.3703 7.1088 86.9108 34.4506C97.3895 78.2564 80.2228 87.2821 80.2228 87.2821L59.4519 0.451172Z" fill="#B5AEFF"/>
<path d="M59.452 0.451172C59.452 0.451172 43.8337 15.9567 50.3786 43.2985C60.8573 87.1043 80.2272 87.2821 80.2272 87.2821L59.4563 0.451172H59.452Z" fill="#CCC7FF"/>
<path d="M80.3312 87.7104C80.5698 87.654 80.7172 87.4112 80.6565 87.1726L59.8856 0.341645C59.8293 0.103099 59.5907 -0.0443705 59.3521 0.0120132C59.1136 0.068397 58.9661 0.311277 59.0269 0.549823L79.7978 87.3808C79.8541 87.6193 80.0927 87.7668 80.3312 87.7104Z" fill="#F4FBFB"/>
<path d="M74.9798 65.3524C75.0145 65.3437 75.0535 65.3307 75.0882 65.309C75.305 65.1919 75.3831 64.9187 75.266 64.7061C74.8279 63.8951 64.41 44.8027 53.246 42.1917C53.0075 42.1353 52.7689 42.2828 52.7168 42.5257C52.6605 42.7642 52.8079 43.0027 53.0465 43.0591C63.8244 45.5747 74.3812 64.936 74.4853 65.1312C74.5851 65.3134 74.7889 65.3958 74.9798 65.3524Z" fill="#F4FBFB"/>
<path d="M68.7514 39.3078C68.9249 39.2645 69.0637 39.117 69.0854 38.9262C69.1027 38.7787 70.9504 24.1363 79.1911 22.1412C79.4296 22.0848 79.5771 21.8419 79.5163 21.6034C79.46 21.3648 79.2214 21.2173 78.9829 21.2737C70.148 23.412 68.283 38.1888 68.2093 38.8177C68.1789 39.0606 68.3524 39.2818 68.5953 39.3122C68.6473 39.3209 68.7037 39.3122 68.7514 39.3035V39.3078Z" fill="#F4FBFB"/>
<path d="M16.2031 71.7719C16.2031 71.7719 35.7206 81.8516 37.6333 109.909C40.691 154.86 22.2709 160.871 22.2709 160.871L16.2075 71.7676L16.2031 71.7719Z" fill="#B5AEFF"/>
<path d="M16.2032 71.7715C16.2032 71.7715 -1.7702 84.4318 0.142508 112.494C3.20024 157.444 22.2709 160.875 22.2709 160.875L16.2075 71.7715H16.2032Z" fill="#CCC7FF"/>
<path d="M22.2971 161.318C22.5399 161.301 22.7265 161.088 22.7091 160.841L16.6457 71.7374C16.6283 71.4902 16.4158 71.308 16.1729 71.3254C15.93 71.3427 15.7435 71.5552 15.7609 71.7981L21.8243 160.902C21.8417 161.149 22.0542 161.331 22.2971 161.314V161.318Z" fill="#F4FBFB"/>
<path d="M20.7351 138.373C20.7741 138.373 20.8088 138.365 20.8478 138.351C21.0777 138.273 21.2035 138.018 21.1254 137.788C20.8261 136.916 13.7262 116.336 3.15203 111.89C2.9265 111.795 2.66625 111.903 2.57084 112.129C2.47542 112.354 2.58384 112.614 2.80938 112.71C13.0192 117.004 20.2146 137.861 20.284 138.074C20.3491 138.269 20.5399 138.386 20.7351 138.373Z" fill="#F4FBFB"/>
<path d="M18.918 111.649C19.0958 111.636 19.2563 111.514 19.3127 111.332C19.3561 111.189 23.6065 97.0628 32.0597 96.4816C32.3026 96.4643 32.4891 96.2518 32.4718 96.0089C32.4544 95.7617 32.2419 95.5795 31.999 95.5968C22.9343 96.2214 18.6404 110.478 18.4626 111.085C18.3932 111.319 18.5277 111.566 18.7619 111.64C18.8139 111.658 18.866 111.662 18.918 111.658V111.649Z" fill="#F4FBFB"/>
</g>
</svg>
