<svg width="230" height="228" viewBox="0 0 230 228" fill="none" xmlns="http://www.w3.org/2000/svg">
<path opacity="0.33" d="M55.1088 173.263C60.0909 172.298 64.9288 170.783 69.2022 168.098C75.8738 163.9 80.544 157.246 86.1296 151.684C96.49 141.368 107.341 143.315 120.664 142.232C134.185 141.136 148.05 143.038 159.901 149.99C175.313 159.034 185.868 175.436 202.323 182.399C213.43 187.101 226.706 187.239 235.995 194.936C249.271 205.932 248.03 226.291 245.605 243.362C244.07 254.179 241.292 266.739 231.348 271.268C224.429 274.419 216.376 272.435 209.05 270.407C147.832 253.463 86.6094 236.523 25.3917 219.579C14.7777 216.641 3.20905 204.507 7.71727 192.638C10.4403 185.465 17.3331 180.566 24.6025 178.114C31.8718 175.661 39.6453 175.247 47.2706 174.404C49.8837 174.116 52.5133 173.765 55.1088 173.263Z" fill="#A69EFF"/>
<g opacity="0.5">
<path d="M207.598 41.1632C207.598 41.1632 239.145 57.5434 242.024 102.742C246.636 175.15 216.74 184.689 216.74 184.689L207.598 41.1632Z" fill="#FFABC2"/>
<path d="M207.598 41.1634C207.598 41.1634 178.386 61.4131 181.266 106.612C185.878 179.019 216.744 184.69 216.744 184.69L207.602 41.1646L207.598 41.1634Z" fill="url(#paint0_linear_768_7222)"/>
<path d="M216.784 185.404C217.181 185.379 217.478 185.035 217.456 184.643L208.314 41.1174C208.289 40.7197 207.945 40.4232 207.553 40.4453C207.155 40.4706 206.86 40.8096 206.881 41.2062L216.022 184.736C216.047 185.134 216.386 185.429 216.783 185.408L216.784 185.404Z" fill="#F4FBFB"/>
<path d="M214.429 148.444C214.489 148.442 214.552 148.427 214.612 148.407C214.987 148.28 215.192 147.871 215.065 147.496C214.588 146.087 203.241 112.896 186.145 105.656C185.781 105.504 185.358 105.673 185.206 106.037C185.054 106.401 185.223 106.823 185.587 106.975C202.091 113.965 213.588 147.614 213.703 147.949C213.809 148.264 214.113 148.455 214.427 148.434L214.429 148.444Z" fill="#F4FBFB"/>
<path d="M211.687 105.394C211.978 105.376 212.24 105.178 212.328 104.884C212.398 104.657 219.398 81.9419 233.095 81.071C233.492 81.0458 233.789 80.7025 233.767 80.3102C233.742 79.9125 233.398 79.616 233.006 79.6382C218.314 80.5743 211.25 103.495 210.957 104.471C210.842 104.849 211.058 105.248 211.436 105.363C211.521 105.385 211.604 105.399 211.687 105.394Z" fill="#F4FBFB"/>
</g>
<g opacity="0.5">
<path d="M150.144 109.353C150.144 109.353 181.257 109.34 201.743 143.284C234.555 197.657 215.191 217.136 215.191 217.136L150.149 109.355L150.144 109.353Z" fill="#B5AEFF"/>
<path d="M150.145 109.354C150.145 109.354 135.63 136.873 156.113 170.816C188.925 225.189 215.187 217.135 215.187 217.135L150.145 109.354Z" fill="url(#paint1_linear_768_7222)"/>
<path d="M215.511 217.673C215.809 217.494 215.903 217.11 215.723 216.812L150.681 109.03C150.502 108.732 150.118 108.638 149.82 108.817C149.522 108.997 149.428 109.381 149.608 109.679L214.65 217.46C214.829 217.758 215.213 217.852 215.511 217.673Z" fill="#F4FBFB"/>
<path d="M198.762 189.915C198.806 189.886 198.851 189.853 198.889 189.813C199.129 189.564 199.121 189.166 198.873 188.922C197.933 188.02 175.722 166.824 159.521 168.101C159.178 168.127 158.915 168.429 158.944 168.778C158.974 169.123 159.274 169.38 159.621 169.355C175.265 168.124 197.774 189.614 198.003 189.83C198.212 190.032 198.528 190.057 198.762 189.915Z" fill="#F4FBFB"/>
<path d="M179.252 157.588C179.469 157.456 179.593 157.198 179.545 156.935C179.505 156.729 175.774 136.266 186.061 130.054C186.359 129.875 186.453 129.491 186.274 129.193C186.095 128.895 185.711 128.801 185.413 128.98C174.379 135.637 178.145 156.292 178.314 157.169C178.378 157.509 178.708 157.734 179.048 157.67C179.124 157.659 179.191 157.627 179.256 157.589L179.252 157.588Z" fill="#F4FBFB"/>
</g>
<path d="M149.541 176.886C149.541 176.886 143.552 205.668 171.014 231.135C215.009 271.932 236.748 257.757 236.748 257.757L149.536 176.889L149.541 176.886Z" fill="#FFC5D8"/>
<path d="M149.541 176.886C149.541 176.886 177.786 168.746 205.252 194.214C249.247 235.011 236.752 257.758 236.752 257.758L149.54 176.891L149.541 176.886Z" fill="#FFC5D8"/>
<path d="M237.191 258.158C236.967 258.399 236.591 258.411 236.351 258.188L149.138 177.32C148.898 177.097 148.886 176.721 149.109 176.48C149.332 176.24 149.709 176.227 149.949 176.451L237.161 257.319C237.401 257.542 237.414 257.918 237.191 258.158Z" fill="#F4FBFB"/>
<path d="M214.73 237.332C214.698 237.368 214.657 237.403 214.612 237.432C214.334 237.607 213.97 237.523 213.794 237.245C213.142 236.202 197.801 211.587 202.093 196.841C202.186 196.53 202.513 196.345 202.829 196.439C203.144 196.532 203.325 196.858 203.232 197.174C199.086 211.408 214.641 236.358 214.801 236.61C214.947 236.844 214.913 237.14 214.736 237.329L214.73 237.332Z" fill="#F4FBFB"/>
<path d="M188.57 213.076C188.404 213.255 188.147 213.317 187.909 213.222C187.725 213.145 169.511 205.765 161.791 214.087C161.567 214.327 161.191 214.34 160.951 214.117C160.711 213.893 160.698 213.517 160.921 213.277C169.2 204.35 187.585 211.799 188.363 212.121C188.665 212.247 188.808 212.595 188.682 212.897C188.655 212.963 188.616 213.025 188.57 213.076Z" fill="#F4FBFB"/>
<defs>
<linearGradient id="paint0_linear_768_7222" x1="212.274" y1="112.932" x2="181.892" y2="114.87" gradientUnits="userSpaceOnUse">
<stop stop-color="#FF8FC0"/>
<stop offset="1" stop-color="#FFABC2"/>
</linearGradient>
<linearGradient id="paint1_linear_768_7222" x1="182.639" y1="163.201" x2="159.825" y2="176.968" gradientUnits="userSpaceOnUse">
<stop offset="0.04" stop-color="#9086FF"/>
<stop offset="1" stop-color="#9D68C2"/>
</linearGradient>
</defs>
</svg>
