<svg width="240" height="221" viewBox="0 0 240 221" fill="none" xmlns="http://www.w3.org/2000/svg">
<path d="M219.969 21.4379C218.637 21.4379 217.336 21.0441 216.228 20.3062C215.121 19.5683 214.258 18.5196 213.748 17.2926C213.238 16.0656 213.105 14.7154 213.365 13.4128C213.625 12.1102 214.266 10.9137 215.208 9.9746C216.149 9.03549 217.349 8.39593 218.656 8.13683C219.962 7.87773 221.316 8.01076 222.546 8.519C223.777 9.02725 224.828 9.88787 225.568 10.9922C226.308 12.0964 226.703 13.3948 226.703 14.7229C226.701 16.5032 225.991 18.2101 224.729 19.469C223.466 20.7279 221.755 21.436 219.969 21.4379ZM219.969 9.16251C218.867 9.16251 217.79 9.48848 216.873 10.0991C215.957 10.7097 215.243 11.5776 214.821 12.5931C214.399 13.6085 214.289 14.7259 214.504 15.8039C214.719 16.8819 215.249 17.8721 216.029 18.6493C216.808 19.4265 217.801 19.9557 218.882 20.1701C219.963 20.3846 221.084 20.2746 222.102 19.8539C223.12 19.4333 223.99 18.721 224.603 17.8071C225.215 16.8933 225.542 15.8189 225.542 14.7198C225.54 13.2464 224.953 11.8338 223.908 10.792C222.863 9.7502 221.447 9.16416 219.969 9.16251Z" fill="#FFB7CE"/>
<path d="M32.1006 41.8545C32.2134 42.4633 32.1427 43.0918 31.8972 43.6604C31.6518 44.2291 31.2427 44.7124 30.7217 45.0492C30.2007 45.3859 29.5912 45.5609 28.9705 45.5522C28.3497 45.5434 27.7455 45.3512 27.2343 44.9999C26.7231 44.6486 26.3279 44.154 26.0987 43.5786C25.8694 43.0033 25.8165 42.373 25.9466 41.7677C26.0767 41.1623 26.3839 40.609 26.8294 40.1778C27.2749 39.7466 27.8387 39.4569 28.4494 39.3454C29.2672 39.1957 30.1111 39.3758 30.7957 39.8463C31.4804 40.3168 31.9497 41.0391 32.1006 41.8545Z" fill="#FFB7CE"/>
<path d="M15.3868 70.4601C13.7707 70.4983 12.2025 69.9114 11.0106 68.8225C9.81862 67.7336 9.09536 66.227 8.99225 64.6183C8.88914 63.0096 9.41416 61.4235 10.4574 60.1921C11.5006 58.9608 12.9811 58.1796 14.5889 58.0123C16.1967 57.8449 17.807 58.3043 19.0828 59.2943C20.3585 60.2843 21.2007 61.7281 21.433 63.3234C21.6653 64.9187 21.2696 66.5416 20.3289 67.8526C19.3881 69.1635 17.9753 70.0606 16.3861 70.3561C16.0564 70.4177 15.7222 70.4525 15.3868 70.4601ZM15.1374 59.1616C14.4018 59.1791 13.6787 59.3554 13.018 59.6785C12.3572 60.0015 11.7747 60.4636 11.3104 61.0329C10.8461 61.6022 10.5111 62.2652 10.3286 62.9761C10.1461 63.687 10.1203 64.4288 10.2531 65.1505C10.4293 66.1028 10.8753 66.9849 11.5383 67.6924C12.2014 68.4 13.0537 68.9034 13.9946 69.1431C14.9354 69.3829 15.9254 69.349 16.8476 69.0454C17.7697 68.7417 18.5853 68.1811 19.1981 67.4298C19.8108 66.6785 20.1949 65.768 20.3051 64.8059C20.4153 63.8437 20.2468 62.8703 19.8197 62.0006C19.3926 61.1309 18.7247 60.4014 17.8949 59.8983C17.0652 59.3952 16.1083 59.1396 15.1374 59.1616Z" fill="#FFB7CE"/>
<path d="M234.88 205.422C234.9 206.339 234.646 207.241 234.149 208.014C233.653 208.786 232.937 209.393 232.093 209.758C231.25 210.123 230.316 210.229 229.411 210.062C228.507 209.895 227.673 209.464 227.015 208.822C226.358 208.181 225.907 207.359 225.72 206.461C225.533 205.563 225.619 204.63 225.966 203.78C226.313 202.931 226.907 202.204 227.67 201.692C228.433 201.181 229.332 200.908 230.252 200.907C231.466 200.894 232.636 201.363 233.503 202.209C234.371 203.056 234.866 204.212 234.88 205.422Z" fill="#FFB7CE"/>
<path d="M39.8774 206.88C39.1759 206.88 38.4902 206.672 37.9069 206.284C37.3236 205.895 36.869 205.343 36.6006 204.696C36.3321 204.05 36.2619 203.339 36.3987 202.653C36.5356 201.966 36.8734 201.336 37.3694 200.842C37.8654 200.347 38.4975 200.01 39.1855 199.874C39.8736 199.737 40.5867 199.807 41.2348 200.075C41.8829 200.343 42.4369 200.796 42.8266 201.378C43.2163 201.959 43.4244 202.643 43.4244 203.343C43.4244 204.281 43.0507 205.18 42.3855 205.844C41.7203 206.507 40.8181 206.88 39.8774 206.88ZM39.8774 200.742C39.3602 200.742 38.8545 200.895 38.4244 201.182C37.9944 201.468 37.6592 201.875 37.4612 202.352C37.2633 202.828 37.2115 203.353 37.3124 203.859C37.4133 204.365 37.6624 204.829 38.0282 205.194C38.3939 205.559 38.8599 205.807 39.3672 205.908C39.8746 206.008 40.4004 205.957 40.8783 205.759C41.3562 205.562 41.7647 205.228 42.052 204.799C42.3394 204.37 42.4928 203.866 42.4928 203.35C42.4931 202.658 42.2177 201.994 41.7273 201.504C41.2369 201.014 40.5715 200.739 39.8774 200.738V200.742Z" fill="#FFB7CE"/>
<path opacity="0.27" d="M61.3059 55.2014C45.566 67.0242 32.3831 81.3489 27.5176 98.729C21.3846 120.635 28.6056 144.43 42.8099 162.186C69.0621 195.01 119.615 207.495 160.025 191.133C200.815 174.62 224.287 130.546 229.575 90.3558C231.756 73.783 229.38 56.2563 219.927 42.433C208.483 25.6969 187.636 16.198 166.632 14.8758C145.628 13.5536 124.549 19.6611 105.69 29.0122C91.612 35.9967 75.4298 44.5926 61.3059 55.2014Z" fill="#FFC5D8"/>
<path d="M186.539 186.846L101.709 205.793C101.189 205.92 100.65 205.942 100.122 205.861C99.5933 205.779 99.0864 205.594 98.6298 205.317C98.1731 205.039 97.7758 204.675 97.4605 204.245C97.1451 203.814 96.9179 203.326 96.7919 202.808L56.5659 23.6124L145.44 3.76172L186.539 186.846Z" fill="white"/>
<path d="M91.5343 197.085C92.4438 200.814 94.8009 204.029 98.0873 206.026C101.374 208.022 105.32 208.636 109.06 207.731L177.875 192.361C187.48 189.574 191.299 182.686 189.178 175.275L152.525 11.9798C151.615 8.2514 149.258 5.03575 145.972 3.03962C142.686 1.04349 138.739 0.430216 134.999 1.33458L66.1813 16.6996C62.4112 17.4721 59.1029 19.7057 56.9835 22.9094C54.864 26.1132 54.1068 30.025 54.8782 33.7852M56.7842 33.2204C56.1236 30.001 56.772 26.6518 58.5867 23.9089C60.4015 21.1661 63.234 19.254 66.462 18.5929L135.276 3.2227C138.478 2.44781 141.857 2.97255 144.671 4.6816C147.485 6.39065 149.504 9.1441 150.282 12.3366L186.94 175.63C187.6 178.85 186.952 182.199 185.137 184.942C183.322 187.684 180.49 189.597 177.262 190.258L108.448 205.628C105.246 206.403 101.866 205.878 99.0521 204.169C96.238 202.46 94.2198 199.706 93.4412 196.514" fill="#9086FF"/>
<path d="M57.4246 45.1406L57.2932 45.1697C57.0502 45.2198 56.837 45.3639 56.7002 45.5704C56.5633 45.7768 56.5139 46.0289 56.5629 46.2715L57.7845 51.711C57.844 51.9508 57.9962 52.1574 58.2078 52.2859C58.4194 52.4143 58.6734 52.4541 58.9143 52.3966L59.0457 52.3675L57.4246 45.1406Z" fill="#498CD4"/>
<path d="M164.163 63.8015C164.301 63.7738 164.432 63.7193 164.548 63.6411C164.665 63.5629 164.765 63.4626 164.842 63.3459C164.92 63.2291 164.973 63.0983 165 62.9608C165.027 62.8234 165.026 62.682 164.998 62.5448L160.464 42.3466C160.431 42.2109 160.371 42.0829 160.289 41.9701C160.206 41.8573 160.102 41.7619 159.982 41.6892C159.862 41.6166 159.729 41.5682 159.591 41.5467C159.452 41.5253 159.311 41.5313 159.175 41.5644L164.163 63.8015Z" fill="#498CD4"/>
<path d="M60.5465 59.0527C60.4089 59.0805 60.2782 59.1352 60.1618 59.2134C60.0454 59.2916 59.9455 59.3919 59.868 59.5086C59.7905 59.6253 59.7369 59.7561 59.7101 59.8935C59.6833 60.0309 59.6839 60.1722 59.7119 60.3094L62.2897 71.7942C62.3567 72.0685 62.5301 72.305 62.7718 72.4519C63.0136 72.5987 63.3039 72.6439 63.5791 72.5775L60.5465 59.0527Z" fill="#498CD4"/>
<path d="M64.4432 76.4121C64.3056 76.4398 64.1747 76.4943 64.0582 76.5725C63.9418 76.6507 63.8419 76.751 63.7643 76.8677C63.6868 76.9845 63.6332 77.1153 63.6064 77.2528C63.5797 77.3902 63.5804 77.5316 63.6086 77.6688L66.1864 89.1536C66.2534 89.4279 66.4268 89.6644 66.6685 89.8112C66.9103 89.9581 67.2006 90.0033 67.4758 89.9368L64.4432 76.4121Z" fill="#498CD4"/>
<path d="M93.4299 196.521C93.8023 198.11 94.4883 199.609 95.4478 200.93C96.4073 202.251 97.6211 203.368 99.0184 204.217C100.416 205.065 101.968 205.627 103.586 205.871C105.204 206.114 106.854 206.034 108.44 205.634L177.269 190.26C180.497 189.599 183.33 187.687 185.146 184.944C186.961 182.202 187.61 178.852 186.95 175.633L150.293 12.339C149.514 9.14618 147.495 6.39263 144.68 4.68376C141.865 2.97488 138.486 2.45059 135.283 3.22616L66.4538 18.5995C63.2256 19.2604 60.3925 21.1722 58.5772 23.915C56.7619 26.6578 56.113 30.0072 56.7729 33.2269M183.835 175.987C184.304 178.342 183.851 180.787 182.568 182.819C181.285 184.85 179.27 186.315 176.937 186.91L107.578 202.402C105.253 202.869 102.836 202.413 100.843 201.13C98.8501 199.848 97.4372 197.841 96.9049 195.536L60.0881 31.5407C59.0449 26.8947 62.6961 22.7929 67.5272 21.7131L75.4555 19.9446V19.9321L129.96 7.76074V7.77325L136.415 6.3314C138.709 5.7887 141.124 6.16605 143.141 7.38216C145.159 8.59827 146.616 10.5558 147.2 12.8332L183.835 175.987Z" fill="#9086FF"/>
<path d="M144.26 139.368C154.845 128.813 154.845 111.699 144.26 101.144C133.675 90.5883 116.513 90.5883 105.928 101.144C95.343 111.699 95.343 128.813 105.928 139.368C116.513 149.923 133.675 149.923 144.26 139.368Z" fill="#FFC5D8"/>
<path d="M140.391 107.451L135.697 104.593C135.676 104.58 134.818 106.071 134.806 106.091L122.692 126.229C122.689 126.234 122.685 126.238 122.681 126.241C122.677 126.245 122.671 126.247 122.666 126.249C122.66 126.25 122.655 126.25 122.649 126.249C122.644 126.248 122.638 126.246 122.634 126.243L110.58 119.034C110.576 119.031 110.57 119.029 110.565 119.028C110.559 119.027 110.553 119.028 110.548 119.029C110.543 119.03 110.537 119.033 110.533 119.036C110.529 119.04 110.525 119.044 110.522 119.049L107.771 123.621C107.768 123.625 107.766 123.631 107.766 123.636C107.765 123.642 107.765 123.647 107.766 123.652C107.768 123.658 107.77 123.663 107.773 123.667C107.777 123.672 107.781 123.675 107.786 123.678L119.875 130.909C119.87 130.919 119.868 130.93 119.871 130.941C119.873 130.952 119.88 130.961 119.89 130.967L124.48 133.709C124.485 133.712 124.49 133.714 124.496 133.715C124.501 133.716 124.507 133.716 124.512 133.715C124.518 133.713 124.523 133.711 124.527 133.707C124.532 133.704 124.536 133.7 124.538 133.695L124.575 133.717L127.348 129.108C127.353 129.099 127.355 129.087 127.353 129.076C127.35 129.066 127.344 129.056 127.334 129.05L139.467 108.88C139.476 108.857 140.412 107.463 140.391 107.451Z" fill="#E1ECF7"/>
<path d="M146.215 75.7118L87.598 88.6851C84.9489 89.2714 82.1749 88.7844 79.886 87.3312C77.597 85.8779 75.9807 83.5776 75.3925 80.936C74.8046 78.2944 75.293 75.5281 76.7503 73.2455C78.2076 70.963 80.5144 69.3512 83.1633 68.7646L141.78 55.7903C144.429 55.204 147.203 55.691 149.492 57.1442C151.781 58.5974 153.397 60.8978 153.985 63.5393C154.277 64.8474 154.307 66.2 154.074 67.5196C153.841 68.8393 153.35 70.1004 152.628 71.2307C151.907 72.3611 150.969 73.3385 149.869 74.1074C148.768 74.8763 147.526 75.4215 146.215 75.7118Z" fill="#E1ECF7"/>
<path d="M88.5149 81.5836C88.2144 82.0166 87.759 82.3186 87.2422 82.4273C87.0331 82.4738 86.8164 82.4733 86.6074 82.426C86.3985 82.3787 86.2027 82.2856 86.0343 82.1536C85.6724 81.9065 85.4178 81.5319 85.3218 81.1051C85.255 80.658 85.3625 80.2023 85.6222 79.8318C86.251 79.0885 87.0535 78.5107 87.9589 78.1496C86.99 78.1717 86.0282 77.98 85.1423 77.5879C84.9446 77.4839 84.7695 77.3417 84.6275 77.1695C84.4855 76.9973 84.3792 76.7986 84.315 76.5851C84.2221 76.1585 84.2941 75.7127 84.5164 75.3367C84.6132 75.1461 84.751 74.9794 84.9203 74.8484C85.0895 74.7174 85.2858 74.6256 85.495 74.5794C86.0056 74.4598 86.5425 74.5339 87.0013 74.7874C87.4756 75.0434 88.0542 75.3311 88.7371 75.6508C88.5779 75.1876 88.4162 74.7715 88.2521 74.4025C88.1045 74.0865 87.9892 73.7565 87.9079 73.4174C87.7828 72.9566 87.8291 72.4662 88.0383 72.0369C88.1458 71.8386 88.2974 71.6675 88.4814 71.5366C88.6655 71.4057 88.8772 71.3185 89.1002 71.2817C89.3252 71.2183 89.5612 71.2041 89.7922 71.24C90.0232 71.2759 90.2438 71.3611 90.4387 71.4897C90.8205 71.7736 91.0781 72.1929 91.1585 72.661C91.2367 73.0308 91.2647 73.4094 91.2419 73.7867C91.2225 74.2189 91.2491 74.6521 91.3212 75.0788C91.8185 74.4421 92.2374 73.9195 92.5782 73.511C92.8868 73.1222 93.3193 72.8503 93.804 72.7401C94.0132 72.6938 94.23 72.6944 94.4389 72.7417C94.6478 72.789 94.8435 72.8819 95.012 73.0138C95.3733 73.2615 95.6277 73.6359 95.7245 74.0623C95.7555 74.285 95.741 74.5115 95.6819 74.7284C95.6227 74.9453 95.5202 75.148 95.3803 75.3242C94.734 76.0516 93.9386 76.632 93.0477 77.0261C94.0206 76.9842 94.99 77.1687 95.879 77.5651C96.0826 77.6593 96.2635 77.7961 96.4094 77.9662C96.5553 78.1364 96.6627 78.3359 96.7244 78.5511C96.7862 78.7663 96.8008 78.9923 96.7672 79.2136C96.7337 79.4349 96.6528 79.6464 96.53 79.8338C96.4333 80.0245 96.2954 80.1914 96.1262 80.3223C95.9569 80.4533 95.7606 80.5451 95.5515 80.5912C95.0622 80.6953 94.5516 80.6242 94.1097 80.3904C93.6228 80.1511 93.0199 79.8477 92.3007 79.4802C92.4167 79.8973 92.5765 80.3011 92.7775 80.6848C92.9581 81.0169 93.0932 81.3717 93.1792 81.7397C93.3046 82.204 93.2509 82.6984 93.0289 83.1253C92.9104 83.3281 92.7483 83.5022 92.5542 83.6349C92.3601 83.7677 92.1389 83.8558 91.9065 83.893C91.6887 83.954 91.4599 83.9645 91.2374 83.9236C91.015 83.8827 90.8049 83.7914 90.6234 83.6569C90.2514 83.3561 90.0012 82.9311 89.9192 82.4606C89.8442 82.1061 89.8058 81.745 89.8044 81.3828C89.7989 80.982 89.7692 80.5378 89.7157 80.0502C89.233 80.6279 88.8328 81.139 88.5149 81.5836Z" fill="#9086FF"/>
<path d="M104.617 78.0213C104.317 78.4545 103.862 78.7563 103.345 78.8648C103.136 78.9113 102.919 78.911 102.71 78.8637C102.501 78.8164 102.305 78.7233 102.137 78.5913C101.775 78.3441 101.52 77.9694 101.424 77.5426C101.357 77.0955 101.465 76.6399 101.725 76.2693C102.353 75.526 103.156 74.9484 104.061 74.5872C103.092 74.6091 102.131 74.4169 101.245 74.0244C101.047 73.9204 100.872 73.7782 100.73 73.606C100.588 73.4338 100.482 73.2352 100.418 73.0216C100.325 72.5951 100.397 72.1493 100.619 71.7733C100.716 71.5827 100.853 71.4159 101.023 71.2849C101.192 71.154 101.388 71.0621 101.597 71.016C102.108 70.8962 102.645 70.9703 103.104 71.224C103.578 71.4799 104.157 71.7678 104.84 72.0875C104.68 71.6235 104.519 71.2073 104.355 70.8391C104.207 70.5231 104.091 70.193 104.01 69.8539C103.885 69.3931 103.932 68.9029 104.141 68.4735C104.248 68.2752 104.4 68.1039 104.584 67.973C104.769 67.8421 104.98 67.7549 105.204 67.7182C105.429 67.6549 105.665 67.6407 105.896 67.6766C106.127 67.7125 106.347 67.7977 106.542 67.9263C106.924 68.2102 107.182 68.6296 107.262 69.0977C107.34 69.4674 107.368 69.8459 107.345 70.2232C107.326 70.6558 107.352 71.0893 107.425 71.5163C107.922 70.8796 108.341 70.3571 108.682 69.9486C108.991 69.5601 109.423 69.2882 109.907 69.1778C110.117 69.1315 110.333 69.1319 110.542 69.1792C110.751 69.2265 110.947 69.3195 111.115 69.4513C111.477 69.6992 111.731 70.0736 111.828 70.5C111.859 70.7227 111.844 70.9493 111.785 71.1662C111.726 71.3831 111.623 71.5856 111.483 71.7618C110.837 72.4892 110.041 73.0698 109.15 73.4638C110.123 73.4218 111.092 73.6062 111.981 74.0026C112.185 74.0969 112.366 74.2337 112.512 74.4039C112.658 74.574 112.765 74.7734 112.827 74.9887C112.889 75.2039 112.903 75.4298 112.87 75.6512C112.836 75.8725 112.755 76.0841 112.632 76.2715C112.536 76.4622 112.398 76.629 112.229 76.76C112.059 76.891 111.863 76.9828 111.654 77.0288C111.165 77.1331 110.654 77.0619 110.212 76.8279C109.725 76.5887 109.122 76.2853 108.403 75.9177C108.519 76.3349 108.679 76.7388 108.88 77.1224C109.06 77.455 109.195 77.8101 109.282 78.1783C109.407 78.6428 109.353 79.1371 109.13 79.5639C109.012 79.7666 108.85 79.9407 108.656 80.0735C108.462 80.2063 108.241 80.2944 108.009 80.3317C107.791 80.3927 107.562 80.4031 107.34 80.3621C107.117 80.3212 106.907 80.2301 106.726 80.0956C106.354 79.7944 106.104 79.3696 106.022 78.8992C105.947 78.5448 105.908 78.1837 105.907 77.8215C105.901 77.4206 105.872 76.9764 105.819 76.4889C105.336 77.0659 104.935 77.5767 104.617 78.0213Z" fill="#9086FF"/>
<path d="M120.72 74.4557C120.42 74.8888 119.965 75.1907 119.448 75.2994C119.239 75.3459 119.022 75.3454 118.813 75.2981C118.604 75.2508 118.408 75.1577 118.24 75.0257C117.878 74.7787 117.623 74.404 117.527 73.9772C117.46 73.53 117.568 73.0744 117.828 72.7039C118.456 71.9605 119.259 71.3828 120.164 71.0216C119.195 71.0443 118.234 70.8526 117.348 70.46C117.15 70.356 116.975 70.2137 116.833 70.0416C116.69 69.8694 116.584 69.6707 116.52 69.4572C116.427 69.0306 116.499 68.5848 116.721 68.2087C116.817 68.0181 116.955 67.8514 117.125 67.7205C117.294 67.5895 117.49 67.4975 117.699 67.4514C118.21 67.3317 118.747 67.406 119.206 67.6595C119.68 67.9154 120.259 68.2032 120.942 68.5229C120.782 68.0589 120.621 67.6429 120.457 67.2746C120.309 66.9586 120.193 66.6286 120.112 66.2894C119.987 65.8287 120.033 65.3383 120.243 64.909C120.35 64.7105 120.502 64.5393 120.686 64.4084C120.871 64.2775 121.082 64.1903 121.306 64.1538C121.53 64.0904 121.766 64.0762 121.997 64.1121C122.228 64.148 122.448 64.2332 122.643 64.3618C123.025 64.6457 123.282 65.065 123.363 65.5331C123.441 65.9029 123.469 66.2815 123.446 66.6587C123.427 67.0913 123.454 67.5248 123.526 67.9518C124.023 67.3152 124.442 66.7925 124.783 66.384C125.092 65.9952 125.524 65.7233 126.01 65.6132C126.219 65.5671 126.435 65.5677 126.644 65.615C126.853 65.6623 127.049 65.7552 127.217 65.8869C127.579 66.1347 127.833 66.509 127.93 66.9354C127.961 67.158 127.946 67.3846 127.887 67.6015C127.828 67.8184 127.726 68.021 127.586 68.1973C126.939 68.925 126.143 69.5054 125.252 69.8992C126.225 69.8569 127.194 70.0411 128.083 70.4371C128.287 70.5314 128.468 70.6681 128.614 70.8383C128.76 71.0084 128.867 71.208 128.929 71.4232C128.99 71.6384 129.005 71.8643 128.972 72.0857C128.938 72.307 128.857 72.5185 128.734 72.7059C128.638 72.8964 128.5 73.0632 128.33 73.1942C128.161 73.3251 127.965 73.417 127.756 73.4632C127.267 73.5675 126.756 73.4964 126.314 73.2625C125.827 73.0232 125.224 72.7198 124.505 72.3522C124.621 72.7695 124.78 73.1733 124.982 73.5568C125.163 73.8892 125.298 74.2444 125.383 74.6127C125.509 75.0771 125.455 75.5714 125.233 75.9984C125.115 76.2013 124.953 76.3755 124.759 76.5084C124.565 76.6413 124.344 76.7298 124.112 76.7672C123.894 76.8282 123.665 76.8386 123.443 76.7977C123.22 76.7568 123.01 76.6655 122.829 76.531C122.457 76.2297 122.207 75.8049 122.124 75.3347C122.05 74.9802 122.011 74.6192 122.01 74.257C122.004 73.8562 121.975 73.412 121.922 72.9244C121.44 73.5007 121.039 74.0111 120.72 74.4557Z" fill="#9086FF"/>
<path d="M136.822 70.8922C136.522 71.3253 136.066 71.6271 135.549 71.7358C135.34 71.7823 135.123 71.782 134.914 71.7347C134.706 71.6873 134.51 71.5943 134.341 71.4623C133.979 71.2152 133.725 70.8404 133.629 70.4136C133.562 69.9665 133.67 69.5108 133.929 69.1403C134.558 68.397 135.361 67.8194 136.266 67.4582C135.297 67.4809 134.335 67.289 133.449 66.8964C133.251 66.7924 133.076 66.6502 132.934 66.478C132.792 66.3058 132.685 66.1072 132.621 65.8936C132.528 65.467 132.6 65.0214 132.822 64.6453C132.919 64.4547 133.057 64.2879 133.226 64.1569C133.396 64.0259 133.592 63.9341 133.801 63.8879C134.312 63.7683 134.848 63.8424 135.307 64.0959C135.782 64.3519 136.36 64.6398 137.043 64.9595C136.884 64.4955 136.722 64.0793 136.558 63.711C136.41 63.395 136.295 63.0651 136.214 62.726C136.089 62.2652 136.135 61.7749 136.344 61.3455C136.452 61.1472 136.603 60.976 136.787 60.8451C136.972 60.7141 137.183 60.6269 137.406 60.5902C137.631 60.5269 137.867 60.5128 138.098 60.5487C138.329 60.5846 138.549 60.6697 138.744 60.7983C139.126 61.082 139.383 61.5015 139.463 61.9697C139.542 62.3394 139.57 62.7181 139.547 63.0953C139.528 63.5279 139.554 63.9612 139.626 64.3883C140.124 63.7516 140.544 63.2291 140.884 62.8206C141.193 62.4319 141.625 62.16 142.11 62.0498C142.319 62.0035 142.536 62.004 142.745 62.0513C142.954 62.0986 143.15 62.1915 143.318 62.3233C143.679 62.5711 143.934 62.9455 144.031 63.372C144.062 63.5947 144.047 63.8214 143.988 64.0383C143.929 64.2552 143.826 64.4579 143.685 64.6339C143.039 65.3613 142.244 65.9417 141.353 66.3358C142.326 66.2934 143.295 66.4775 144.184 66.8736C144.387 66.9678 144.569 67.1047 144.714 67.2748C144.86 67.445 144.968 67.6444 145.029 67.8596C145.091 68.0748 145.106 68.3008 145.072 68.5221C145.039 68.7434 144.958 68.9551 144.835 69.1424C144.738 69.333 144.6 69.4999 144.431 69.6308C144.262 69.7618 144.065 69.8537 143.856 69.8998C143.367 70.0041 142.856 69.933 142.415 69.699C141.928 69.4598 141.325 69.1564 140.606 68.7888C140.721 69.2062 140.881 69.61 141.083 69.9934C141.263 70.3255 141.398 70.6803 141.484 71.0483C141.609 71.5127 141.556 72.0069 141.334 72.4338C141.216 72.6368 141.054 72.8111 140.859 72.9441C140.665 73.077 140.444 73.1653 140.211 73.2026C139.994 73.2637 139.765 73.2742 139.542 73.2332C139.32 73.1923 139.11 73.1011 138.928 72.9666C138.556 72.6657 138.306 72.2407 138.224 71.7702C138.149 71.4158 138.111 71.0547 138.109 70.6925C138.104 70.2916 138.075 69.8474 138.022 69.3599C137.54 69.9376 137.14 70.4484 136.822 70.8922Z" fill="#9086FF"/>
<path d="M115.619 220.239C113.268 220.072 110.907 219.832 108.604 219.522C108.396 219.477 108.214 219.354 108.096 219.178C107.978 219.002 107.933 218.787 107.971 218.578C107.976 218.474 108.002 218.372 108.046 218.278C108.091 218.184 108.154 218.1 108.232 218.03C108.309 217.961 108.4 217.908 108.499 217.873C108.597 217.839 108.702 217.825 108.806 217.831C111.082 218.137 113.417 218.376 115.741 218.54C115.943 218.584 116.123 218.699 116.247 218.864C116.371 219.03 116.431 219.234 116.417 219.439C116.403 219.645 116.316 219.839 116.17 219.986C116.025 220.133 115.832 220.223 115.625 220.24L115.619 220.239ZM122.625 220.52C122.423 220.491 122.239 220.386 122.113 220.226C121.986 220.067 121.925 219.864 121.944 219.661C121.936 219.45 122.01 219.243 122.152 219.086C122.293 218.928 122.491 218.831 122.702 218.816C124.997 218.84 127.35 218.795 129.68 218.683C129.784 218.686 129.886 218.709 129.981 218.752C130.075 218.795 130.16 218.856 130.23 218.932C130.301 219.008 130.355 219.098 130.39 219.195C130.425 219.292 130.44 219.396 130.435 219.499C130.45 219.711 130.384 219.92 130.25 220.085C130.116 220.25 129.924 220.357 129.713 220.385C127.358 220.498 124.986 220.544 122.661 220.521L122.625 220.52ZM101.721 218.364C101.693 218.363 101.664 218.359 101.636 218.353C99.319 217.885 97.002 217.332 94.7508 216.713C94.5491 216.64 94.3824 216.494 94.284 216.304C94.1855 216.114 94.1626 215.895 94.2198 215.689C94.2342 215.587 94.2694 215.489 94.3232 215.401C94.3769 215.314 94.4481 215.238 94.5324 215.179C94.6166 215.119 94.7122 215.078 94.8131 215.057C94.914 215.036 95.0181 215.036 95.119 215.057C97.3432 215.668 99.6309 216.213 101.919 216.676C102.124 216.734 102.299 216.869 102.408 217.052C102.516 217.235 102.55 217.453 102.503 217.661C102.483 217.853 102.392 218.032 102.248 218.161C102.104 218.291 101.917 218.363 101.723 218.364H101.721ZM136.646 219.852C136.458 219.827 136.285 219.735 136.16 219.593C136.035 219.45 135.966 219.268 135.966 219.079C135.941 218.867 135.997 218.653 136.125 218.481C136.252 218.31 136.44 218.193 136.65 218.154C138.945 217.915 141.287 217.608 143.597 217.243C143.699 217.233 143.803 217.245 143.9 217.277C143.998 217.309 144.088 217.361 144.165 217.429C144.242 217.497 144.304 217.581 144.347 217.674C144.391 217.767 144.414 217.868 144.417 217.971C144.449 218.182 144.4 218.398 144.281 218.576C144.161 218.754 143.979 218.88 143.77 218.93C141.437 219.299 139.075 219.609 136.754 219.851C136.718 219.854 136.682 219.855 136.646 219.852ZM88.1473 214.627C88.0882 214.623 88.0299 214.611 87.9741 214.591C85.7313 213.798 83.4977 212.917 81.3352 211.968C81.1439 211.867 80.9964 211.7 80.9204 211.498C80.8445 211.296 80.8455 211.073 80.9231 210.872C80.9492 210.774 80.9956 210.682 81.0592 210.603C81.1229 210.524 81.2025 210.459 81.2929 210.412C81.3832 210.365 81.4824 210.338 81.584 210.332C81.6856 210.325 81.7874 210.34 81.8829 210.376C84.0162 211.312 86.2195 212.181 88.4311 212.962C88.6278 213.049 88.7851 213.206 88.8726 213.402C88.9601 213.598 88.9715 213.82 88.9047 214.024C88.8673 214.196 88.7715 214.35 88.6335 214.46C88.4956 214.57 88.3239 214.629 88.1473 214.627ZM150.58 217.65C150.405 217.629 150.243 217.548 150.12 217.422C149.998 217.295 149.923 217.131 149.908 216.956C149.868 216.744 149.908 216.526 150.021 216.342C150.133 216.159 150.31 216.024 150.516 215.963C152.8 215.478 155.106 214.923 157.382 214.319C157.482 214.299 157.585 214.299 157.685 214.32C157.784 214.342 157.879 214.384 157.961 214.444C158.043 214.504 158.112 214.581 158.163 214.669C158.214 214.757 158.246 214.855 158.257 214.956C158.304 215.166 158.272 215.386 158.167 215.575C158.063 215.763 157.892 215.906 157.688 215.978C155.393 216.588 153.063 217.147 150.757 217.637C150.698 217.648 150.637 217.651 150.577 217.644L150.58 217.65ZM75.1333 208.918C75.0409 208.912 74.9509 208.886 74.8694 208.842C72.7465 207.716 70.6413 206.492 68.6102 205.201C68.4336 205.074 68.3086 204.887 68.2577 204.676C68.2068 204.464 68.2334 204.241 68.3327 204.048C68.3699 203.954 68.4272 203.869 68.5004 203.8C68.5737 203.73 68.6612 203.677 68.7569 203.645C68.8527 203.613 68.9544 203.601 69.0549 203.612C69.1555 203.623 69.2526 203.655 69.3394 203.706C71.3413 204.974 73.4173 206.178 75.5089 207.29C75.693 207.405 75.8294 207.582 75.893 207.789C75.9567 207.996 75.9433 208.219 75.8552 208.417C75.8026 208.566 75.7042 208.694 75.5739 208.783C75.4437 208.873 75.2883 208.919 75.1302 208.915L75.1333 208.918ZM164.311 213.992C164.148 213.973 163.995 213.902 163.876 213.79C163.757 213.677 163.678 213.529 163.651 213.368C163.597 213.159 163.62 212.937 163.718 212.744C163.815 212.551 163.979 212.4 164.18 212.319C166.429 211.597 168.691 210.806 170.901 209.972C170.997 209.94 171.099 209.929 171.2 209.94C171.301 209.95 171.398 209.982 171.486 210.033C171.573 210.085 171.649 210.154 171.707 210.237C171.765 210.32 171.805 210.414 171.824 210.514C171.886 210.722 171.871 210.945 171.781 211.143C171.691 211.34 171.533 211.499 171.336 211.59C169.104 212.432 166.822 213.229 164.555 213.958C164.475 213.985 164.392 213.995 164.309 213.99L164.311 213.992ZM177.723 208.922C177.573 208.907 177.432 208.846 177.318 208.749C177.204 208.651 177.122 208.521 177.084 208.376C177.014 208.17 177.02 207.946 177.102 207.745C177.183 207.543 177.335 207.378 177.528 207.278C179.726 206.317 181.918 205.291 184.042 204.227C184.133 204.184 184.233 204.161 184.333 204.16C184.434 204.16 184.534 204.181 184.626 204.223C184.718 204.264 184.799 204.326 184.865 204.402C184.931 204.478 184.979 204.568 185.007 204.664C185.085 204.868 185.087 205.093 185.014 205.298C184.941 205.504 184.797 205.677 184.608 205.786C182.462 206.861 180.249 207.897 178.029 208.867C177.932 208.909 177.826 208.928 177.721 208.92L177.723 208.922ZM62.9456 201.2C62.8177 201.192 62.6951 201.146 62.593 201.068C60.6401 199.612 58.7091 198.051 56.8554 196.444C56.6971 196.292 56.5972 196.09 56.573 195.873C56.5488 195.655 56.6018 195.436 56.7229 195.253C56.7727 195.166 56.8413 195.091 56.9237 195.034C57.0061 194.976 57.1002 194.938 57.1993 194.921C57.2984 194.904 57.4 194.91 57.4968 194.937C57.5935 194.964 57.683 195.013 57.7588 195.078C59.5854 196.667 61.4872 198.199 63.4119 199.634C63.58 199.774 63.6931 199.968 63.7313 200.184C63.7694 200.399 63.7302 200.62 63.6205 200.809C63.5562 200.931 63.4584 201.033 63.3386 201.102C63.2187 201.171 63.0817 201.204 62.9435 201.198L62.9456 201.2ZM190.683 202.426C190.547 202.412 190.418 202.361 190.31 202.278C190.202 202.195 190.119 202.083 190.071 201.956C189.985 201.754 189.972 201.529 190.036 201.32C190.1 201.11 190.237 200.93 190.421 200.811C192.544 199.598 194.637 198.324 196.64 197.021C196.724 196.966 196.819 196.931 196.919 196.917C197.019 196.904 197.12 196.913 197.216 196.943C197.312 196.974 197.4 197.025 197.474 197.093C197.547 197.162 197.605 197.245 197.642 197.339C197.737 197.536 197.759 197.761 197.705 197.973C197.651 198.185 197.524 198.371 197.347 198.5C195.32 199.818 193.204 201.108 191.056 202.334C190.943 202.4 190.812 202.432 190.681 202.424L190.683 202.426ZM51.8605 191.56C51.6944 191.547 51.539 191.473 51.4244 191.352C49.6823 189.595 47.9673 187.737 46.3263 185.829C46.1888 185.658 46.115 185.444 46.1177 185.225C46.1203 185.005 46.1992 184.793 46.3409 184.625C46.4034 184.548 46.4826 184.485 46.5726 184.441C46.6626 184.398 46.7612 184.375 46.8612 184.375C46.9613 184.374 47.0601 184.396 47.1506 184.438C47.241 184.481 47.3208 184.543 47.3841 184.62C49 186.501 50.69 188.332 52.4071 190.062C52.5552 190.224 52.642 190.432 52.6527 190.651C52.6634 190.87 52.5972 191.086 52.4655 191.262C52.3973 191.358 52.306 191.435 52.1999 191.487C52.0938 191.539 51.9764 191.563 51.8584 191.558L51.8605 191.56ZM202.998 194.397C202.878 194.387 202.762 194.346 202.663 194.279C202.563 194.212 202.482 194.12 202.427 194.013C202.323 193.82 202.289 193.597 202.331 193.382C202.374 193.167 202.49 192.973 202.661 192.834C204.67 191.34 206.614 189.784 208.436 188.215C208.51 188.148 208.599 188.099 208.695 188.071C208.791 188.042 208.892 188.036 208.991 188.052C209.09 188.067 209.184 188.105 209.267 188.162C209.349 188.219 209.418 188.293 209.468 188.38C209.583 188.567 209.63 188.788 209.6 189.005C209.571 189.222 209.466 189.423 209.305 189.572C207.454 191.166 205.483 192.743 203.444 194.26C203.316 194.358 203.157 194.406 202.996 194.395L202.998 194.397ZM42.0867 180.194C41.9863 180.186 41.8889 180.156 41.8013 180.106C41.7137 180.057 41.6381 179.989 41.5797 179.907C40.0754 177.895 38.6003 175.781 37.1983 173.626C37.0814 173.44 37.0328 173.219 37.0607 173.002C37.0887 172.784 37.1915 172.583 37.3516 172.432C37.4253 172.365 37.5133 172.314 37.609 172.285C37.7048 172.256 37.8059 172.248 37.9049 172.263C38.004 172.278 38.0984 172.314 38.1814 172.37C38.2644 172.426 38.3337 172.5 38.3844 172.586C39.7698 174.712 41.224 176.796 42.7085 178.782C42.8356 178.961 42.8966 179.179 42.881 179.398C42.8654 179.617 42.7742 179.823 42.6229 179.983C42.5543 180.055 42.4708 180.111 42.3782 180.147C42.2856 180.184 42.1861 180.2 42.0867 180.194ZM214.32 184.602C214.22 184.594 214.124 184.564 214.037 184.516C213.95 184.467 213.874 184.4 213.816 184.32C213.687 184.141 213.625 183.924 213.639 183.705C213.653 183.486 213.743 183.279 213.893 183.118C215.709 181.274 217.401 179.382 218.922 177.495C218.981 177.414 219.057 177.348 219.145 177.3C219.233 177.252 219.331 177.224 219.431 177.219C219.531 177.214 219.63 177.231 219.723 177.269C219.816 177.307 219.898 177.365 219.966 177.439C220.109 177.605 220.191 177.816 220.196 178.035C220.202 178.255 220.13 178.469 219.995 178.642C218.439 180.571 216.71 182.503 214.857 184.386C214.788 184.459 214.705 184.517 214.611 184.554C214.518 184.592 214.418 184.609 214.318 184.604L214.32 184.602ZM33.7411 167.401C33.6232 167.39 33.5097 167.351 33.4111 167.286C33.3125 167.22 33.2319 167.131 33.1767 167.027C31.9165 164.81 30.6866 162.497 29.5255 160.151C29.4279 159.955 29.4024 159.73 29.4535 159.517C29.5046 159.304 29.629 159.116 29.8051 158.985C29.8883 158.929 29.9831 158.892 30.0824 158.876C30.1817 158.861 30.2831 158.868 30.3794 158.897C30.4756 158.926 30.5642 158.976 30.6388 159.043C30.7134 159.11 30.7721 159.193 30.8107 159.285C31.9582 161.602 33.1736 163.885 34.4192 166.075C34.5263 166.267 34.563 166.49 34.523 166.705C34.483 166.921 34.3688 167.116 34.2001 167.257C34.0698 167.359 33.9063 167.409 33.7411 167.398V167.401ZM223.891 172.611C223.753 172.601 223.622 172.549 223.516 172.461C223.354 172.313 223.248 172.114 223.218 171.898C223.188 171.681 223.234 171.461 223.35 171.276C224.714 169.087 225.896 166.791 226.885 164.41C226.916 164.313 226.967 164.224 227.036 164.149C227.104 164.074 227.188 164.015 227.281 163.975C227.374 163.935 227.475 163.915 227.577 163.917C227.678 163.919 227.778 163.943 227.87 163.986C228.055 164.101 228.191 164.277 228.256 164.484C228.32 164.692 228.306 164.915 228.218 165.113C227.192 167.587 225.964 169.973 224.547 172.247C224.482 172.362 224.387 172.458 224.271 172.522C224.155 172.587 224.024 172.618 223.891 172.613V172.611ZM26.8298 153.495C26.6959 153.482 26.5681 153.433 26.4609 153.352C26.3536 153.271 26.2712 153.161 26.2227 153.036C25.1983 150.668 24.2052 148.206 23.2704 145.722C23.1909 145.519 23.1861 145.294 23.257 145.088C23.3279 144.882 23.4697 144.707 23.6575 144.595C23.748 144.551 23.8472 144.527 23.9481 144.524C24.0491 144.522 24.1493 144.542 24.2418 144.582C24.3342 144.623 24.4167 144.683 24.4834 144.758C24.55 144.834 24.5993 144.923 24.6276 145.02C25.5519 147.477 26.5346 149.909 27.5486 152.254C27.6361 152.454 27.6504 152.678 27.5892 152.887C27.528 153.096 27.3951 153.277 27.2137 153.398C27.0997 153.469 26.9664 153.504 26.8319 153.497L26.8298 153.495ZM21.2852 138.777C21.1372 138.762 20.9972 138.702 20.8836 138.606C20.7701 138.51 20.6882 138.383 20.6489 138.239C19.8414 135.761 19.0653 133.197 18.3423 130.616C18.2785 130.409 18.2915 130.186 18.379 129.987C18.4665 129.789 18.6227 129.628 18.8191 129.535C18.9147 129.502 19.0165 129.489 19.1175 129.498C19.2184 129.507 19.3163 129.538 19.4043 129.588C19.4924 129.638 19.5686 129.707 19.6278 129.789C19.687 129.871 19.7279 129.964 19.7476 130.064C20.4642 132.62 21.2341 135.161 22.0321 137.613C22.1037 137.818 22.0993 138.043 22.0198 138.245C21.9402 138.447 21.7907 138.615 21.5982 138.717C21.5014 138.762 21.3951 138.783 21.2884 138.778L21.2852 138.777ZM16.9872 123.485C16.8268 123.467 16.6765 123.398 16.5583 123.289C16.4402 123.179 16.3605 123.035 16.331 122.876C16.0817 121.836 15.8345 120.773 15.6008 119.717C15.5464 119.508 15.5703 119.286 15.668 119.093C15.7657 118.9 15.9306 118.749 16.1318 118.668C16.2302 118.642 16.3331 118.637 16.4336 118.653C16.5342 118.669 16.6302 118.706 16.7153 118.762C16.8003 118.818 16.8724 118.891 16.9269 118.977C16.9813 119.063 17.0168 119.16 17.0311 119.26C17.2658 120.307 17.5109 121.361 17.7613 122.393C17.8182 122.601 17.7973 122.824 17.7023 123.018C17.6074 123.213 17.4448 123.366 17.2449 123.451C17.1634 123.48 17.0769 123.493 16.9904 123.488L16.9872 123.485Z" fill="#837AE8"/>
<path d="M10.0146 92.094H10.0094L7.84996 92.7182H7.84474C3.2849 94.0394 0.567352 98.52 1.78581 102.705L3.48207 108.524L7.34192 107.406L5.64672 101.587C5.37038 100.453 5.55546 99.2564 6.16149 98.2584C6.76752 97.2605 7.74517 96.5425 8.88064 96.2614L11.0401 95.6373C12.1495 95.269 13.36 95.3534 14.4071 95.8723C15.4542 96.3912 16.2529 97.3023 16.6285 98.4065L18.3237 104.226L22.1836 103.108L20.4873 97.2882H20.4926C19.2762 93.1021 14.5745 90.7718 10.0146 92.094Z" fill="#FFB7CE"/>
<path d="M31.341 120.087C31.508 120.757 31.4016 121.467 31.0452 122.059C30.6887 122.652 30.1112 123.079 29.4392 123.248L8.18082 129.408C7.52273 129.625 6.80519 129.572 6.18563 129.262C5.56606 128.953 5.09507 128.41 4.87595 127.755L0.0772088 111.289C-0.0898217 110.618 0.0165593 109.909 0.373029 109.316C0.7295 108.724 1.30699 108.296 1.97897 108.127L23.2374 101.968C23.8953 101.751 24.6128 101.803 25.2323 102.113C25.8518 102.422 26.3229 102.964 26.5423 103.62L31.341 120.087Z" fill="#FFB7CE"/>
<path d="M13.4994 114.844C13.5936 115.111 13.7414 115.357 13.9338 115.566C14.1263 115.774 14.3593 115.942 14.6188 116.058C14.6626 116.078 14.7054 116.099 14.7481 116.122C14.8043 116.154 14.8629 116.182 14.9234 116.205C14.961 116.216 14.9996 116.316 15.0121 116.427L15.2489 118.783C15.2499 118.808 15.2565 118.832 15.2683 118.854C15.2801 118.875 15.2967 118.894 15.3168 118.908C15.337 118.922 15.3601 118.932 15.3845 118.936C15.4089 118.94 15.4339 118.938 15.4575 118.931L17.6702 118.29C17.6948 118.284 17.7177 118.273 17.7372 118.257C17.7566 118.241 17.772 118.221 17.7822 118.198C17.7923 118.175 17.7969 118.15 17.7956 118.124C17.7942 118.099 17.787 118.075 17.7745 118.053L16.7083 115.937C16.6583 115.833 16.6374 115.729 16.6635 115.703C16.6962 115.66 16.7255 115.614 16.7511 115.567C16.7845 115.508 16.8199 115.452 16.8554 115.396C17.013 115.163 17.1193 114.9 17.1669 114.624C17.2146 114.347 17.2026 114.063 17.1319 113.792C17.0674 113.549 16.9549 113.321 16.8009 113.122C16.6469 112.923 16.4545 112.757 16.235 112.633C16.0156 112.509 15.7735 112.43 15.5231 112.401C15.2727 112.372 15.019 112.393 14.7769 112.464C14.5348 112.534 14.3092 112.651 14.1134 112.81C13.9176 112.968 13.7556 113.164 13.6368 113.386C13.5181 113.608 13.445 113.851 13.422 114.101C13.3989 114.352 13.4263 114.604 13.5026 114.844H13.4994Z" fill="white"/>
<path d="M15.4038 119.519C15.2551 119.52 15.1095 119.476 14.9865 119.393C14.8949 119.331 14.8183 119.249 14.7621 119.154C14.7058 119.059 14.6713 118.952 14.661 118.842L14.4378 116.62L14.3648 116.584C14.0312 116.432 13.7323 116.214 13.4863 115.943C13.2404 115.672 13.0526 115.353 12.9345 115.007C12.747 114.371 12.8162 113.688 13.1275 113.102C13.2792 112.813 13.488 112.558 13.7413 112.351C13.9947 112.144 14.2872 111.991 14.6016 111.9C15.2399 111.724 15.9222 111.807 16.499 112.132C17.0758 112.457 17.5001 112.996 17.679 113.632C17.7735 113.983 17.7912 114.351 17.7309 114.71C17.6706 115.069 17.5337 115.411 17.3295 115.712C17.3107 115.741 17.2941 115.767 17.2763 115.796L18.2809 117.79C18.3312 117.888 18.3592 117.997 18.3628 118.107C18.3664 118.217 18.3456 118.327 18.3018 118.428C18.2579 118.529 18.1924 118.618 18.11 118.69C18.0276 118.761 17.9303 118.815 17.825 118.845L15.6124 119.487C15.5447 119.507 15.4745 119.518 15.4038 119.519ZM15.1044 115.659C15.2463 115.717 15.3677 115.816 15.4531 115.943C15.5384 116.07 15.5837 116.219 15.5832 116.372L15.771 118.238L17.0228 117.874L16.1778 116.198C16.0959 116.069 16.0541 115.919 16.0579 115.767C16.0616 115.614 16.1106 115.467 16.1987 115.342C16.205 115.332 16.2175 115.312 16.2352 115.282C16.2728 115.215 16.3155 115.147 16.3604 115.074C16.471 114.911 16.5462 114.727 16.5812 114.534C16.6163 114.34 16.6104 114.142 16.5638 113.951C16.4716 113.61 16.2475 113.319 15.9404 113.142C15.6334 112.965 15.2686 112.917 14.926 113.008C14.7611 113.056 14.6076 113.136 14.4747 113.245C14.3419 113.354 14.2325 113.488 14.153 113.64C13.9827 113.96 13.9452 114.333 14.0487 114.68C14.1949 115.06 14.4855 115.366 14.8571 115.532C14.9114 115.557 14.9614 115.585 15.0178 115.613L15.1044 115.659Z" fill="white"/>
<path d="M209.102 135.297L213.672 131.823C213.757 131.757 213.855 131.709 213.959 131.682C214.063 131.654 214.171 131.647 214.278 131.662C214.385 131.676 214.488 131.711 214.581 131.765C214.674 131.819 214.755 131.891 214.82 131.977L215.435 132.782C215.501 132.867 215.549 132.964 215.577 133.068C215.604 133.172 215.611 133.28 215.597 133.386C215.582 133.492 215.547 133.595 215.493 133.688C215.439 133.78 215.367 133.861 215.281 133.926L210.71 137.401C210.624 137.466 210.527 137.514 210.423 137.542C210.319 137.569 210.21 137.576 210.104 137.562C209.997 137.548 209.894 137.512 209.801 137.458C209.708 137.404 209.627 137.332 209.562 137.247L208.946 136.442C208.881 136.357 208.833 136.259 208.805 136.155C208.778 136.052 208.771 135.944 208.785 135.837C208.8 135.731 208.835 135.628 208.89 135.536C208.944 135.443 209.016 135.362 209.102 135.297Z" fill="#FFB7CE"/>
<path d="M213.001 137.699L217.571 134.225C217.656 134.16 217.754 134.112 217.858 134.084C217.962 134.056 218.07 134.05 218.177 134.064C218.284 134.078 218.386 134.113 218.479 134.168C218.572 134.222 218.653 134.294 218.718 134.379L219.334 135.184C219.4 135.269 219.448 135.367 219.475 135.47C219.503 135.574 219.51 135.682 219.496 135.788C219.481 135.895 219.446 135.997 219.392 136.09C219.337 136.183 219.265 136.264 219.18 136.329L214.609 139.802C214.524 139.867 214.426 139.915 214.322 139.943C214.218 139.971 214.11 139.978 214.003 139.963C213.897 139.949 213.794 139.914 213.701 139.86C213.608 139.806 213.527 139.734 213.462 139.648L212.846 138.843C212.781 138.758 212.733 138.661 212.705 138.557C212.677 138.453 212.67 138.345 212.685 138.239C212.699 138.132 212.734 138.03 212.788 137.937C212.843 137.844 212.915 137.763 213.001 137.699Z" fill="#FFB7CE"/>
<path d="M213.272 132.326L212.049 130.726C211.841 130.383 211.775 129.972 211.868 129.581C211.96 129.191 212.202 128.852 212.542 128.638L212.902 128.364C213.2 128.093 213.592 127.95 213.994 127.965C214.396 127.98 214.776 128.151 215.052 128.443L229.156 146.892L226.152 149.181L217.27 137.562" fill="#FFB7CE"/>
<path d="M231.446 159.499C234.966 159.499 237.82 156.654 237.82 153.143C237.82 149.633 234.966 146.787 231.446 146.787C227.926 146.787 225.072 149.633 225.072 153.143C225.072 156.654 227.926 159.499 231.446 159.499Z" fill="#E8A7BB"/>
<path d="M224.643 158.315C223.443 156.746 222.826 154.81 222.897 152.838C222.968 150.865 223.722 148.979 225.032 147.499C226.342 146.019 228.125 145.038 230.079 144.723C232.032 144.408 234.035 144.777 235.746 145.77C237.457 146.762 238.77 148.315 239.461 150.164C240.152 152.013 240.179 154.044 239.537 155.911C238.895 157.778 237.624 159.365 235.94 160.402C234.256 161.439 232.263 161.861 230.302 161.597C229.962 161.551 229.625 161.486 229.292 161.401C227.438 160.924 225.799 159.837 224.643 158.315ZM228.904 149.817C228.149 150.391 227.61 151.203 227.377 152.121C227.144 153.039 227.23 154.008 227.621 154.871C228.012 155.734 228.685 156.439 229.53 156.871C230.375 157.303 231.342 157.437 232.273 157.251C233.204 157.064 234.044 156.568 234.656 155.843C235.268 155.119 235.615 154.209 235.641 153.263C235.667 152.316 235.37 151.388 234.799 150.632C234.229 149.875 233.417 149.334 232.498 149.096C231.883 148.938 231.241 148.92 230.619 149.045C229.996 149.17 229.409 149.434 228.904 149.817Z" fill="#E8A7BB"/>
<path d="M233.41 153.418C233.556 152.34 232.798 151.347 231.716 151.202C230.635 151.056 229.64 151.813 229.494 152.891C229.348 153.97 230.107 154.962 231.188 155.107C232.269 155.253 233.264 154.496 233.41 153.418Z" fill="white"/>
<path d="M229.138 154.907C228.671 154.295 228.466 153.522 228.57 152.76C228.673 151.997 229.075 151.306 229.689 150.839C230.146 150.492 230.697 150.288 231.271 150.253C231.845 150.217 232.417 150.352 232.914 150.641C233.411 150.929 233.811 151.358 234.063 151.874C234.316 152.389 234.409 152.967 234.333 153.535C234.256 154.104 234.011 154.637 233.631 155.067C233.25 155.497 232.751 155.804 232.195 155.951C231.639 156.098 231.052 156.077 230.508 155.891C229.964 155.705 229.487 155.363 229.138 154.907ZM230.822 152.322C230.634 152.464 230.5 152.666 230.442 152.894C230.384 153.122 230.405 153.364 230.502 153.578C230.599 153.793 230.767 153.968 230.977 154.076C231.187 154.183 231.427 154.216 231.659 154.17C231.89 154.123 232.099 154 232.251 153.82C232.403 153.64 232.489 153.414 232.496 153.178C232.502 152.943 232.428 152.712 232.286 152.524C232.144 152.336 231.942 152.202 231.714 152.143C231.561 152.103 231.402 152.098 231.247 152.129C231.093 152.159 230.948 152.224 230.822 152.319V152.322Z" fill="white"/>
</svg>
