<svg width="20" height="20" viewBox="0 0 20 20" fill="none" xmlns="http://www.w3.org/2000/svg">
<path fill-rule="evenodd" clip-rule="evenodd" d="M14.5833 2.5C14.8043 2.5 15.0163 2.5878 15.1726 2.74408C15.3289 2.90036 15.4167 3.11232 15.4167 3.33333V3.55C15.4167 3.66046 15.5062 3.75 15.6167 3.75H17.3C17.4105 3.75 17.5 3.83954 17.5 3.95V11.4667C17.5 11.5771 17.4105 11.6667 17.3 11.6667H8.53333C8.42288 11.6667 8.33333 11.5771 8.33333 11.4667V3.95C8.33333 3.83954 8.42288 3.75 8.53333 3.75H10.2167C10.3271 3.75 10.4167 3.66046 10.4167 3.55V3.33333C10.4167 3.11232 10.5045 2.90036 10.6607 2.74408C10.817 2.5878 11.029 2.5 11.25 2.5H14.5833ZM11.25 7.5C11.029 7.5 10.817 7.4122 10.6607 7.25592C10.5045 7.09964 10.4167 6.88768 10.4167 6.66667V6.45C10.4167 6.33954 10.3271 6.25 10.2167 6.25H9.36667C9.25621 6.25 9.16667 6.33954 9.16667 6.45V10.6333C9.16667 10.7438 9.25621 10.8333 9.36667 10.8333H11.05C11.1605 10.8333 11.25 10.7438 11.25 10.6333V8.53333C11.25 8.42288 11.3395 8.33333 11.45 8.33333H14.3833C14.4938 8.33333 14.5833 8.42288 14.5833 8.53333V10.6333C14.5833 10.7438 14.6729 10.8333 14.7833 10.8333H16.4667C16.5771 10.8333 16.6667 10.7438 16.6667 10.6333V6.45C16.6667 6.33954 16.5771 6.25 16.4667 6.25H15.6167C15.5062 6.25 15.4167 6.33954 15.4167 6.45V6.66667C15.4167 6.88768 15.3289 7.09964 15.1726 7.25592C15.0163 7.4122 14.8043 7.5 14.5833 7.5H11.25ZM16.6667 4.78333C16.6667 4.67288 16.5771 4.58333 16.4667 4.58333H15.6167C15.5062 4.58333 15.4167 4.67288 15.4167 4.78333V5.21667C15.4167 5.32712 15.5062 5.41667 15.6167 5.41667H16.4667C16.5771 5.41667 16.6667 5.32712 16.6667 5.21667V4.78333ZM9.16667 5.21667C9.16667 5.32712 9.25621 5.41667 9.36667 5.41667H10.2167C10.3271 5.41667 10.4167 5.32712 10.4167 5.21667V4.78333C10.4167 4.67288 10.3271 4.58333 10.2167 4.58333H9.36667C9.25621 4.58333 9.16667 4.67288 9.16667 4.78333V5.21667ZM12.2833 9.16667C12.1729 9.16667 12.0833 9.25621 12.0833 9.36667V10.6333C12.0833 10.7438 12.1729 10.8333 12.2833 10.8333H13.55C13.6605 10.8333 13.75 10.7438 13.75 10.6333V9.36667C13.75 9.25621 13.6605 9.16667 13.55 9.16667H12.2833ZM13.1333 3.33333C13.2438 3.33333 13.3333 3.42288 13.3333 3.53333V4.38333C13.3333 4.49379 13.4229 4.58333 13.5333 4.58333H14.3833C14.4938 4.58333 14.5833 4.67288 14.5833 4.78333V5.21667C14.5833 5.32712 14.4938 5.41667 14.3833 5.41667H13.5333C13.4229 5.41667 13.3333 5.50621 13.3333 5.61667V6.46667C13.3333 6.57712 13.2438 6.66667 13.1333 6.66667H12.7C12.5895 6.66667 12.5 6.57712 12.5 6.46667V5.61667C12.5 5.50621 12.4105 5.41667 12.3 5.41667H11.45C11.3395 5.41667 11.25 5.32712 11.25 5.21667V4.78333C11.25 4.67288 11.3395 4.58333 11.45 4.58333H12.3C12.4105 4.58333 12.5 4.49379 12.5 4.38333V3.53333C12.5 3.42288 12.5895 3.33333 12.7 3.33333H13.1333Z" fill="#9086FF"/>
<path d="M7.50034 11.2507C7.50034 10.8086 7.32474 10.3847 7.01218 10.0721C6.69962 9.75958 6.2757 9.58398 5.83367 9.58398C5.39164 9.58398 4.96772 9.75958 4.65516 10.0721C4.3426 10.3847 4.16701 10.8086 4.16701 11.2507C4.16701 11.6927 4.3426 12.1166 4.65516 12.4292C4.96772 12.7417 5.39164 12.9173 5.83367 12.9173C6.2757 12.9173 6.69962 12.7417 7.01218 12.4292C7.32474 12.1166 7.50034 11.6927 7.50034 11.2507ZM5.83367 13.7507C6.94617 13.7507 9.16701 14.3598 9.16701 15.569V16.4673C9.16701 16.5778 9.25655 16.6673 9.367 16.6673H12.917C13.2208 16.6673 13.4178 16.5577 13.5433 16.4165C13.6753 16.2677 13.7503 16.0577 13.7503 15.834V14.8227C13.7503 14.6445 13.5349 14.5552 13.4089 14.6812L12.5197 15.5705C12.4416 15.6486 12.3149 15.6486 12.2368 15.5705L11.9305 15.2642C11.8524 15.1861 11.8524 15.0594 11.9305 14.9813L14.0256 12.8862C14.1037 12.8081 14.2303 12.8081 14.3084 12.8862L16.4035 14.9813C16.4816 15.0594 16.4816 15.1861 16.4035 15.2642L16.0972 15.5705C16.0191 15.6486 15.8924 15.6486 15.8143 15.5705L14.9251 14.6812C14.7991 14.5552 14.5837 14.6445 14.5837 14.8227V15.834C14.5837 16.2352 14.4503 16.6502 14.1658 16.9702C13.8745 17.2977 13.4466 17.5007 12.917 17.5007H2.70034C2.58988 17.5007 2.50034 17.4111 2.50034 17.3007V15.569C2.50034 14.3598 4.72117 13.7507 5.83367 13.7507Z" fill="#9086FF"/>
</svg>
