<svg width="24" height="24" viewBox="0 0 24 24" fill="none" xmlns="http://www.w3.org/2000/svg">
<path fill-rule="evenodd" clip-rule="evenodd" d="M17.5 3C17.7652 3 18.0196 3.10536 18.2071 3.29289C18.3946 3.48043 18.5 3.73478 18.5 4V4.3C18.5 4.41046 18.5895 4.5 18.7 4.5H20.8C20.9105 4.5 21 4.58954 21 4.7V13.8C21 13.9105 20.9105 14 20.8 14H10.2C10.0895 14 10 13.9105 10 13.8V4.7C10 4.58954 10.0895 4.5 10.2 4.5H12.3C12.4105 4.5 12.5 4.41046 12.5 4.3V4C12.5 3.73478 12.6054 3.48043 12.7929 3.29289C12.9804 3.10536 13.2348 3 13.5 3H17.5ZM13.5 9C13.2348 9 12.9804 8.89464 12.7929 8.70711C12.6054 8.51957 12.5 8.26522 12.5 8V7.7C12.5 7.58954 12.4105 7.5 12.3 7.5H11.2C11.0895 7.5 11 7.58954 11 7.7V12.8C11 12.9105 11.0895 13 11.2 13H13.3C13.4105 13 13.5 12.9105 13.5 12.8V10.2C13.5 10.0895 13.5895 10 13.7 10H17.3C17.4105 10 17.5 10.0895 17.5 10.2V12.8C17.5 12.9105 17.5895 13 17.7 13H19.8C19.9105 13 20 12.9105 20 12.8V7.7C20 7.58954 19.9105 7.5 19.8 7.5H18.7C18.5895 7.5 18.5 7.58954 18.5 7.7V8C18.5 8.26522 18.3946 8.51957 18.2071 8.70711C18.0196 8.89464 17.7652 9 17.5 9H13.5ZM20 5.7C20 5.58954 19.9105 5.5 19.8 5.5H18.7C18.5895 5.5 18.5 5.58954 18.5 5.7V6.3C18.5 6.41046 18.5895 6.5 18.7 6.5H19.8C19.9105 6.5 20 6.41046 20 6.3V5.7ZM11 6.3C11 6.41046 11.0895 6.5 11.2 6.5H12.3C12.4105 6.5 12.5 6.41046 12.5 6.3V5.7C12.5 5.58954 12.4105 5.5 12.3 5.5H11.2C11.0895 5.5 11 5.58954 11 5.7V6.3ZM14.7 11C14.5895 11 14.5 11.0895 14.5 11.2V12.8C14.5 12.9105 14.5895 13 14.7 13H16.3C16.4105 13 16.5 12.9105 16.5 12.8V11.2C16.5 11.0895 16.4105 11 16.3 11H14.7ZM15.8 4C15.9105 4 16 4.08954 16 4.2V5.3C16 5.41046 16.0895 5.5 16.2 5.5H17.3C17.4105 5.5 17.5 5.58954 17.5 5.7V6.3C17.5 6.41046 17.4105 6.5 17.3 6.5H16.2C16.0895 6.5 16 6.58954 16 6.7V7.8C16 7.91046 15.9105 8 15.8 8H15.2C15.0895 8 15 7.91046 15 7.8V6.7C15 6.58954 14.9105 6.5 14.8 6.5H13.7C13.5895 6.5 13.5 6.41046 13.5 6.3V5.7C13.5 5.58954 13.5895 5.5 13.7 5.5H14.8C14.9105 5.5 15 5.41046 15 5.3V4.2C15 4.08954 15.0895 4 15.2 4H15.8Z" fill="#757575"/>
<path d="M9.00002 13.5C9.00002 12.9696 8.7893 12.4609 8.41423 12.0858C8.03916 11.7107 7.53045 11.5 7.00002 11.5C6.46958 11.5 5.96087 11.7107 5.5858 12.0858C5.21073 12.4609 5.00002 12.9696 5.00002 13.5C5.00002 14.0304 5.21073 14.5391 5.5858 14.9142C5.96087 15.2893 6.46958 15.5 7.00002 15.5C7.53045 15.5 8.03916 15.2893 8.41423 14.9142C8.7893 14.5391 9.00002 14.0304 9.00002 13.5ZM7.00002 16.5C8.33502 16.5 11 17.231 11 18.682V19.8C11 19.9105 11.0896 20 11.2 20H15.5C15.8645 20 16.101 19.8685 16.2515 19.699C16.41 19.5205 16.5 19.2685 16.5 19V17.6898C16.5 17.5117 16.2846 17.4224 16.1586 17.5484L14.9949 18.7121C14.9168 18.7902 14.7902 18.7902 14.7121 18.7121L14.2879 18.2879C14.2098 18.2098 14.2098 18.0832 14.2879 18.0051L16.8586 15.4344C16.9367 15.3563 17.0633 15.3563 17.1414 15.4344L19.7121 18.0051C19.7902 18.0832 19.7902 18.2098 19.7121 18.2879L19.2879 18.7121C19.2098 18.7902 19.0832 18.7902 19.0051 18.7121L17.8414 17.5484C17.7154 17.4224 17.5 17.5117 17.5 17.6898V19C17.5 19.4815 17.34 19.9795 16.9985 20.3635C16.649 20.7565 16.1355 21 15.5 21H3.20001C3.08956 21 3.00002 20.9105 3.00002 20.8V18.682C3.00002 17.231 5.66502 16.5 7.00002 16.5Z" fill="#757575"/>
</svg>
