<svg width="24" height="24" viewBox="0 0 24 24" fill="none" xmlns="http://www.w3.org/2000/svg">
<path d="M14.3118 2C14.4706 2.00001 14.6253 2.05041 14.7536 2.14394C14.8819 2.23748 14.9772 2.36933 15.0258 2.5205L15.8508 5.084C16.1973 5.2535 16.5288 5.444 16.8453 5.6585L19.4793 5.0915C19.6346 5.05834 19.7964 5.07534 19.9415 5.14003C20.0865 5.20473 20.2073 5.31379 20.2863 5.4515L22.3653 9.05C22.4447 9.18763 22.4783 9.34693 22.4614 9.5049C22.4444 9.66288 22.3777 9.81139 22.2708 9.929L20.4633 11.924C20.4896 12.3065 20.4896 12.6905 20.4633 13.073L22.2708 15.071C22.3777 15.1886 22.4444 15.3371 22.4614 15.4951C22.4783 15.6531 22.4447 15.8124 22.3653 15.95L20.2863 19.55C20.207 19.6874 20.0862 19.7962 19.9412 19.8606C19.7962 19.925 19.6345 19.9418 19.4793 19.9085L16.8453 19.3415C16.5303 19.5545 16.1973 19.7465 15.8523 19.916L15.0258 22.4795C14.9772 22.6307 14.8819 22.7625 14.7536 22.8561C14.6253 22.9496 14.4706 23 14.3118 23H10.1538C9.99504 23 9.84035 22.9496 9.71204 22.8561C9.58373 22.7625 9.48842 22.6307 9.43983 22.4795L8.61633 19.9175C8.27076 19.7485 7.93744 19.5555 7.61883 19.34L4.98633 19.9085C4.83103 19.9417 4.66921 19.9247 4.52418 19.86C4.37915 19.7953 4.25841 19.6862 4.17933 19.5485L2.10033 15.95C2.02094 15.8124 1.98731 15.6531 2.0043 15.4951C2.02128 15.3371 2.088 15.1886 2.19483 15.071L4.00233 13.073C3.97615 12.6914 3.97615 12.3086 4.00233 11.927L2.19483 9.929C2.088 9.81139 2.02128 9.66288 2.0043 9.5049C1.98731 9.34693 2.02094 9.18763 2.10033 9.05L4.17933 5.45C4.25862 5.31256 4.37947 5.20381 4.52447 5.13939C4.66948 5.07497 4.83119 5.05821 4.98633 5.0915L7.61883 5.66C7.93683 5.4455 8.26983 5.252 8.61633 5.0825L9.44133 2.5205C9.48976 2.36982 9.58462 2.23832 9.71233 2.14482C9.84004 2.05133 9.99405 2.00064 10.1523 2H14.3103H14.3118ZM13.7628 3.5H10.7028L9.85083 6.1505L9.27633 6.431C8.9939 6.56921 8.72127 6.72657 8.46033 6.902L7.92933 7.262L5.20533 6.674L3.67533 9.326L5.54283 11.393L5.49783 12.029C5.47628 12.3426 5.47628 12.6574 5.49783 12.971L5.54283 13.607L3.67233 15.674L5.20383 18.326L7.92783 17.7395L8.45883 18.098C8.71977 18.2734 8.9924 18.4308 9.27483 18.569L9.84933 18.8495L10.7028 21.5H13.7658L14.6208 18.848L15.1938 18.569C15.4759 18.4311 15.7481 18.2737 16.0083 18.098L16.5378 17.7395L19.2633 18.326L20.7933 15.674L18.9243 13.607L18.9693 12.971C18.991 12.6569 18.991 12.3416 18.9693 12.0275L18.9243 11.3915L20.7948 9.326L19.2633 6.674L16.5378 7.259L16.0083 6.902C15.7481 6.72622 15.476 6.56884 15.1938 6.431L14.6208 6.152L13.7643 3.5H13.7628ZM12.2328 8C13.4263 8 14.5709 8.47411 15.4148 9.31802C16.2587 10.1619 16.7328 11.3065 16.7328 12.5C16.7328 13.6935 16.2587 14.8381 15.4148 15.682C14.5709 16.5259 13.4263 17 12.2328 17C11.0394 17 9.89476 16.5259 9.05085 15.682C8.20693 14.8381 7.73283 13.6935 7.73283 12.5C7.73283 11.3065 8.20693 10.1619 9.05085 9.31802C9.89476 8.47411 11.0394 8 12.2328 8ZM12.2328 9.5C11.4372 9.5 10.6741 9.81607 10.1115 10.3787C9.5489 10.9413 9.23283 11.7044 9.23283 12.5C9.23283 13.2956 9.5489 14.0587 10.1115 14.6213C10.6741 15.1839 11.4372 15.5 12.2328 15.5C13.0285 15.5 13.7915 15.1839 14.3541 14.6213C14.9168 14.0587 15.2328 13.2956 15.2328 12.5C15.2328 11.7044 14.9168 10.9413 14.3541 10.3787C13.7915 9.81607 13.0285 9.5 12.2328 9.5Z" fill="#BFBFBF"/>
</svg>
