<svg width="80" height="80" viewBox="0 0 80 80" fill="none" xmlns="http://www.w3.org/2000/svg">
<path d="M1.72148 23.8107C4.42769 10.7181 12.7545 3.42601 25.7427 1.22311C35.3441 -0.404991 44.949 -0.425609 54.5343 1.26883C67.9076 3.63273 75.9471 11.3501 78.5082 24.6407C80.4869 34.912 80.518 45.2929 78.4771 55.5545C75.7393 68.5564 67.1978 76.5822 54.2574 78.777C44.656 80.4049 35.0511 80.4256 25.4658 78.7313C12.0925 76.3672 4.0173 68.2645 1.45634 54.9742C-0.623294 44.6351 -0.423191 34.1886 1.72148 23.8106V23.8107Z" fill="white"/>
<path fill-rule="evenodd" clip-rule="evenodd" d="M36.9863 15.7518C34.2994 16.4152 31.1559 17.9931 27.8155 20.3551C23.4812 23.4199 19.4737 27.4746 18.3561 29.9256C18.1829 30.3055 18.0114 30.6784 17.9748 30.7544C17.9383 30.8303 18.1493 30.6128 18.4438 30.2709C19.9684 28.5008 23.3861 25.5057 25.6329 23.9706C29.7066 21.1874 33.4555 19.7572 36.1503 19.9581C38.3132 20.1193 41.7271 21.1241 43.811 22.2126C45.3572 23.0202 46.3294 23.75 47.6321 25.0807C48.233 25.6944 48.6779 26.0721 48.6207 25.9202C48.5635 25.7682 48.3327 24.867 48.1079 23.9174C46.8295 18.5185 45.3929 16.5661 42.0657 15.706C40.9309 15.4126 38.2623 15.4368 36.9863 15.7518ZM26.7406 17.1485C26.5121 17.2166 25.7333 17.4315 25.0099 17.6263C22.3713 18.3362 21.7732 18.8912 20.2786 22.0164C20.2156 22.1483 20.1637 22.3347 20.1634 22.4307C20.1631 22.5267 19.9716 22.9782 19.7378 23.434C19.3055 24.2767 18.4643 26.5496 18.5522 26.6373C18.5788 26.6638 18.7564 26.4511 18.947 26.1646C20.3569 24.0465 24.0904 20.6784 27.4094 18.5308C28.2899 17.9611 29.0136 17.455 29.0176 17.4061C29.0392 17.1477 27.3751 16.9596 26.7406 17.1485ZM34.2172 22.4934C30.7824 22.8129 26.9741 24.4165 23.6583 26.9394C21.8172 28.3402 20.2969 29.895 19.2172 31.481C17.6838 33.7336 17.2564 35.0384 17.2564 37.4668C17.2564 40.7895 18.0655 43.3983 19.9722 46.2237C20.8586 47.5374 22.0937 48.9543 21.7779 48.2955C21.3689 47.4425 20.9771 45.9084 20.8676 44.732C20.5055 40.8441 21.9215 37.3016 25.028 34.3234C25.8196 33.5647 27.7574 32.1329 28.3328 31.882C28.5232 31.799 28.9114 31.5889 29.1954 31.4153C29.4795 31.2416 29.7736 31.0997 29.8489 31.0997C29.9244 31.0997 30.3151 30.9532 30.717 30.7745C31.6789 30.3466 31.7888 30.3096 33.2498 29.9218C38.4827 28.5326 44.2056 29.0685 48.8559 31.3835C49.4682 31.6882 49.9897 31.9166 50.0152 31.8912C50.0995 31.8071 49.2134 30.2191 48.4247 29.0411C46.328 25.91 43.2889 23.806 39.6221 22.947C38.2724 22.6309 35.3637 22.3868 34.2172 22.4934ZM36.0071 31.7285C32.5175 32.4599 28.8472 34.4254 26.3777 36.8856C24.4738 38.7821 23.4082 40.5958 22.9199 42.7707C22.5206 44.5494 22.5301 48.2019 22.9396 50.2982C23.2465 51.8699 23.9731 54.3185 24.7633 56.4445C25.0738 57.2802 25.4074 58.1814 25.5043 58.4473C25.6012 58.7132 25.8659 59.3622 26.0925 59.8896L26.5045 60.8486L26.5663 58.4394C26.6459 55.3266 26.8894 54.6545 28.2513 53.788C28.6985 53.5034 28.8995 53.4581 29.4075 53.5276C30.5993 53.6906 31.9695 54.3255 34.1986 55.748C34.9018 56.1968 36.0323 56.6517 36.4442 56.6517C37.0345 56.6517 37.4406 56.2258 38.0762 54.9395C38.8496 53.3746 39.1815 53.0939 40.4366 52.9432C41.362 52.832 41.9015 52.5253 41.9015 52.1102C41.9015 51.9907 41.4592 51.4489 40.9187 50.9061C40.312 50.2969 39.9544 49.8296 39.9841 49.6851C40.0236 49.4933 40.1367 49.5404 40.6115 49.9466C41.5647 50.762 42.9084 51.0988 43.3037 50.6212C43.4218 50.4783 43.4937 50.0503 43.4937 49.4891C43.4937 48.4023 43.4958 48.4012 45.5705 48.374C47.2449 48.352 47.5028 48.2205 47.403 47.4404C47.3659 47.151 47.1654 46.4506 46.9573 45.8838C46.6189 44.9619 46.5849 44.7101 46.6339 43.493C46.6956 41.9589 46.8778 41.639 47.3696 42.2018C47.7019 42.5819 48.4089 43.0332 48.4089 42.8652C48.4089 42.7996 48.2622 42.6794 48.0831 42.5979C47.9039 42.5165 47.5898 42.1647 47.385 41.8161L47.0127 41.1824L47.3925 40.5263C47.6013 40.1654 48.1747 39.2494 48.6667 38.4904C49.9449 36.5188 50.4802 35.157 50.6467 33.4535C50.6916 32.9942 50.6748 32.9752 50.2088 32.9547C49.6199 32.9289 48.0079 32.6918 46.0551 32.344C43.6266 31.9114 41.7857 31.667 39.8315 31.5179C37.6071 31.3483 37.8984 31.3322 36.0071 31.7285ZM17.3001 32.2061C16.8134 32.9868 16.6721 33.4518 16.855 33.6717C16.9421 33.7764 17.0967 33.862 17.1985 33.862C17.4479 33.862 17.7044 32.9558 17.6481 32.2737L17.6025 31.7212L17.3001 32.2061ZM58.1633 42.0933C57.8551 42.2024 57.1386 42.6677 56.5711 43.1272C56.0037 43.5867 55.2278 44.2137 54.847 44.5204C53.5795 45.5415 53.4456 45.852 52.9211 48.9861C52.7291 50.1343 52.6741 50.2633 52.2023 50.6756C51.9213 50.9212 51.4824 51.1611 51.227 51.2089C50.8127 51.2865 50.7626 51.3445 50.7626 51.747C50.7626 51.995 50.8561 52.2754 50.9703 52.37C51.0845 52.4646 51.178 52.7262 51.178 52.9514C51.178 53.2787 51.0953 53.392 50.7663 53.5159C50.2291 53.7181 50.1164 54.0333 50.4773 54.3247C50.8342 54.6131 50.836 54.744 50.4857 54.9622C50.13 55.1839 50.1355 55.4591 50.5058 55.9588C50.769 56.3137 50.783 56.4074 50.6286 56.7792C50.5328 57.01 50.4916 57.3471 50.5373 57.5285C50.7297 58.2931 52.291 59.3542 54.3065 60.0898C54.9084 60.3094 55.5878 60.5615 55.8162 60.65C56.4505 60.8954 57.2517 61.4869 57.3442 61.7779C57.4738 62.1853 57.6085 62.0968 58.156 61.2442C58.4365 60.8073 58.9423 60.0771 59.2798 59.6213C61.2877 56.9111 61.7734 55.8711 61.6451 54.5563C61.5451 53.532 61.2373 52.7677 60.5077 51.7318C59.9381 50.9231 57.6347 48.6408 57.3881 48.6408C57.3232 48.6408 57.27 48.5476 57.27 48.4336C57.27 48.301 57.4071 48.2245 57.6508 48.2209L58.0315 48.2154L57.6162 47.9979C56.9466 47.6473 56.1492 46.8223 55.8569 46.178C55.2608 44.8634 55.8952 43.6035 57.6162 42.6843C58.4193 42.2553 58.5158 42.2381 60.5237 42.1673C62.1264 42.1108 62.4424 42.0716 61.9083 41.9956C60.7367 41.829 58.7645 41.8804 58.1633 42.0933ZM62.8775 42.2873C63.0298 42.3526 63.2478 42.406 63.3621 42.406C63.4929 42.406 63.4674 42.3622 63.2928 42.2873C63.1405 42.222 62.9225 42.1687 62.8082 42.1687C62.6774 42.1687 62.7029 42.2125 62.8775 42.2873ZM58.0315 48.2154C58.0315 48.2481 59.5961 48.9067 59.9007 49.1078C60.2053 49.3089 60.4545 49.4219 60.4545 49.3587C60.4545 49.2958 60.2053 49.1045 59.9007 48.9336C59.5961 48.7629 58.0315 48.1827 58.0315 48.2154ZM39.7712 56.2118C39.7165 56.3001 39.8058 56.6683 39.9696 57.0299C40.3514 57.8735 40.7938 59.1275 40.7938 59.3667C40.7938 59.68 40.3982 59.5727 40.1478 59.1913C39.7404 58.5712 38.2723 57.0661 38.0747 57.0661C37.7576 57.0661 37.8579 57.2909 38.5791 58.1977C39.66 59.5566 39.9969 60.0767 39.8988 60.2348C39.7403 60.4906 39.4108 60.3963 38.2396 59.7594C37.0324 59.1029 36.7786 59.0261 36.7786 59.3176C36.7786 59.4687 38.3783 60.5291 39.3202 61.0025C39.6596 61.1731 39.758 61.4291 39.5189 61.5193C39.4206 61.5563 38.8467 61.5021 38.2437 61.3985C37.6406 61.2949 37.1204 61.237 37.0875 61.2697C36.9536 61.4034 37.224 61.6081 37.6455 61.6921C38.7753 61.9172 39.871 62.3712 40.351 62.8132C41.5081 63.8783 44.1467 64.7394 44.7421 64.2463C44.9343 64.0872 44.9154 64.0226 44.5721 63.664C44.1986 63.2738 44.1869 63.2169 44.2164 61.9244C44.2667 59.7189 44.3805 58.9278 44.696 58.5899C45.0805 58.1782 44.8457 57.9326 44.315 58.1915C44.0356 58.3278 43.8631 58.5826 43.6759 59.1354C43.3275 60.164 43.1445 60.3323 42.6128 60.1126C42.0194 59.8674 41.8391 59.6224 41.2842 58.3068C40.7589 57.0612 39.944 55.9329 39.7712 56.2118Z" fill="#9086FF"/>
</svg>
