<svg width="77" height="80" viewBox="0 0 77 80" fill="none" xmlns="http://www.w3.org/2000/svg">
<path fill-rule="evenodd" clip-rule="evenodd" d="M33.568 0.4121C29.1713 1.49764 24.0274 4.07962 18.5613 7.94467C11.4687 12.9599 4.91107 19.5948 3.08225 23.6056C2.79882 24.2271 2.51811 24.8374 2.4583 24.9617C2.39848 25.086 2.74377 24.73 3.22567 24.1706C5.72058 21.274 11.3131 16.3729 14.9898 13.861C21.6557 9.30663 27.7904 6.96626 32.2 7.29511C35.7394 7.55887 41.3257 9.20311 44.7358 10.9843C47.2658 12.3058 48.8567 13.5001 50.9885 15.6775C51.9717 16.6817 52.6997 17.2998 52.6061 17.0512C52.5126 16.8026 52.1349 15.3278 51.7669 13.774C49.6751 4.93937 47.3242 1.74445 41.8797 0.337063C40.0228 -0.142989 35.656 -0.103437 33.568 0.4121ZM16.8023 2.69755C16.4284 2.80897 15.154 3.16065 13.9702 3.47933C9.6526 4.64104 8.67384 5.54916 6.22809 10.6632C6.125 10.879 6.04004 11.1841 6.03959 11.3412C6.03913 11.4983 5.7258 12.2371 5.34313 12.983C4.6358 14.3619 3.2592 18.0811 3.40307 18.2247C3.44657 18.2681 3.73725 17.92 4.04923 17.4512C6.35632 13.9851 12.4656 8.47377 17.8968 4.95949C19.3375 4.02718 20.5218 3.19907 20.5283 3.11906C20.5637 2.69619 17.8406 2.38836 16.8023 2.69755ZM29.0367 11.4438C23.4161 11.9666 17.1845 14.5906 11.7585 18.719C8.74589 21.0112 6.258 23.5554 4.49125 26.1507C1.98206 29.8368 1.28266 31.9719 1.28266 35.9457C1.28266 41.3829 2.6067 45.6518 5.7267 50.2752C7.17716 52.4248 9.19834 54.7434 8.68155 53.6654C8.01228 52.2695 7.3711 49.7592 7.19189 47.8342C6.59943 41.4722 8.91649 35.6754 13.9999 30.8019C15.2952 29.5604 18.4662 27.2175 19.4077 26.8068C19.7193 26.671 20.3546 26.3272 20.8192 26.0431C21.2841 25.759 21.7654 25.5267 21.8886 25.5267C22.0121 25.5267 22.6515 25.2871 23.3092 24.9947C24.8831 24.2945 25.063 24.2339 27.4537 23.5993C36.0167 21.326 45.3815 22.2029 52.9911 25.9912C53.9929 26.4897 54.8464 26.8636 54.8881 26.822C55.026 26.6843 53.576 24.0859 52.2853 22.1582C48.8545 17.0345 43.8814 13.5916 37.8811 12.186C35.6725 11.6687 30.9129 11.2693 29.0367 11.4438ZM31.9657 26.5557C26.2554 27.7525 20.2494 30.9689 16.2084 34.9946C13.093 38.098 11.3493 41.0658 10.5502 44.6248C9.89683 47.5354 9.91247 53.5121 10.5824 56.9426C11.0847 59.5144 12.2737 63.5211 13.5667 67.0002C14.0749 68.3675 14.6207 69.8423 14.7793 70.2773C14.9379 70.7124 15.3711 71.7745 15.7417 72.6376L16.416 74.2068L16.517 70.2645C16.6473 65.1708 17.0458 64.071 19.2743 62.653C20.0061 62.1874 20.3351 62.1133 21.1663 62.227C23.1166 62.4937 25.3587 63.5327 29.0063 65.8604C30.1571 66.5947 32.007 67.3392 32.681 67.3392C33.6468 67.3392 34.3113 66.6421 35.3515 64.5373C36.6171 61.9765 37.1601 61.5173 39.2139 61.2707C40.7283 61.0888 41.611 60.5868 41.611 59.9076C41.611 59.7121 40.8873 58.8255 40.0028 57.9372C39.01 56.9403 38.4248 56.1757 38.4735 55.9393C38.5381 55.6253 38.7232 55.7024 39.5001 56.3671C41.06 57.7015 43.2588 58.2525 43.9056 57.471C44.0989 57.2373 44.2165 56.5369 44.2165 55.6186C44.2165 53.8401 44.2199 53.8383 47.6149 53.7937C50.3548 53.7578 50.7768 53.5426 50.6135 52.2661C50.5528 51.7926 50.2247 50.6465 49.8842 49.7189C49.3305 48.2103 49.2747 47.7983 49.3549 45.8067C49.456 43.2963 49.7541 42.7729 50.5589 43.6939C51.1026 44.3159 52.2595 45.0543 52.2595 44.7794C52.2595 44.6721 52.0196 44.4754 51.7264 44.3421C51.4332 44.2087 50.9191 43.6331 50.584 43.0626L49.9748 42.0257L50.5963 40.9521C50.9379 40.3615 51.8764 38.8626 52.6813 37.6207C54.773 34.3943 55.6489 32.1661 55.9214 29.3784C55.9948 28.6269 55.9674 28.5957 55.2048 28.5623C54.2412 28.52 51.6034 28.132 48.4079 27.5629C44.434 26.855 41.4216 26.4552 38.2239 26.2111C34.5839 25.9335 35.0606 25.9073 31.9657 26.5557ZM1.35425 27.3373C0.55788 28.6147 0.326558 29.3757 0.625848 29.7355C0.768357 29.9068 1.02143 30.047 1.18795 30.047C1.59599 30.047 2.01582 28.5641 1.92361 27.4478L1.84907 26.5438L1.35425 27.3373ZM68.2213 43.5162C67.717 43.6948 66.5445 44.4562 65.6159 45.2082C64.6874 45.9601 63.4177 46.986 62.7947 47.488C60.7205 49.1589 60.5014 49.667 59.6432 54.7954C59.3289 56.6743 59.239 56.8854 58.4669 57.56C58.0072 57.9619 57.289 58.3545 56.871 58.4327C56.1931 58.5597 56.1111 58.6546 56.1111 59.3132C56.1111 59.7191 56.264 60.1779 56.4509 60.3328C56.6378 60.4876 56.7908 60.9156 56.7908 61.284C56.7908 61.8197 56.6555 62.005 56.1172 62.2078C55.2381 62.5386 55.0537 63.0544 55.6441 63.5313C56.2282 64.0032 56.2311 64.2175 55.6579 64.5746C55.0759 64.9373 55.085 65.3875 55.6908 66.2053C56.1215 66.7861 56.1444 66.9394 55.8918 67.5478C55.735 67.9255 55.6677 68.4771 55.7424 68.7739C56.0571 70.0251 58.6121 71.7613 61.9102 72.9651C62.8951 73.3245 64.0068 73.7369 64.3806 73.8818C65.4185 74.2834 66.7297 75.2512 66.881 75.7274C67.0931 76.3942 67.3135 76.2493 68.2093 74.8541C68.6684 74.1392 69.496 72.9443 70.0484 72.1985C73.334 67.7636 74.1288 66.0617 73.9187 63.9103C73.7552 62.2342 73.2515 60.9834 72.0575 59.2883C71.1254 57.965 67.3563 54.2304 66.9528 54.2304C66.8466 54.2304 66.7596 54.0778 66.7596 53.8914C66.7596 53.6744 66.9839 53.5492 67.3826 53.5433L68.0057 53.5343L67.326 53.1783C66.2303 52.6047 64.9255 51.2547 64.4472 50.2004C63.4717 48.0492 64.5098 45.9875 67.326 44.4833C68.6403 43.7813 68.7982 43.7533 72.0838 43.6374C74.7063 43.5449 75.2235 43.4807 74.3494 43.3564C72.4323 43.0839 69.2051 43.1679 68.2213 43.5162ZM75.9354 43.8338C76.1846 43.9407 76.5414 44.0279 76.7284 44.0279C76.9425 44.0279 76.9008 43.9563 76.6151 43.8338C76.3659 43.7269 76.009 43.6396 75.8221 43.6396C75.608 43.6396 75.6497 43.7113 75.9354 43.8338ZM68.0057 53.5343C68.0057 53.5878 70.5658 54.6655 71.0643 54.9945C71.5627 55.3236 71.9705 55.5085 71.9705 55.4052C71.9705 55.3022 71.5627 54.9891 71.0643 54.7095C70.5658 54.4302 68.0057 53.4807 68.0057 53.5343ZM38.1251 66.6193C38.0356 66.7637 38.1817 67.3663 38.4497 67.958C39.0746 69.3385 39.7985 71.3905 39.7985 71.7819C39.7985 72.2945 39.1512 72.1189 38.7413 71.4949C38.0748 70.4801 35.6723 68.0172 35.349 68.0172C34.8302 68.0172 34.9942 68.3852 36.1744 69.8689C37.9431 72.0927 38.4944 72.9436 38.334 73.2024C38.0746 73.621 37.5353 73.4666 35.6188 72.4245C33.6434 71.3502 33.2281 71.2246 33.2281 71.7015C33.2281 71.9487 35.8458 73.684 37.3872 74.4586C37.9425 74.7377 38.1036 75.1567 37.7123 75.3043C37.5514 75.3649 36.6123 75.2761 35.6256 75.1066C34.6387 74.9371 33.7875 74.8424 33.7336 74.8959C33.5145 75.1147 33.957 75.4497 34.6466 75.5871C36.4954 75.9555 38.2884 76.6984 39.0739 77.4216C40.9673 79.1644 45.2849 80.5736 46.2594 79.7667C46.5739 79.5064 46.5428 79.4006 45.9812 78.8139C45.3699 78.1754 45.3509 78.0823 45.3991 75.9672C45.4814 72.3582 45.6676 71.0636 46.1839 70.5108C46.8131 69.8371 46.4289 69.4352 45.5604 69.8588C45.1032 70.0818 44.8209 70.4988 44.5146 71.4033C43.9446 73.0865 43.6451 73.362 42.7751 73.0024C41.804 72.6012 41.509 72.2003 40.601 70.0475C39.7414 68.0093 38.4078 66.163 38.1251 66.6193Z" fill="#9086FF"/>
</svg>
