<svg width="157" height="230" viewBox="0 0 157 230" fill="none" xmlns="http://www.w3.org/2000/svg">
<g opacity="0.5">
<path d="M-16.981 227.732C-17.0524 227.643 -17.1254 227.56 -17.1968 227.471C-16.8884 227.268 -16.5837 227.067 -16.279 226.866C55.0371 180.969 65.0209 99.2253 65.1114 98.4018L67.6147 98.6694C67.5226 99.4988 57.4321 182.41 -14.9188 228.97C-15.1993 229.152 -15.4734 229.345 -15.7502 229.525C-16.1339 228.895 -16.5433 228.29 -16.9815 227.722L-16.981 227.732Z" fill="url(#paint0_linear_768_7197)"/>
<path d="M79.8645 2.36598C79.8645 2.36598 57.8446 11.8489 53.618 41.9844C46.8388 90.2608 66.4314 98.0602 66.4314 98.0602L79.8645 2.36598Z" fill="url(#paint1_linear_768_7197)"/>
<path d="M79.8641 2.36543C79.8641 2.36543 98.4551 17.3039 94.2225 47.4377C87.4471 95.712 66.4288 98.0559 66.4288 98.0559L79.8619 2.36168L79.8641 2.36543Z" fill="#FFD5E0"/>
<path d="M66.3668 98.5375C66.1004 98.501 65.9169 98.2614 65.9534 97.9949L79.3865 2.30069C79.4251 2.03799 79.6685 1.85238 79.9328 1.8851C80.1993 1.92157 80.3827 2.16124 80.3462 2.42769L66.9132 98.1219C66.8745 98.3846 66.6311 98.5702 66.3668 98.5375Z" fill="#F4FBFB"/>
<path d="M69.8242 73.8961C69.7849 73.8887 69.7434 73.8776 69.7057 73.8643C69.4605 73.7605 69.3446 73.4818 69.4485 73.2366C69.8381 72.3155 79.1496 50.6228 90.997 46.5773C91.2484 46.4922 91.5244 46.6234 91.6095 46.8748C91.6945 47.1261 91.5575 47.4006 91.3061 47.4856C79.8679 51.39 70.4347 73.3834 70.341 73.6027C70.2542 73.8081 70.0395 73.922 69.8301 73.8977L69.8242 73.8961Z" fill="#F4FBFB"/>
<path d="M73.8541 45.1897C73.6582 45.1626 73.4962 45.0207 73.449 44.8176C73.4144 44.6623 69.8699 29.12 60.7119 27.8917C60.4455 27.8552 60.2621 27.6155 60.2985 27.3491C60.3372 27.0864 60.5806 26.9008 60.8449 26.9335C70.6649 28.2503 74.2434 43.9382 74.3922 44.6036C74.4466 44.8627 74.2853 45.1211 74.0224 45.1776C73.9649 45.1908 73.9069 45.1943 73.852 45.1859L73.8541 45.1897Z" fill="#F4FBFB"/>
<path d="M-6.42039 88.9118C-6.42039 88.9118 -13.876 108.987 3.15152 130.187C30.4256 164.146 47.6446 156.228 47.6446 156.228L-6.42039 88.9118Z" fill="url(#paint2_linear_768_7197)"/>
<path d="M-6.42063 88.9119C-6.42063 88.9119 14.8308 86.0177 31.8584 107.217C59.1324 141.177 47.6444 156.228 47.6444 156.228L-6.42063 88.9119Z" fill="#FFD5E0"/>
<path d="M47.9175 156.563C47.7282 156.713 47.4564 156.684 47.3093 156.499L-6.75573 89.1822C-6.90288 88.9967 -6.87452 88.7249 -6.68528 88.5756C-6.49604 88.4263 -6.22423 88.4547 -6.07708 88.6402L47.9879 155.957C48.1351 156.142 48.1067 156.414 47.9175 156.563Z" fill="#F4FBFB"/>
<path d="M33.9933 139.23C33.9654 139.251 33.9316 139.27 33.8956 139.286C33.676 139.383 33.4195 139.286 33.3228 139.066C32.9646 138.246 24.5863 118.929 29.2876 108.777C29.3873 108.56 29.644 108.466 29.8618 108.566C30.0796 108.666 30.1727 108.922 30.0709 109.136C25.5294 118.94 34.0305 138.522 34.1142 138.719C34.1952 138.903 34.1359 139.112 33.9874 139.228L33.9933 139.23Z" fill="#F4FBFB"/>
<path d="M17.7783 119.038C17.641 119.147 17.448 119.169 17.2867 119.071C17.1638 118.997 4.8363 111.776 -1.63824 116.956C-1.82747 117.106 -2.09928 117.077 -2.24644 116.892C-2.39359 116.706 -2.36522 116.435 -2.17599 116.285C4.76384 110.731 17.21 118.019 17.7359 118.331C17.9414 118.453 18.0039 118.717 17.8821 118.923C17.8538 118.969 17.8212 119.008 17.782 119.036L17.7783 119.038Z" fill="#F4FBFB"/>
<path d="M143.356 110.646C143.356 110.646 130.088 95.1334 104.305 99.4519C62.9989 106.367 61.4807 124.357 61.4807 124.357L143.353 110.648L143.356 110.646Z" fill="url(#paint3_linear_768_7197)"/>
<path d="M143.356 110.645C143.356 110.645 135.728 129.658 109.943 133.973C68.6365 140.889 61.4843 124.354 61.4843 124.354L143.356 110.645Z" fill="#FFD5E0"/>
<path d="M61.0754 124.427C61.0405 124.202 61.1929 123.989 61.4181 123.954L143.29 110.245C143.513 110.206 143.726 110.359 143.765 110.582C143.8 110.807 143.647 111.02 143.422 111.055L61.5503 124.764C61.3272 124.803 61.114 124.65 61.0754 124.427Z" fill="#F4FBFB"/>
<path d="M82.1584 120.894C82.1545 120.861 82.1522 120.822 82.1558 120.785C82.179 120.556 82.3789 120.391 82.6076 120.414C83.4617 120.497 103.58 122.493 109.852 131.118C109.987 131.3 109.946 131.559 109.758 131.693C109.574 131.824 109.317 131.787 109.179 131.601C103.126 123.277 82.7281 121.256 82.5246 121.233C82.333 121.213 82.1845 121.069 82.1562 120.89L82.1584 120.894Z" fill="#F4FBFB"/>
<path d="M106.717 116.782C106.692 116.616 106.767 116.443 106.921 116.354C107.041 116.284 118.91 109.387 117.64 101.601C117.605 101.376 117.757 101.163 117.983 101.128C118.206 101.089 118.419 101.241 118.458 101.465C119.821 109.812 107.84 116.775 107.333 117.067C107.134 117.182 106.883 117.112 106.77 116.917C106.746 116.875 106.728 116.826 106.721 116.78L106.717 116.782Z" fill="#F4FBFB"/>
</g>
<defs>
<linearGradient id="paint0_linear_768_7197" x1="34.7012" y1="221.387" x2="16.0394" y2="106.42" gradientUnits="userSpaceOnUse">
<stop stop-color="#FF8FC0"/>
<stop offset="1" stop-color="#FFABC2"/>
</linearGradient>
<linearGradient id="paint1_linear_768_7197" x1="76.0111" y1="96.5577" x2="61.2223" y2="5.45005" gradientUnits="userSpaceOnUse">
<stop stop-color="#FF8FC0"/>
<stop offset="1" stop-color="#FFABC2"/>
</linearGradient>
<linearGradient id="paint2_linear_768_7197" x1="22.9959" y1="159.146" x2="15.4215" y2="86.5933" gradientUnits="userSpaceOnUse">
<stop stop-color="#FF8FC0"/>
<stop offset="1" stop-color="#FFABC2"/>
</linearGradient>
<linearGradient id="paint3_linear_768_7197" x1="102.48" y1="117.751" x2="99.6405" y2="100.258" gradientUnits="userSpaceOnUse">
<stop stop-color="#FF8FC0"/>
<stop offset="1" stop-color="#FFABC2"/>
</linearGradient>
</defs>
</svg>
